<?xml version="1.0" encoding="utf-8"?>
<!-- Generator: Adobe Illustrator 18.0.0, SVG Export Plug-In . SVG Version: 6.00 Build 0)  -->
<!DOCTYPE svg PUBLIC "-//W3C//DTD SVG 1.1//EN" "http://www.w3.org/Graphics/SVG/1.1/DTD/svg11.dtd">
<svg version="1.1" xmlns="http://www.w3.org/2000/svg" xmlns:xlink="http://www.w3.org/1999/xlink" x="0px" y="0px"
	 viewBox="0 0 420 420" enable-background="new 0 0 420 420" xml:space="preserve">
<symbol  id="Broken_Records" viewBox="-210 -210 420 420">
	<polygon fill="#FFFFFF" points="210,-210 -210,-210 -210,210 210,210 	"/>
	<g>
		<g>
			<g>
				<path fill="#A48A46" d="M-126.1-20.4c0,0,0.1-0.1,0.1-0.4s0-0.6,0-0.9v-0.4c-0.7,0-1.4-0.1-1.9-0.4c-0.6-0.3-1.1-0.8-1.6-1.6
					v-17.1h-2v20.5h2v-2.3c0.2,0.8,0.7,1.4,1.3,1.9C-127.7-20.6-127-20.4-126.1-20.4z"/>
				<path fill="#A48A46" d="M-91.1-27.3c0,2.4,0.2,4,0.7,4.9c0.5,0.9,1.1,1.5,1.8,1.7c0.5,0.2,1,0.2,1.6,0.2s1.1-0.1,1.6-0.2
					c0.7-0.2,1.2-0.8,1.7-1.8c0.3-0.7,0.5-2.4,0.5-5.1v-3.4H-89V-35c0-2.1,0.2-3.4,0.5-3.9c0.3-0.5,0.8-0.7,1.4-0.7s1,0.2,1.3,0.6
					c0.2,0.4,0.4,0.9,0.5,1.5c0.1,0.6,0.1,1.4,0.1,2.5v1.5h2v-0.7c0-2-0.1-3.4-0.2-4.2c-0.3-2-1.5-3-3.4-3c-1.7,0-2.8,0.5-3.3,1.5
					c-0.4,0.7-0.6,1.4-0.7,2.3c-0.1,0.9-0.1,2-0.1,3.4V-27.3z M-85.3-29.2v2.8c0,1.5-0.1,2.6-0.2,3c-0.2,0.8-0.7,1.2-1.5,1.2
					c-1.1,0-1.7-0.7-1.9-2.1c-0.1-0.6-0.1-1.3-0.1-2.1c0-0.1,0-0.2,0-0.2v-2.5H-85.3z"/>
				<path fill="#A48A46" d="M-47.4-27.1c0,2.3,0.2,3.9,0.7,4.8s1.1,1.5,1.8,1.7c0.4,0.1,1.1,0.2,1.8,0.2c0.8,0,1.5-0.2,2.1-0.6
					c0.4-0.3,0.7-0.8,1-1.6c0.3-0.8,0.4-2.3,0.4-4.6v-0.6h-2.1v1.3c0,1.6-0.1,2.6-0.2,3.1c-0.2,0.8-0.7,1.2-1.5,1.2
					c-1,0-1.6-0.6-1.8-1.7c-0.1-0.6-0.2-1.5-0.2-2.7v-8.2c0-1.9,0.1-3,0.2-3.3c0.1-0.4,0.3-0.6,0.4-0.8c0.3-0.3,0.7-0.5,1.4-0.5
					s1.1,0.3,1.3,0.9c0.2,0.6,0.3,1.2,0.4,1.9c0,0.7,0,1.3,0,1.8v1.5h2.1v-0.6c0-2.1-0.1-3.5-0.2-4.2c-0.4-2.1-1.5-3.1-3.5-3.1
					c-1.7,0-2.8,0.5-3.3,1.5c-0.4,0.7-0.6,1.5-0.7,2.3c-0.1,0.9-0.1,2-0.1,3.4V-27.1z"/>
				<path fill="#A48A46" d="M-4-27.2c0,2.4,0.2,4,0.7,4.9s1.1,1.5,1.8,1.7c0.5,0.1,1,0.2,1.5,0.2c2.3,0,3.6-1.3,3.9-3.8
					C4-25,4-26,4-27.2v-6.9c0-1.6,0-2.7-0.1-3.1s-0.1-0.9-0.2-1.2c-0.4-2-1.6-2.9-3.8-2.9c-0.9,0-1.6,0.2-2.1,0.5
					c-1,0.7-1.6,2-1.7,3.8C-4-36.2-4-35.3-4-34.1V-27.2z M2-26.8c0,2.4-0.3,3.8-0.9,4.3c-0.3,0.2-0.6,0.3-1,0.3
					c-1,0-1.7-0.6-1.9-1.7C-1.9-24.6-2-25.6-2-26.8v-8.1c0-2,0.2-3.3,0.5-3.9c0.3-0.6,0.9-0.9,1.6-0.9s1.2,0.4,1.5,1.3
					s0.4,2,0.4,3.5V-26.8z"/>
				<path fill="#A48A46" d="M46-20.4c0,0,0.1-0.1,0.1-0.4s0-0.6,0-0.9v-0.4c-0.7,0-1.4-0.1-1.9-0.4c-0.6-0.3-1.1-0.8-1.6-1.6v-17.1
					h-2v20.5h2v-2.3c0.2,0.8,0.7,1.4,1.3,1.9C44.4-20.6,45.1-20.4,46-20.4z"/>
				<path fill="#A48A46" d="M87-16.8h2.1v-24.4H87v1.6c-0.5-1.1-1.4-1.7-2.7-1.7c-1.5,0-2.5,0.9-2.9,2.7c-0.2,1-0.3,2.3-0.3,4v7.2
					c0,2.8,0.3,4.6,1,5.6c0.7,0.9,1.6,1.4,2.8,1.4c0.5,0,0.9-0.2,1.3-0.5c0.4-0.3,0.7-0.7,0.9-1.2V-16.8z M87-27
					c0,1.8-0.1,3-0.4,3.7s-0.8,1.1-1.6,1.1s-1.3-0.4-1.6-1.1s-0.4-2-0.4-3.8v-8.1c0-1.9,0.1-3.1,0.4-3.6s0.7-0.8,1.3-0.8
					s1,0.1,1.3,0.3c0.3,0.2,0.5,0.6,0.6,1.1c0.2,0.5,0.3,1.5,0.3,3V-27z"/>
				<path fill="#A48A46" d="M125.4-25c0,1.5,0.4,2.7,1.1,3.4s1.7,1.2,3,1.2s2.2-0.5,2.8-1.5c0.6-1,0.9-2.7,0.9-5.1v-1.1H131v1.5
					c0,1.5-0.1,2.5-0.4,3.3c-0.3,0.7-0.7,1.1-1.3,1.1s-1.1-0.2-1.4-0.6s-0.5-1.1-0.5-2.2c0,0,0-0.1,0-0.1c0-1.6,0.7-3.1,2.2-4.6
					l1.1-1c1.8-1.8,2.7-3.8,2.7-6c0-1.5-0.3-2.6-0.9-3.5c-0.6-0.8-1.6-1.3-3-1.3s-2.4,0.5-3,1.4c-0.7,0.9-1,2.4-1,4.4v1.8h2.1v-1.4
					c0-2.9,0.6-4.3,1.9-4.3c0.7,0,1.2,0.2,1.4,0.7c0.3,0.4,0.4,1.2,0.4,2.3c0,1.7-0.7,3.2-2.1,4.7l-1.1,1.1
					C126.3-29,125.4-27,125.4-25z"/>
			</g>
			<g>
				<g>
					<path fill="#A48A46" d="M-132.2,5.5c0,1.4,0.1,2.4,0.4,3c0.2,0.6,0.4,1,0.4,1.3c0,0.6,0.1,1.3,0.2,2c0.1,0.8,0.2,1.5,0.3,2.1
						c0.1,0.7,0.2,1.2,0.3,1.7c0.1,0.5,0.1,0.7,0.2,0.7c0.1,0,0.2,0,0.2-0.1c0,0.1,0,0.2,0,0.2c0,0,0,0.1,0,0.2c0,0.2,0,0.4-0.1,0.6
						c0.2,0.2,0.3,0.6,0.3,1.1c-0.1,0.5,0,1,0.3,1.6c0.2-0.2,0.3-0.5,0.3-0.8v-0.5v-0.2c0.2,0.2,0.3,0.4,0.3,0.6
						c0,0.2,0.1,0.4,0.1,0.6c-0.1,0-0.1,0-0.2,0.1c-0.1,0.1-0.1,0.1-0.1,0.2c0,0.1,0,0.2,0,0.3c0,0.1,0,0.3,0,0.5
						c0-0.1-0.1-0.1-0.1-0.1c-0.1,0-0.1,0-0.2-0.1c-0.1,0-0.1,0.1-0.1,0.2c0,0.2,0.2,0.4,0.6,0.4c0,0.3,0.1,0.7,0.1,1
						c0,0.3,0.2,0.7,0.4,1.1c0-0.2,0-0.5,0-0.8c0-0.3,0.1-0.4,0.3-0.4c0.2,0,0.3,0.2,0.3,0.5c0,0-0.1,0-0.1,0.2
						c0,0.2,0.1,0.5,0.3,0.7c0.1-0.1,0.1-0.2,0.1-0.2c0.1,0.2,0.2,0.5,0.2,0.8c0,0.2,0,0.5,0,0.8c-0.1-0.1-0.2-0.2-0.2-0.4
						c0-0.2-0.1-0.3-0.2-0.4c0,0.2,0.1,0.5,0.1,0.6c0,0.2,0,0.4,0.1,0.6c0.1-0.2,0.2-0.3,0.2-0.2c0.2,0.2,0.4,0.7,0.5,1.4
						c0.1,0.7,0.2,1.5,0.3,2.3s0.1,1.6,0.2,2.2c0,0.7,0.1,1.1,0.1,1.2c0.1,1,0.3,2,0.5,2.9c0.2,0.9,0.3,1.4,0.3,1.5
						c-0.2,0.1-0.3,0.2-0.3,0.3s-0.2,0.1-0.3,0.1c0,0.2,0.1,0.2,0.2,0.2c-0.2,0.2-0.4,0.4-0.6,0.6c-0.2,0.1-0.4,0.2-0.7,0.2
						c0.1,0.2,0.2,0.3,0.3,0.5h-0.2h-0.1c-0.1,0-0.3,0-0.5,0c-0.3,0-0.4,0.1-0.4,0.2c0,0.2,0,0.3,0.1,0.4c-0.1,0-0.3-0.1-0.5-0.1
						l-0.2,0.3c0.4,0.1,0.6,0.2,0.5,0.5c-0.1,0.2,0,0.3,0.3,0.3c1.1,0,2.2,0.1,3.5,0.4c1.3,0.3,2.6,0.5,3.8,0.6
						c0.5,0,1.1,0.1,1.6,0.1c0.5,0,1.1,0,1.6,0c0.6,0,1.3,0,1.9-0.1c0.6-0.1,1.3-0.1,1.9-0.1c0.2,0,0.4,0,0.5,0.1
						c0.3,0,0.7-0.1,1-0.2c0.3-0.1,0.6-0.2,0.9-0.2c0,0,0.1,0,0.2,0c0,0,0.1,0,0.2,0c1,0,1.8-0.1,2.2-0.4c0.5-0.3,1-0.4,1.4-0.4
						c0.4-0.1,0.8-0.2,1.3-0.4c0.5-0.2,0.9-0.4,1.3-0.6c0.4-0.2,0.8-0.4,1.1-0.6c0.3-0.2,0.6-0.3,0.7-0.3c0.7-0.2,1.4-0.6,2.1-1.2
						c0.7-0.6,1.4-1.2,2-1.9c0.6-0.7,1.2-1.3,1.7-2c0.5-0.7,0.9-1.2,1.2-1.5c1-0.9,1.8-1.7,2.4-2.5c0.6-0.8,1.1-1.5,1.4-2.1
						c0.3-0.6,0.5-1.1,0.7-1.4c0.1-0.3,0.2-0.5,0.2-0.4c0.2-0.1,0.2-0.4,0.2-0.6c0-0.5-0.1-1-0.3-1.4c-0.2-0.4-0.4-0.8-0.6-1.1
						c-0.2-0.3-0.4-0.5-0.6-0.7c-0.2-0.2-0.3-0.3-0.3-0.3c-0.3-0.8-0.9-1.6-1.7-2.4c-0.8-0.8-1.6-1.5-2.5-2.1
						c-0.9-0.7-1.7-1.2-2.4-1.7c-0.7-0.5-1.2-0.8-1.5-0.9c-1.5-1-3-1.8-4.5-2.5c-1.6-0.7-3.2-1.3-4.8-1.8c0,0-0.1,0-0.1,0
						c0,0-0.1,0-0.1,0c0.3-0.5,0.7-1,1.3-1.6c0.5-0.6,1.1-1.1,1.7-1.6c0.6-0.5,1.2-1,1.7-1.5c0.5-0.5,0.9-0.9,1.2-1.3
						c0.2-0.5,0.6-1,0.9-1.6c0.4-0.6,0.6-0.9,0.6-1.1c0-0.5-0.1-1-0.2-1.5c-0.1-0.6-0.3-1.1-0.4-1.6c-0.2-0.5-0.3-0.9-0.5-1.3
						c-0.2-0.4-0.2-0.6-0.2-0.6c0-0.7-0.4-1.3-1.3-2c-0.9-0.7-1.8-1.4-2.9-2c-1-0.7-2.1-1.2-3.1-1.8c-1-0.5-1.7-0.9-2-1.2
						c-0.2,0-0.6-0.1-1.1-0.3c-0.5-0.2-1.1-0.4-1.7-0.6c-0.6-0.2-1.2-0.4-1.7-0.6c-0.5-0.2-0.9-0.3-1-0.3c-0.4,0-0.7-0.1-1-0.2
						c-0.3-0.1-0.7-0.2-1.2-0.3c-0.5-0.1-1-0.2-1.6-0.4c-0.6-0.1-1.4-0.3-2.3-0.4c-0.1,0-0.2,0-0.2,0c0,0-0.1,0-0.2,0
						c-0.5,0-1,0-1.5,0.1c-0.6,0.1-1.1,0.1-1.5,0.2c-0.5,0.1-0.9,0.2-1.2,0.2c-0.3,0.1-0.5,0.2-0.5,0.3c-0.2,0-0.3,0.1-0.5,0.3
						c-0.2,0.2-0.3,0.4-0.5,0.6c-0.2,0.2-0.3,0.4-0.4,0.5c-0.1,0.1-0.2,0.2-0.2,0.1c0,0.2-0.1,0.3-0.2,0.4c-0.1,0.1-0.3,0.2-0.5,0.4
						c-0.2,0.1-0.4,0.3-0.6,0.5c-0.2,0.2-0.3,0.5-0.5,0.8c-0.1-0.1-0.2-0.1-0.2-0.1c-0.1,0-0.1,0-0.2-0.1c-0.1,0.4-0.3,0.7-0.5,0.8
						c-0.2,0.1-0.4,0.2-0.6,0.3c-0.2,0.1-0.4,0.1-0.6,0.2c-0.2,0.1-0.3,0.3-0.3,0.6c0,1.3,0.2,2.7,0.5,4.2c0.3,1.5,0.6,3,0.9,4.3
						c0.3,0.6,0.5,1.7,0.7,3c0.2,1.4,0.3,2.5,0.5,3.5c0,0.2,0,0.5,0,1c0,0.5,0.1,0.9,0.1,1.4c0,0.5,0.1,0.9,0.2,1.3
						c0.1,0.4,0.2,0.7,0.3,0.8c0-0.1,0.1-0.2,0.1-0.3c0-0.1,0-0.2,0-0.2c0,0,0-0.1,0-0.2c0-0.4,0-0.6,0.1-0.8
						c0.1,0.2,0.2,0.4,0.3,0.8c0.1,0.4,0.2,0.8,0.2,1.3c0,0.5,0.1,0.9,0.1,1.2c0,0.4,0,0.6,0,0.7c0,0.2,0,0.2,0.1,0.2
						c0-0.6,0-1.2-0.1-1.8c-0.1-0.7-0.1-1.3-0.2-1.8c-0.1-0.6-0.1-1-0.2-1.3c-0.1-0.3-0.1-0.3-0.1-0.1c0-0.1,0.1-0.1,0.1-0.2
						c0-0.5-0.1-1-0.2-1.5c-0.1-0.5-0.2-1.1-0.2-1.8C-132.3,5.7-132.2,5.6-132.2,5.5c-0.1,0-0.3-0.4-0.4-1c-0.1-0.7-0.2-1.2-0.2-1.6
						c0-0.1,0-0.1,0-0.1c0,0,0-0.1,0-0.2c0.2,0.2,0.4,0.7,0.5,1.5C-132.2,4.8-132.2,5.3-132.2,5.5z M-134.2-6.2c0,0,0.1,0.1,0.1,0.4
						c-0.1,0-0.1-0.1-0.1-0.2C-134.2-6.1-134.2-6.1-134.2-6.2z M-133.5-1.8c-0.3-1.2-0.5-2.3-0.7-3.5l0.1-0.1
						c0.2,0.6,0.3,1.2,0.3,1.8C-133.6-3-133.6-2.4-133.5-1.8z M-133.5,0.8c-0.1,0-0.2-0.1-0.2-0.4C-133.6,0.5-133.5,0.6-133.5,0.8z
						 M-133.3-0.5c0,0,0,0.1,0.1,0.1c0.1,0,0.1,0.1,0.1,0.1c0,0.2,0.1,0.4,0.2,0.7c0.1,0.3,0.1,0.5,0.1,0.5s-0.1,0.2-0.2,0.4
						c-0.3-0.6-0.4-1.1-0.4-1.5c0-0.5-0.1-0.9-0.2-1.4c0,0.2,0.1,0.3,0.2,0.5c0,0.2,0.1,0.3,0.1,0.4C-133.2-0.6-133.3-0.5-133.3-0.5
						z M-133.1,3.2C-133.1,3.1-133.1,3.1-133.1,3.2c-0.1,0-0.2,0-0.2-0.2c-0.1,0,0,0,0,0C-133.1,2.9-133.1,3-133.1,3.2z M-132.9,1.5
						c0,0.1,0.1,0.3,0.1,0.5v0.2l-0.2-0.5V1.7C-132.9,1.6-132.9,1.6-132.9,1.5z M-132.8,5.9c0.1,0.5,0.2,0.8,0.3,1s0.1,0.5,0.1,1
						c0,0,0,0.1,0,0.1c0,0,0,0.1,0,0.2c-0.1-0.4-0.1-0.8-0.2-1.2S-132.7,6.2-132.8,5.9z M-132.7-6.6C-132.8-6.6-132.7-6.6-132.7-6.6
						c0.1,0,0.1,0,0.1,0.1C-132.7-6.5-132.7-6.5-132.7-6.6z M-132.6-5C-132.6-5-132.5-5.1-132.6-5c0.2-0.1,0.2,0,0.2,0.2L-132.6-5z
						 M-132.3,9c-0.1,0-0.2-0.1-0.2-0.2C-132.3,8.8-132.3,8.9-132.3,9z M-132.2,9.8c0,0-0.1-0.1-0.1-0.2
						C-132.2,9.5-132.2,9.6-132.2,9.8z M-132-1.8c0.3,0.3,0.5,0.8,0.6,1.4c0,0.6,0,1,0,1.3v0.2l-0.2-0.4c0-0.1,0-0.1,0-0.2
						s0-0.1,0-0.2c-0.1-0.2-0.2-0.4-0.2-0.5s-0.1-0.3-0.1-0.4s0-0.3,0.1-0.3c-0.2-0.3-0.3-0.6-0.3-1c0-0.4,0-0.7,0-0.9
						c0-0.1,0-0.2,0-0.2c0,0,0-0.1,0-0.1c0,0,0,0.2,0.1,0.4c0.1,0.2,0.1,0.3,0.1,0.5C-131.8-2.2-131.9-2-132-1.8z M-131.4,2.3
						c-0.1-0.1-0.1-0.3-0.1-0.5c0-0.1,0-0.1,0.1-0.1c0,0,0,0.1,0,0.2C-131.4,2.1-131.4,2.2-131.4,2.3z M-131.1,2.6
						c0,0.6,0.1,1.1,0.2,1.6c-0.1,0-0.2-0.2-0.3-0.6c-0.1-0.4-0.2-0.7-0.3-0.9C-131.3,2.7-131.2,2.6-131.1,2.6z M-131.4,1.3
						c0,0.1,0.1,0.2,0.2,0.3c0,0.1,0.1,0.2,0.1,0.2C-131.3,1.8-131.4,1.6-131.4,1.3z M-131.3,2.1c0.1,0,0.2,0,0.2,0.2
						c0,0.1-0.1,0.2-0.2,0.2V2.1z M-131.1,9.8c0.1,0,0.1,0,0.1,0.1c0,0-0.1,0-0.1,0.1C-131,9.9-131,9.8-131.1,9.8z M-130.8,4.6
						c0,0.2,0.1,0.3,0.1,0.5c-0.1-0.1-0.2-0.2-0.2-0.3C-130.9,4.7-130.9,4.7-130.8,4.6z M-130,14.1c0.2-0.1,0.2-0.3,0.2-0.5
						c0-0.1-0.1-0.2-0.2-0.2c-0.1-0.1-0.2-0.1-0.2-0.2l0.1-0.1c0-0.1,0-0.2-0.1-0.3s-0.1-0.2-0.1-0.3c0-0.1,0.1-0.2,0.1-0.2
						c0-0.1,0-0.2,0-0.3c-0.1-0.2-0.1-0.5-0.2-0.9c0-0.3-0.1-0.6-0.1-0.9c0-0.1,0-0.1,0-0.1c0,0,0-0.1,0-0.1
						c-0.2-0.4-0.3-0.7-0.3-0.8c0-0.2,0-0.3,0.2-0.4c-0.2,0-0.2-0.1-0.2-0.2c0-0.1,0-0.2,0.1-0.3c0.1-0.1,0.1-0.2,0.1-0.3
						c0-0.6-0.1-1-0.2-1.4c-0.1-0.4-0.2-0.9-0.2-1.4c0.2,0.3,0.4,0.8,0.5,1.3c0.1,0.5,0.1,1.1,0.1,1.7c0,0.6,0,1.1,0,1.5
						c0,0.5,0,0.8,0.2,1c0,0.2,0,0.5,0.1,0.8c0,0.3,0.1,0.7,0.1,1c0,0.3,0.1,0.6,0.2,0.9c0,0.3,0.1,0.5,0.1,0.6c0,0.5,0,1.1,0.1,1.7
						c0.1,0.6,0.1,1.2,0.1,1.7c0,0.2-0.1,0.4-0.2,0.4c-0.1-0.2-0.2-0.5-0.3-1c-0.2-0.5-0.3-1-0.3-1.3c0.2,0,0.4-0.2,0.4-0.3
						c0-0.2,0-0.3,0-0.4c0-0.3-0.1-0.5-0.3-0.7c-0.2-0.2-0.3-0.4-0.3-0.5C-130.1,13.9-130,14-130,14.1z M-130.3,14.9
						c-0.1-0.1-0.2-0.2-0.2-0.2c0-0.1,0-0.2,0.1-0.3C-130.4,14.6-130.4,14.8-130.3,14.9z M-130.4,15.9
						C-130.3,15.9-130.3,15.8-130.4,15.9c0.1,0,0.1,0.1,0.2,0.1C-130.3,15.9-130.4,15.9-130.4,15.9
						C-130.3,15.9-130.3,15.9-130.4,15.9z M-129.6,18.9C-129.6,18.9-129.7,18.9-129.6,18.9h-0.1C-129.8,18.8-129.7,18.8-129.6,18.9
						L-129.6,18.9z M-129.7,18.2L-129.7,18.2l-0.1-0.1C-129.8,18.1-129.8,18.1-129.7,18.2z M-129.6,9.1c-0.1,0-0.1-0.1-0.1-0.2
						c0,0,0.1,0.1,0.1,0.1C-129.7,9-129.7,9.1-129.6,9.1z M-129.3,13.5c-0.1-0.1-0.1-0.3-0.1-0.5c0-0.3,0-0.5,0-0.7
						C-129.3,12.6-129.3,13-129.3,13.5z M-129.1,14.1l-0.2-0.1h-0.1c0-0.2,0.1-0.2,0.2-0.2V14.1z M-128.8,14.4c0,0.1,0,0.2,0,0.3
						c0,0,0,0.1,0,0.2c-0.2,0-0.2-0.1-0.2-0.5c-0.1,0.2-0.1,0.4-0.1,0.6c0,0.2,0,0.4-0.1,0.7c-0.1-0.3-0.2-0.6-0.2-0.8
						c0-0.2,0-0.4,0-0.7c0.1,0,0.2,0,0.2,0C-129,14.4-128.9,14.4-128.8,14.4z M-129,16.1c0.1,0.2,0.1,0.5,0.1,0.8c0,0.3,0,0.5,0,0.8
						c0,0.3,0,0.6-0.1,0.7c0-0.4,0-0.8,0-1.1C-129,16.9-129,16.5-129,16.1z M-128.7,19c-0.1,0-0.1,0-0.2,0.1c0,0-0.1-0.1-0.1-0.1
						c0-0.1,0-0.1,0.1-0.2c0,0,0,0.1,0,0.2C-128.7,18.9-128.7,19-128.7,19z M-128.7,20.3c-0.1,0-0.2,0-0.2-0.1c0-0.1,0-0.2,0-0.2
						c0-0.1,0-0.3,0.2-0.5c0,0.2,0,0.3,0,0.5C-128.7,20.1-128.7,20.2-128.7,20.3z M-128.7,21.1l-0.2-0.3c0,0,0-0.1,0.1-0.2
						c0.1,0,0.2,0,0.2,0.2C-128.6,21-128.6,21.1-128.7,21.1z M-128.4,22.1c-0.2-0.2-0.3-0.3-0.3-0.4c0-0.1,0.1-0.2,0.2-0.3
						c0,0.1,0,0.2,0,0.3C-128.4,21.8-128.4,21.9-128.4,22.1z M-128.5,17.7c0,0.2,0.1,0.5,0.1,0.8c-0.1-0.1-0.1-0.1-0.1-0.2
						s0-0.2,0-0.2C-128.5,17.9-128.5,17.8-128.5,17.7L-128.5,17.7z M-128.4,19.5C-128.4,19.5-128.4,19.5-128.4,19.5
						c-0.1-0.1-0.1-0.1-0.2-0.1c0.2-0.2,0.2-0.2,0.2-0.2V19.5z M-128.3,21.3c0-0.2,0-0.4-0.1-0.5c-0.1-0.1-0.1-0.3-0.1-0.5
						c0-0.2,0-0.3,0.1-0.4c0,0.2,0.1,0.4,0.1,0.5c0,0.2,0,0.3,0,0.5c0,0.1,0,0.2,0,0.2C-128.3,21.1-128.3,21.2-128.3,21.3z
						 M-119.5-4.4L-119.5-4.4c0.7,0.4,1.2,0.7,1.6,0.9c0.4,0.2,0.7,0.4,1,0.6c0.3,0.2,0.3,0.2,0.2,0.2c0.8,0.7,1.5,1.3,2.1,1.9
						c0.6,0.5,1.2,1,1.8,1.4c0.2,0.2,0.5,0.5,0.6,0.8s0.3,0.5,0.5,0.7l-0.1-0.1c0.2,0.2,0.4,0.4,0.5,0.7c0.1,0.3,0.2,0.5,0.2,0.5
						c-0.1,0-0.2,0-0.2-0.1c0,0-0.1-0.1-0.1-0.1c-0.1,0-0.2,0-0.2,0.2c0,0.2,0.1,0.4,0.2,0.6c0.1,0.2,0.3,0.5,0.4,0.7h-0.3
						c0,0.3,0.1,0.7,0.3,1c0.2,0.3,0.3,0.7,0.3,1.1c0,0.5-0.2,0.8-0.6,1.1c-0.4,0.3-0.8,0.5-1.3,0.7c-0.5,0.2-1,0.3-1.4,0.4
						s-0.8,0.1-0.9,0.2C-115,9-115.3,9-115.6,9s-0.6,0-0.8,0c-0.3,0-0.5,0-0.6-0.1c-1.3,0.7-2.1,1.2-2.5,1.7
						c-0.4,0.4-0.7,0.7-0.8,0.9c-0.1,0.2-0.2,0.4-0.2,0.5c0,0.1-0.2,0.2-0.5,0.4c-0.8,0.8-1.3,1.2-1.6,1.5c-0.3,0.2-0.5,0.3-0.5,0.3
						s0,0,0-0.1s0,0-0.1,0.3c-0.3,0.3-0.6,0.5-1.1,0.5c-0.1,0-0.2-0.1-0.3-0.4c-0.1-0.3-0.1-0.5-0.1-0.8c0-0.3,0-0.6,0-0.9
						c0-0.3,0-0.5,0-0.6c0-0.2,0-0.4-0.1-0.7c0-0.3-0.1-0.6-0.1-1c-0.1-0.4-0.1-0.7-0.2-1c-0.1-0.3-0.1-0.6-0.1-0.8
						c0-0.1,0-0.2,0-0.3c0-0.1,0-0.2,0-0.3c0-0.8,0-1.6-0.1-2.5c-0.1-0.9-0.2-1.7-0.3-2.5c-0.1-0.8-0.3-1.5-0.5-2.2
						c-0.2-0.7-0.3-1.2-0.5-1.6v-0.8c0-1.3-0.1-2.3-0.4-3.2c-0.3-0.9-0.4-1.6-0.4-2.1c0-0.1,0-0.2,0.2-0.3c-0.3-0.2-0.4-0.3-0.4-0.4
						c0-0.2,0.1-0.4,0.2-0.3c0.1,0,0.2,0,0.3,0c0.6,0.1,1.4,0.3,2.3,0.5c0.9,0.2,1.8,0.5,2.7,0.8s1.7,0.6,2.5,0.9s1.2,0.7,1.5,1.1
						c0.3,0,0.7,0.1,1,0.3c0.3,0.2,0.6,0.3,0.8,0.5c0.2,0.2,0.4,0.3,0.5,0.5c0.1,0.1,0.1,0.2,0,0.1c0.2,0.1,0.5,0.2,0.7,0.4
						c0.2,0.2,0.5,0.3,0.7,0.5c-0.1,0.1-0.1,0.2-0.1,0.3c0-0.1,0.2,0.1,0.5,0.4s0.6,0.6,1,1.1l1.6,1.6c-0.1,0-0.4-0.2-0.7-0.5
						c-0.3-0.3-0.7-0.7-1.1-1.1c-0.4-0.4-0.8-0.8-1.3-1.2s-0.9-0.7-1.2-1c-0.6-0.4-1.1-0.8-1.7-1.2c-0.6-0.5-1.1-0.8-1.7-1.1
						l-0.1,0.1c0,0,0.2,0.2,0.7,0.6c0.5,0.3,1,0.7,1.7,1.2c0.6,0.5,1.3,0.9,2,1.4c0.6,0.5,1.1,0.9,1.4,1.2c1.1,0.9,1.7,1.5,1.9,2
						c0.2,0.5,0.3,0.8,0.5,1c-0.4-0.6-0.8-1.2-1.4-1.8s-1.3-1.4-2.1-2c-0.8-0.7-1.6-1.3-2.5-1.9C-117.6-3.7-118.6-4.1-119.5-4.4z
						 M-124.8-7.6v0.2c-0.4-0.1-0.6-0.2-0.9-0.2s-0.4-0.1-0.6-0.3c0.3,0.1,0.5,0.2,0.8,0.2C-125.2-7.7-125-7.7-124.8-7.6z
						 M-101.9,23.3c0.1,0.1,0.2,0.2,0.3,0.3c0.1,0.1,0.2,0.2,0.3,0.3c0-0.1,0.1-0.1,0.1-0.2c0.2,0.2,0.5,0.4,0.9,0.7
						c0.3,0.3,0.6,0.6,0.8,0.8l-0.1,0.1c-0.1-0.1-0.2-0.2-0.2-0.2c0.2,0.2,0.3,0.4,0.4,0.5c0.1,0,0.3,0.2,0.5,0.5c0,0,0.1,0,0.1,0
						c0,0,0,0,0.1,0c0,0,0.2,0.1,0.3,0.3c0.2,0.2,0.4,0.5,0.6,0.8c0.2,0.3,0.4,0.5,0.5,0.8c0.2,0.2,0.2,0.4,0.2,0.5
						c-0.1,0-0.2-0.1-0.5-0.5c-0.3-0.3-0.6-0.7-1-1.1c-0.4-0.4-0.8-0.9-1.2-1.3s-0.8-0.8-1.1-1.1c-0.1-0.1-0.1-0.1-0.2-0.1
						c0.6,0.6,1.3,1.4,2.1,2.3c0.8,0.9,1.4,1.7,1.8,2.5c-0.3,0-0.6-0.2-0.8-0.5c-0.3-0.4-0.5-0.7-0.8-0.9l0.3-0.2
						c-0.5,0-0.9-0.2-1.1-0.7c-0.2-0.5-0.5-0.7-0.8-0.7c0.2,0.1,0.3,0.3,0.6,0.6c0.2,0.2,0.5,0.5,0.8,0.8c0.3,0.3,0.5,0.6,0.7,0.9
						c0.2,0.3,0.3,0.5,0.3,0.8c-0.5-0.5-0.9-1-1.4-1.5c-0.5-0.6-0.9-1.1-1.4-1.5c0,0.2,0.1,0.4,0.4,0.7c0.3,0.3,0.6,0.7,0.9,1.1
						c0.3,0.4,0.7,0.7,0.9,1.1c0.3,0.3,0.4,0.6,0.4,0.8c0,0.1-0.1,0.3-0.3,0.4c-0.2,0.1-0.4,0.2-0.7,0.3c-0.3,0.1-0.5,0.2-0.7,0.3
						c-0.2,0.1-0.3,0.2-0.3,0.3h0.2c-1,0.5-2,0.9-3.2,1.2c-1.2,0.3-2.3,0.5-3.2,0.5v-0.2c-1.2,0-2.4,0.1-3.6,0.2
						c-1.3,0.1-2.4,0.2-3.5,0.2c-0.2-0.1-0.5-0.1-0.7-0.1c-0.2,0-0.5-0.1-0.7-0.1h-0.8c-0.6,0-1.4-0.1-2.5-0.4
						c-1.1-0.3-2.1-0.4-2.9-0.4c-0.1,0-0.2,0-0.2,0.1c0,0.1-0.2,0.1-0.4,0.1c-0.1,0-0.2,0-0.3-0.1l0.2,0.7c-0.1,0-0.3,0.1-0.5,0
						c-0.1,0-0.3,0.1-0.4,0.3c0.1,0,0.2,0.1,0.3,0.2s0.2,0.1,0.3,0.2c0,0.3-0.1,0.4-0.2,0.3c-0.2-0.1-0.3,0-0.4,0.2
						c0,0,0.1,0.1,0.1,0.1h-0.3c-0.1,0-0.2-0.3-0.3-0.9c-0.1-0.6-0.2-1.2-0.3-2c-0.1-0.7-0.2-1.4-0.3-2.1c-0.1-0.7-0.1-1.2-0.1-1.5
						c-0.3-1.6-0.5-2.9-0.6-3.9c-0.1-1-0.1-2.1-0.1-3.2V20c0-0.5,0-0.9-0.1-1.3c-0.1-0.4-0.1-0.9-0.1-1.5c0.5-0.3,1-0.6,1.5-0.8
						c0.5-0.2,1.1-0.4,1.7-0.5c0.6-0.1,1.3-0.2,2.1-0.2c1.9,0.3,3.8,0.6,5.7,1.2c1.9,0.5,3.6,1.4,5.2,2.4c0.2,0,0.3,0.1,0.4,0.1
						c0.1,0,0.3,0.1,0.4,0.1c-0.5-0.5-1.1-0.8-1.9-1.1c-0.8-0.3-1.4-0.6-1.8-0.9c-0.4-0.2-0.9-0.3-1.5-0.5c-0.6-0.2-1-0.4-1.2-0.6
						c1,0.1,1.7,0.4,2.1,0.7s0.6,0.5,0.7,0.5c0,0,0.1,0,0.2-0.2c0.4,0.4,0.9,0.7,1.4,0.8c0.5,0.1,1,0.3,1.4,0.6
						c0.5,0.3,1.1,0.7,1.9,1.1c0.8,0.4,1.4,0.8,1.6,1.2l0.1-0.1l0.2,0.2c-0.1,0-0.1-0.1-0.2-0.2c0,0.2,0.1,0.3,0.4,0.5
						c0.2,0.2,0.5,0.4,0.8,0.6c0.2,0.2,0.6,0.4,1,0.6c-0.1-0.1-0.2-0.2-0.3-0.2c-0.1-0.1-0.2-0.1-0.3-0.2c0,0.2,0.1,0.3,0.2,0.5
						L-101.9,23.3z M-119.5-5.7c-0.1-0.1-0.1-0.1-0.2-0.1c-0.1,0-0.1-0.1-0.2-0.2h0.1C-119.6-6-119.5-5.9-119.5-5.7z M-118.7-5.4
						l0.1-0.1l0.1,0.1H-118.7z M-117.2-4.6c-0.2-0.1-0.3-0.1-0.4-0.2c-0.1-0.1-0.2-0.1-0.3-0.2h0.1C-117.7-4.9-117.5-4.8-117.2-4.6z
						 M-116.1-4c0.5,0.2,0.8,0.3,1.1,0.6C-115.5-3.4-115.8-3.6-116.1-4z M-115.7-5.8l0.1-0.2c0,0,0.1,0,0.1,0.1c0,0,0,0.1,0.2,0.1
						l-0.1,0.1C-115.5-5.8-115.6-5.8-115.7-5.8z M-114.6-3.4h0.1c0.2,0,0.4,0.1,0.7,0.3c0.2,0.2,0.5,0.4,0.7,0.6
						c0.2,0.2,0.4,0.4,0.6,0.6c0.2,0.2,0.3,0.3,0.3,0.3l-0.1,0.1c-1-0.8-1.7-1.4-2.1-1.7c-0.3-0.3-0.5-0.5-0.5-0.6
						c0-0.1,0-0.1,0.1,0c0.1,0.1,0,0.1-0.2,0.1c0,0,0-0.1,0.1-0.1c0,0,0.1,0.1,0.1,0.1S-114.7-3.5-114.6-3.4z M-114.6-5.8
						C-114.5-5.8-114.5-5.8-114.6-5.8c0,0.1,0,0.1,0.1,0.1C-114.6-5.7-114.6-5.7-114.6-5.8z M-114-2.4c0.1,0,0.2,0.1,0.3,0.2
						c0.1,0,0.4,0.3,0.8,0.7c0,0,0.1,0,0.1,0.2c-0.1-0.1-0.2-0.1-0.2-0.2c-0.1,0-0.1-0.1-0.2-0.1c-0.1-0.1-0.2-0.1-0.2-0.2
						c0-0.1,0-0.2,0.2-0.2h-0.2C-113.6-2.1-113.7-2.2-114-2.4c-0.1-0.1-0.3-0.2-0.3-0.3c0,0,0.1,0.1,0.1,0.2
						C-114.1-2.5-114.1-2.5-114-2.4z M-113.8-5.1c0.2,0,0.4,0.1,0.5,0.2h-0.2C-113.5-4.9-113.7-5-113.8-5.1z M-107,16.8L-107,16.8
						c0.1,0,0.1,0,0.2,0c0,0,0.1,0,0.2,0.1L-107,16.8c0.1,0.1,0.5,0.3,1.1,0.6c0.6,0.2,1.1,0.6,1.5,1c0.1,0,0.2-0.1,0.4-0.1
						s0.2,0,0.3,0.1l-0.1,0.3c0.9,0.5,1.7,1,2.3,1.5c0.6,0.4,1.1,0.8,1.5,1.2c0.4,0.4,0.7,0.7,1,1c0.3,0.3,0.6,0.6,0.9,1
						c0.2,0.2,0.5,0.5,0.9,0.8c0.4,0.3,0.7,0.7,1.1,1.1c0.3,0.4,0.6,0.8,0.8,1.1c0.2,0.4,0.3,0.7,0.3,1v0.2
						c-1.3-1.4-2.2-2.3-2.5-2.7c-0.4-0.5-0.5-0.8-0.5-0.9c0-0.1,0-0.2,0.1-0.1c0,0-0.2-0.1-0.7-0.4c-0.1-0.3-0.4-0.6-0.8-1
						c-0.4-0.4-0.7-0.7-1-0.9c-0.4-0.3-0.8-0.6-1.4-0.9c-0.1,0-0.3-0.1-0.5-0.2c-0.2-0.2-0.5-0.3-0.7-0.5c-0.3-0.2-0.6-0.5-1-0.8
						c-1.1-0.8-2.1-1.4-2.9-1.9s-1.6-0.9-2.3-1.1c-0.7-0.3-1.4-0.5-2-0.7c-0.7-0.2-1.4-0.4-2.2-0.6h-0.1c0,0-0.1,0-0.1,0
						c0,0,0,0-0.1,0c0.2,0,0.5,0,0.8,0.1s0.7,0.2,1.1,0.2c0.4,0.1,0.7,0.1,1,0.2c0.3,0.1,0.5,0.1,0.5,0.2h-0.1
						c0.3,0,0.6,0.1,0.9,0.2c0.2,0.1,0.4,0.3,0.6,0.4c0.1,0.1,0.2,0.2,0.3,0.3c0,0,0,0,0-0.2c0,0,0-0.1,0-0.1c0,0,0-0.1,0-0.1
						c0.2,0.1,0.5,0.2,0.8,0.3S-107.3,16.6-107,16.8z M-109.9,17.6c-0.2-0.3-0.7-0.5-1.3-0.6c-0.6-0.1-1.1-0.3-1.5-0.6
						c0.3,0,0.7,0.1,1.1,0.2c0.4,0.2,0.8,0.3,1.2,0.5c0.4,0.2,0.7,0.3,0.9,0.4c0.2,0.1,0.3,0.2,0.3,0.2c0,0-0.1,0.1-0.2,0.1h0.2
						c0.5,0,0.9,0.1,1.3,0.3c0.4,0.2,0.7,0.3,1,0.5c0.3,0.2,0.5,0.3,0.6,0.5c0.1,0.2,0.2,0.3,0.1,0.3c0.3,0.1,0.7,0.3,1,0.5
						c0.3,0.2,0.5,0.3,0.7,0.3c0.1,0,0.2,0,0.2-0.1c0,0.2,0.1,0.4,0.4,0.7c0.2,0.3,0.5,0.5,0.8,0.7c0.3,0.2,0.5,0.3,0.7,0.5
						c0.2,0.1,0.2,0.1,0.1-0.1c0.2,0.2,0.4,0.3,0.7,0.3V22c0,0,0,0.1,0.1,0.2h-0.1c0,0,0.1,0.2,0.2,0.3c0.2,0.2,0.3,0.4,0.5,0.6
						c0.2,0.2,0.5,0.4,0.8,0.7c0.6,0.3,1,0.6,1.1,1c0.2,0.4,0.3,0.6,0.5,0.6c0.1,0,0.3,0.2,0.5,0.5c0.2,0.3,0.4,0.6,0.5,0.8
						c-0.1,0-0.1,0-0.1,0.1c-1.4-1.4-2.7-2.7-4-4.1c-1.3-1.3-2.9-2.5-4.8-3.3c-0.7-0.4-1.3-0.8-1.8-1
						C-108.8,18.1-109.4,17.8-109.9,17.6z M-112.3-1.1L-112.3-1.1c-0.1-0.1-0.2-0.2-0.1-0.2C-112.4-1.2-112.4-1.1-112.3-1.1z
						 M-110.9,33.2c0.2-0.1,0.4-0.1,0.5-0.1c0.1,0,0.2,0,0.3,0.1H-110.9z M-110.9,1.8h0.1c0.1,0,0.2,0,0.3,0.2
						c0.1,0.1,0.2,0.3,0.2,0.5l-0.2,0.2c-0.1-0.1-0.2-0.2-0.3-0.4C-110.7,2.1-110.8,2-110.9,1.8z M-110.1,0.6L-110.1,0.6l-0.2-0.1
						C-110.3,0.5-110.2,0.6-110.1,0.6z M-109.9,3h-0.2c0,0,0.1,0,0,0S-110.1,2.9-109.9,3L-109.9,3z M-107.7,17.4L-107.7,17.4
						c0,0-0.1,0-0.1,0c0,0-0.1,0-0.1-0.1c0,0,0,0,0,0C-107.9,17.2-107.8,17.3-107.7,17.4z M-106.4,32.6c0,0-0.1,0.1-0.4,0.2
						l-0.1-0.2C-106.6,32.7-106.5,32.6-106.4,32.6z M-104.8,19.5c0,0,0.1-0.1,0.2-0.1c0,0.1,0,0.1,0,0.1c0,0,0,0,0,0.1
						C-104.5,19.5-104.6,19.5-104.8,19.5z M-104.1,17.1c0.2,0,0.4,0.1,0.4,0.2c0,0,0,0.1-0.1,0.2C-103.9,17.4-104,17.3-104.1,17.1z
						 M-102.6,19C-102.6,19.1-102.6,19.1-102.6,19c-0.3,0-0.4-0.1-0.4-0.2C-102.8,18.9-102.7,19-102.6,19z M-102.5,18.7L-102.5,18.7
						c-0.1,0-0.2-0.1-0.4-0.2c0.2,0,0.2,0,0.2,0.1S-102.6,18.7-102.5,18.7z M-102.4,20.9C-102.4,20.9-102.5,20.9-102.4,20.9
						c-0.1,0-0.1,0-0.1,0c-0.1,0-0.1-0.1-0.1-0.2c0,0,0.1,0.1,0.1,0.1C-102.5,20.8-102.4,20.8-102.4,20.9z M-101.9,19.5
						c0.2,0.2,0.3,0.3,0.5,0.5c-0.2-0.1-0.3-0.2-0.3-0.2C-101.8,19.7-101.9,19.6-101.9,19.5h-0.2c-0.1,0-0.1,0-0.2-0.1
						C-102.2,19.4-102.1,19.5-101.9,19.5z M-95.9,24.9c-0.2,0-0.3-0.1-0.3-0.2C-96.2,24.7-96.1,24.7-95.9,24.9z"/>
					<path fill="#A48A46" d="M-58.7,7.5L-58.7,7.5c-0.2,0-0.4-0.1-0.8-0.3c-0.4-0.2-0.7-0.4-0.9-0.6c0,0.1,0,0.2,0,0.2
						c0,0,0,0.1,0,0.2c-0.3-0.2-0.6-0.3-0.9-0.3h-0.5h-0.2c0.2,0.5,0.7,0.9,1.4,1.1l-0.1,0.1c-0.3-0.1-0.6-0.2-0.9-0.3
						c-0.3-0.1-0.7-0.2-0.9-0.2c-0.1,0-0.2,0-0.2,0.1s-0.1,0.1-0.2,0.1c-0.1,0-0.2,0-0.4-0.1c-0.2-0.1-0.4-0.2-0.6-0.3
						c0,0,0,0.1-0.2,0.1c-0.1,0-0.2,0-0.3,0c-0.1,0-0.2,0-0.3,0c0.5-0.9,1.3-1.6,2.4-2.4c1-0.7,2-1.4,2.9-2.1
						c1.6-1.4,3.2-2.9,4.8-4.4c1.6-1.6,3.1-3.2,4.4-5c0.6-0.9,1.2-1.7,1.8-2.6c0.5-0.9,1.1-1.8,1.6-2.8c0.1-0.2,0.2-0.5,0.3-0.7
						c0.1-0.2,0.1-0.4,0.1-0.6c0-0.2-0.1-0.3-0.4-0.5c-0.3,0.3-0.5,0.4-0.6,0.5c-0.2,0.1-0.3,0.2-0.4,0.3c-0.1,0.2-0.2,0.4-0.4,0.6
						c-0.1,0.2-0.3,0.5-0.5,0.8c-0.1,0.2-0.3,0.5-0.4,0.7c-0.1,0.2-0.2,0.3-0.3,0.3c0,0,0-0.1,0-0.1s0,0,0-0.1v-0.1
						c0.2-0.1,0.3-0.2,0.3-0.4c0-0.2,0-0.3,0-0.5c-0.2,0.1-0.3,0.2-0.3,0.4c0,0.2-0.1,0.4-0.3,0.6c0-0.4-0.1-0.5-0.2-0.5
						c-0.1,0-0.1,0-0.1,0.1c0,0-0.1,0.1-0.2,0.1c-0.1,0-0.1,0-0.1,0c0,0-0.1,0-0.1,0c-0.1,0-0.1,0-0.1,0c0,0,0,0-0.1,0
						c-0.1-0.1-0.2-0.2-0.2-0.2c-0.1,0-0.1-0.1-0.2-0.2c-0.1,0.1-0.2,0.2-0.3,0.3c-0.1,0.1-0.2,0.1-0.3,0.1h-0.1l-0.1-0.1
						c-0.4,0.2-0.7,0.4-0.9,0.6c-0.3,0.2-0.6,0.3-1,0.6c0-0.1,0.1-0.3,0.1-0.5v-0.1c-0.1,0.1-0.3,0.2-0.4,0.3
						c-0.1,0.1-0.2,0.2-0.4,0.3c-0.1,0-0.1-0.1-0.1-0.1c0,0,0-0.2,0-0.4c-0.4,0-0.6,0.3-0.8,0.9c-0.2,0.6-0.4,1.1-0.7,1.5
						c-1.1,1.8-2.3,3.5-3.6,4.9c-1.4,1.4-2.8,2.9-4.4,4.5c0,0.1-0.2,0.3-0.5,0.5c0.3-0.1,0.5-0.3,0.8-0.5c0.2-0.2,0.4-0.4,0.7-0.5
						c0,0,0,0.1,0,0.1s0,0,0,0.1c0,0-0.1,0.1-0.2,0.3c-0.1,0.1-0.3,0.3-0.5,0.5c-0.2,0.2-0.4,0.3-0.5,0.5c-0.2,0.1-0.3,0.2-0.3,0.3
						C-66.2,4.4-68,6-69.6,7.4c-1.6,1.4-3.4,2.6-5.2,3.7c-0.3,0.2-0.6,0.3-1,0.3c-0.1,0-0.3,0-0.5-0.1s-0.4-0.1-0.4-0.3
						c0-1.2,0.1-2.4,0.2-3.6c0.1-1.2,0.3-2.4,0.6-3.6c0.2-1.2,0.5-2.3,0.9-3.4c0.3-1.1,0.6-2,0.9-2.8c0.2-0.5,0.4-1,0.6-1.5
						c0.2-0.5,0.3-1,0.3-1.5c0-0.2-0.1-0.5-0.3-0.9c-0.2-0.5-0.4-0.7-0.5-0.7c-0.1,0-0.1,0.1-0.2,0.3c-0.1,0.2-0.2,0.2-0.3,0.2h-0.1
						c0,0-0.2,0.1-0.4,0.3c-0.2,0.2-0.3,0.4-0.3,0.6c-0.6,0.2-0.9,0.2-1.1,0.3c-0.2,0-0.5,0.2-0.9,0.5C-77.5-4.9-77.6-5-77.6-5
						c-0.2,0-0.5,0.1-0.8,0.2c-0.3,0.2-0.4,0.2-0.4,0.2l-0.1-0.1c-0.3,0-0.6,0.1-1.1,0.3c-0.5,0.2-0.8,0.3-1,0.3
						c-0.1,0-0.1,0-0.1,0.1c0,0-0.1,0.1-0.1,0.1c0-0.1-0.1-0.1-0.1-0.2c-0.3,0-0.6,0-0.9,0.2c-0.3,0.1-0.5,0.1-0.6,0.1
						c-0.1,0-0.1,0-0.2,0c0,0-0.1,0-0.1,0c-0.1,0-0.2,0-0.3,0.1c-0.1,0.1-0.2,0.2-0.3,0.2h-0.2c-0.2,0-0.3,0.1-0.4,0.3
						c-0.1-0.1-0.2-0.1-0.2-0.1c0,0-0.1-0.1-0.2-0.1c-0.3,0.4-0.5,0.7-0.6,0.8c-0.1,0.1-0.3,0.5-0.4,0.9c-0.5,1.7-0.9,3.4-1.2,5.1
						c-0.3,1.7-0.6,3.4-0.9,5.1c-0.3,1.7-0.5,3.5-0.8,5.3c-0.3,1.8-0.6,3.7-0.9,5.6c-0.3,1.7-0.5,3.4-0.7,5.2
						c-0.2,1.8-0.4,3.6-0.5,5.4c0,0.2,0,0.5,0,0.7c0,0.2,0,0.5,0,0.7c0,0.6,0.2,1.1,0.7,1.6c0.4,0.5,1,0.9,1.6,1.3
						c0.6,0.4,1.2,0.7,1.9,1c0.6,0.3,1.2,0.5,1.7,0.8c2.7,1.3,5.3,2.3,7.8,2.9c2.5,0.6,4.6,0.9,6.2,0.9c2.1,0,4-0.3,5.7-0.9
						c1.8-0.6,3.7-1.5,5.8-2.7c0.5-0.6,1.2-1.1,1.9-1.5c0.7-0.5,1.4-0.9,2.1-1.4c0.7-0.5,1.3-0.9,2-1.3c0.6-0.4,1.1-0.8,1.5-1.2
						c1-1,1.8-2.1,2.4-3.2c0.6-1.1,0.9-2.4,0.9-4.1c0-1-0.1-1.9-0.4-2.8c-0.3-0.9-0.7-1.8-1.2-2.7c-0.5-0.9-1-1.7-1.6-2.5
						c-0.6-0.8-1.1-1.5-1.6-2.2c-0.7-0.7-1.3-1.2-1.7-1.5s-0.8-0.8-1-1.5c-0.1-0.3-0.3-0.5-0.6-0.8c-0.3-0.3-0.6-0.6-0.9-0.9
						c-0.3-0.3-0.6-0.5-0.8-0.7C-58.6,7.7-58.7,7.6-58.7,7.5L-58.7,7.5z M-75.5,28.2c0.2,0.2,0.6,0.5,1.2,0.6c0.5,0.2,1,0.3,1.4,0.5
						c0.1,0,0.3,0.1,0.7,0.3s0.8,0.2,1.2,0.4c0.4,0.1,0.8,0.2,1,0.4c0.3,0.1,0.5,0.2,0.5,0.3c-1.3-0.5-2.5-0.9-3.7-1.3
						c-1.2-0.5-2.4-1-3.7-1.5c-0.2-0.1-0.3-0.3-0.5-0.4l-0.5-0.3c-0.3-0.2-0.6-0.4-0.9-0.6c-0.3-0.3-0.4-0.6-0.4-1
						c0-0.6,0-1.1,0.2-1.7c0.1-0.6,0.1-1.1,0.1-1.7v-0.2c0-1.3,0.2-2.6,0.5-3.9c0.3-1.3,0.5-2.5,0.6-3.5c0-0.3,0-0.6,0.1-1.1
						c0.1-0.5,0.2-0.8,0.3-0.9c-0.1,0.6-0.1,1.3-0.2,1.9c-0.1,0.6-0.2,1.2-0.3,1.8c0.2-0.6,0.4-1.2,0.5-1.9c0.1-0.7,0.2-1.3,0.3-1.9
						c0.2,0.5,0.4,0.9,0.5,1.4c0.1,0.5,0.4,0.7,0.9,0.7h0.3c0.9,0,1.9,0.1,2.8,0.3c0.9,0.2,1.8,0.5,2.6,0.9c0.8,0.3,1.5,0.7,2.1,1
						c0.6,0.3,1.1,0.6,1.5,0.9c0.9,0.5,1.9,1.2,2.9,2.1c1,0.8,1.9,1.7,2.7,2.7s1.4,1.9,1.9,2.9c0.5,1,0.7,1.9,0.7,2.8
						c0,0.3,0,0.8-0.1,1.3s-0.3,0.8-0.6,0.9c-0.7,0.2-1.3,0.3-1.8,0.5c-0.6,0.1-1.2,0.2-2,0.3c-0.5,0-0.9,0-1.5,0
						c-0.5,0-1,0-1.4-0.1c-0.3-0.1-0.7-0.2-1.2-0.2c-0.5,0-1-0.1-1.5-0.2c-1.2-0.3-2.4-0.6-3.5-1c-1.2-0.4-2.3-0.8-3.5-1.3
						C-75.1,28.2-75.3,28.2-75.5,28.2z M-77.2,12.3C-77.2,12.2-77.2,12.2-77.2,12.3C-77.3,12.2-77.2,12.3-77.2,12.3z M-77.2,12.3
						L-77.2,12.3C-77.2,12.2-77.2,12.2-77.2,12.3z M-77.2,11.5c0,0.1,0,0.2,0.1,0.2C-77.1,11.6-77.1,11.5-77.2,11.5z M-77.2,11.5
						c0,0,0.1,0.1,0.1,0.2C-77.2,11.7-77.2,11.7-77.2,11.5z M-77,10.4c0,0.1,0,0.2-0.1,0.3C-76.9,10.7-76.9,10.6-77,10.4L-77,10.4z
						 M-77,10.4L-77,10.4c0.1,0.2,0,0.3-0.1,0.3C-77,10.6-77,10.5-77,10.4z M-76.7,8.5L-76.7,8.5c0,0.2-0.1,0.4,0,0.6
						c0,0.2,0,0.4-0.1,0.5C-76.9,9.4-76.8,9-76.7,8.5z M-76.7,8.5c-0.1,0.5-0.2,0.9-0.2,1.1c0.1-0.1,0.1-0.3,0.1-0.5
						C-76.8,8.9-76.8,8.7-76.7,8.5L-76.7,8.5z M-75.5,28.2c-0.2-0.1-0.4-0.2-0.6-0.3c-0.2-0.1-0.4-0.2-0.6-0.3
						C-76.2,28-75.8,28.2-75.5,28.2z M-76.6,8.1c0-0.2-0.1-0.3-0.1-0.5c0-0.2,0-0.3,0.2-0.4c0,0.2,0,0.3,0,0.4
						C-76.6,7.8-76.6,7.9-76.6,8.1z M-76.6,8.1c0-0.2,0-0.3,0-0.4c0-0.1,0-0.3,0-0.4c-0.1,0-0.2,0.2-0.2,0.4
						C-76.7,7.8-76.6,7.9-76.6,8.1z M-76.4,6.8c-0.1-0.1-0.1-0.3-0.1-0.5s0-0.5,0.1-0.8c0-0.3,0.1-0.5,0.2-0.6
						c0,0.3-0.1,0.6-0.1,0.9C-76.4,6.2-76.4,6.5-76.4,6.8z M-76.4,6.8c0-0.3,0.1-0.6,0.1-0.9c0-0.3,0.1-0.6,0.1-0.9
						c-0.1,0.1-0.2,0.3-0.2,0.6c-0.1,0.3-0.1,0.5-0.1,0.8S-76.5,6.7-76.4,6.8z M-76.1,3.9l-0.1-0.2l0.1-0.1V3.9z M-76.1,3.9V3.7
						l-0.1,0.1C-76.1,3.8-76.1,3.9-76.1,3.9z M-70,10.9L-70,10.9c0.1-0.1,0.2,0,0.2,0H-70L-70,10.9z M-70,10.9L-70,10.9h0.2
						C-69.8,10.9-69.9,10.8-70,10.9L-70,10.9z M-68.6,11.3c0,0,0.1-0.2,0.1-0.4c-0.1,0-0.2,0-0.4,0c-0.1,0-0.3,0-0.4,0
						c0.1,0.2,0.2,0.3,0.3,0.3C-68.9,11.2-68.8,11.2-68.6,11.3z M-68.6,11.3c-0.3-0.1-0.4-0.2-0.5-0.2c-0.1,0-0.2-0.1-0.2-0.3
						c0.1,0,0.3,0,0.4,0c0.2,0,0.3,0,0.4,0C-68.5,11.1-68.5,11.2-68.6,11.3z M-68.5,30.8c-0.1,0-0.2,0-0.2,0c0,0-0.1,0-0.2,0
						c-0.1,0-0.1,0-0.1,0.1c0.1,0,0.2,0,0.3,0S-68.6,30.9-68.5,30.8L-68.5,30.8z M-68.5,30.8L-68.5,30.8c-0.1,0.1-0.2,0.1-0.3,0
						s-0.2,0-0.3,0l0.1-0.1c0.1,0,0.2,0,0.2,0C-68.7,30.8-68.6,30.8-68.5,30.8z M-55.9,18.9c0.2,0,0.4,0.2,0.5,0.5
						c-0.2-0.1-0.3-0.2-0.5-0.4c-0.2-0.2-0.2-0.4-0.2-0.5v-0.2c-0.1,0.2-0.2,0.3-0.3,0.4c-0.1-0.1-0.2-0.2-0.3-0.4s-0.2-0.3-0.3-0.5
						c-0.3-0.2-0.5-0.4-0.6-0.6c-0.2-0.2-0.4-0.4-0.6-0.5c-0.3-0.2-0.6-0.4-0.9-0.7c-0.4-0.3-0.5-0.5-0.5-0.7v-0.1
						c-0.4-0.1-0.8-0.3-1-0.5c-0.3-0.2-0.6-0.4-0.9-0.7c-0.1-0.4-0.2-0.6-0.4-0.7c-0.2,0-0.4-0.2-0.7-0.5h0.1c0.3,0,0.8,0.2,1.3,0.6
						c0.5,0.4,0.8,0.6,1.1,0.6h0.1c-0.4-0.4-0.8-0.7-1.2-0.9c-0.4-0.2-0.8-0.5-1.2-0.9c0.4,0.2,0.8,0.4,1.2,0.6
						c0.4,0.3,0.8,0.5,1.2,0.8v-0.3c0-0.1-0.1-0.3-0.3-0.6c-0.2-0.3-0.5-0.5-0.8-0.5h-0.2c-0.2,0-0.4-0.2-0.7-0.5
						c-0.3-0.4-0.6-0.5-1-0.5c-0.3-0.1-0.5-0.2-0.7-0.3C-64,11-64.2,11-64.4,11h-0.2c-0.6-0.3-1.2-0.5-1.8-0.6
						c-0.6-0.1-1.3-0.3-2-0.4c-0.1,0-0.2,0-0.2,0c0,0-0.1,0-0.2,0c0.3-0.4,0.6-0.6,0.9-0.6c0.5,0,1,0.1,1.5,0.2
						c0.5,0.1,1,0.2,1.5,0.3C-65,9.8-65,9.7-65,9.6s0-0.2-0.1-0.3c-0.2,0.1-0.3,0.2-0.5,0.2c-0.2-0.1-0.4-0.1-0.5-0.1
						c-0.1,0-0.3-0.2-0.5-0.5c0.1-0.1,0.3-0.1,0.5-0.1c0.1,0,0.3,0,0.5,0.1c0.2,0.1,0.3,0.1,0.5,0.1c0.1,0,0.2,0,0.2-0.1
						c0-0.1,0.1-0.1,0.2-0.1c0.5,0,1.1,0.1,1.8,0.3c0.7,0.2,1.2,0.4,1.5,0.5c0.1,0,0.2-0.1,0.2-0.2c0-0.1,0.1-0.2,0.2-0.2
						c-0.3-0.2-0.6-0.2-0.8-0.2h-0.2c-0.1,0-0.1,0-0.1-0.1c-0.6-0.2-1.1-0.4-1.7-0.6c-0.6-0.2-1.1-0.3-1.7-0.4c0-0.1,0-0.1-0.1-0.1
						c0,0,0.2-0.1,0.4-0.2c-0.1,0-0.2-0.1-0.2-0.1c0,0-0.1-0.1-0.2-0.1c0,0,0.1,0,0.1,0c0,0,0.1,0,0.2,0c0.3,0,0.7,0.1,1,0.2
						c0.3,0.1,0.6,0.2,1,0.2c0,0,0.1,0,0.1,0c0,0,0.1,0,0.1,0c-0.1-0.1-0.2-0.1-0.2-0.1s-0.1,0-0.2-0.1c0.7,0,1.3,0.2,1.8,0.4
						c0.5,0.2,0.9,0.4,1.2,0.6c0.3,0.2,0.5,0.4,0.8,0.6c0.2,0.2,0.3,0.3,0.5,0.3c0.2,0,0.3,0.2,0.3,0.4c-0.1,0.1-0.1,0.2-0.2,0.2
						s-0.1,0.1-0.2,0.2c-0.1,0-0.1,0-0.1,0c0,0,0,0-0.1,0c-0.2,0-0.3,0.1-0.4,0.2c0.1,0,0.2,0.1,0.5,0.2c0.2,0.1,0.4,0.3,0.6,0.5
						c0.2,0.2,0.4,0.4,0.6,0.6c0.2,0.2,0.3,0.4,0.4,0.6c-0.1,0.1-0.2,0.2-0.3,0.2c-0.1,0-0.1,0.1-0.1,0.2c0,0,0.1,0.2,0.3,0.3
						c0.2,0.1,0.3,0.3,0.5,0.5c0.2,0.2,0.3,0.4,0.5,0.5c0.2,0.2,0.3,0.2,0.3,0.3v0.2c0,0,0.1,0.2,0.2,0.4c0.1,0.2,0.3,0.5,0.5,0.8
						c0.2,0.3,0.4,0.5,0.6,0.7c0.2,0.2,0.3,0.3,0.4,0.5c0.3,0.6,0.6,1.2,1,1.8c0.4,0.6,0.7,1.3,1.1,2.1c0,0,0.1,0.1,0.1,0.2
						c-0.1,0-0.2-0.2-0.4-0.5c-0.2-0.3-0.4-0.6-0.5-0.9c-0.2-0.4-0.3-0.7-0.5-1c-0.2-0.3-0.3-0.5-0.3-0.6c-0.4-0.6-0.9-1.1-1.4-1.8
						c-0.5-0.6-1-0.9-1.5-0.9c-0.1,0-0.1,0-0.2-0.1h0.1v0.1c0,0.2,0,0.2,0.2,0.3c0.1,0,0.2,0.1,0.2,0.2v0.1
						c-0.1-0.1-0.2-0.1-0.3-0.2s-0.2-0.1-0.3-0.1v0.1c0.1,0.2,0.3,0.3,0.4,0.5c0.1,0.2,0.3,0.3,0.5,0.5c-0.3-0.1-0.5-0.2-0.6-0.3
						c-0.2-0.1-0.3-0.2-0.5-0.3h-0.1c0.1,0.2,0.3,0.4,0.5,0.5h-0.1c0.1,0.1,0.2,0.2,0.4,0.4c0.2,0.2,0.3,0.3,0.3,0.4l-0.1,0.1
						c0,0.1,0,0.2,0.2,0.2c0.1,0,0.2,0.1,0.3,0.1c0,0,0,0.1-0.1,0.1l-0.1-0.1c0.1,0.2,0.2,0.4,0.4,0.6
						C-55.9,18.6-55.8,18.7-55.9,18.9L-55.9,18.9z M-67.9,11.4c0.2,0,0.3,0,0.3-0.1s0.2-0.1,0.3-0.1c0.3,0,0.6,0.1,1,0.2
						c0.4,0.1,0.8,0.3,1.2,0.4c0.4,0.2,0.8,0.3,1.2,0.5c0.3,0.2,0.6,0.3,0.8,0.5v0.1c-0.5-0.3-1-0.5-1.6-0.7c-0.6-0.2-1-0.3-1.3-0.3
						c-0.1,0-0.3,0-0.5,0.2l-0.2-0.4c-0.1,0-0.2,0-0.3,0c-0.1,0-0.2,0-0.3,0c-0.1,0-0.2,0-0.3-0.1C-67.6,11.5-67.7,11.4-67.9,11.4
						h-0.2c-0.1,0-0.2-0.1-0.2-0.2c0.1,0,0.2,0.1,0.2,0.1S-67.9,11.3-67.9,11.4z M-67.9,11.4c0-0.1-0.1-0.1-0.2-0.1s-0.1,0-0.2-0.1
						c0,0.1,0,0.2,0.2,0.2H-67.9z M-67.7,11.1l-0.2,0.1c-0.1,0-0.2-0.1-0.2-0.2c0,0,0.1,0,0.2,0S-67.8,11.1-67.7,11.1z M-67.7,11.1
						c-0.1,0-0.1,0-0.2,0s-0.1,0-0.2,0c0,0.1,0,0.2,0.2,0.2C-67.8,11.1-67.8,11.1-67.7,11.1z M-67.9,11.4c0.2,0,0.3,0.1,0.4,0.2
						c0.1,0,0.2,0.1,0.3,0.1c0.1,0,0.2,0,0.3,0c0.1,0,0.2,0,0.3,0l0.2,0.4c0.2-0.1,0.4-0.2,0.5-0.2c0.2,0,0.7,0.1,1.3,0.4
						c0.6,0.2,1.1,0.5,1.5,0.7v-0.1c-0.5-0.4-1.2-0.7-2.2-1.1c-1-0.4-1.7-0.5-2.1-0.5c-0.1,0-0.2,0-0.3,0.1S-67.7,11.4-67.9,11.4z
						 M-67.3,11.4h0.1C-67.2,11.4-67.2,11.4-67.3,11.4L-67.3,11.4z M-67.3,11.4L-67.3,11.4c0,0.1,0.1,0,0.1,0H-67.3z M-67.1,10.8
						L-67.1,10.8c-0.1,0-0.2,0-0.2,0c0,0,0,0,0-0.1C-67.2,10.8-67.2,10.8-67.1,10.8z M-67.1,10.8c-0.1,0-0.2,0-0.2-0.1
						c0,0.1,0,0.1,0,0.1C-67.2,10.9-67.2,10.9-67.1,10.8L-67.1,10.8z M-66.8,11c0.1,0,0.2,0.1,0.3,0.1c0.1,0,0.2,0,0.3,0.1
						C-66.3,11-66.5,10.9-66.8,11L-66.8,11z M-66.8,11L-66.8,11c0.4-0.1,0.5,0,0.5,0.2c-0.1-0.1-0.2-0.1-0.3-0.1
						C-66.7,11.1-66.7,11-66.8,11z M-66,12c0.1,0,0.2,0.1,0.3,0.1c0.1,0,0.2,0.1,0.3,0.2c0-0.1,0-0.1,0-0.1c0,0,0-0.1,0-0.1
						s-0.1-0.1-0.3-0.1H-66z M-66,12h0.3c0.2,0,0.3,0,0.3,0.1s0,0.1,0,0.1c0,0,0,0.1,0,0.1c-0.1-0.1-0.2-0.1-0.3-0.2
						C-65.8,12.1-65.9,12-66,12z M-64.4,11.6c-0.5,0-0.9-0.1-1.3-0.3c0.2,0,0.5,0,0.6,0.1C-64.8,11.4-64.6,11.5-64.4,11.6z
						 M-65.3,13.5L-65.3,13.5c0.1,0,0.2,0,0.3,0.1h-0.1C-65.2,13.5-65.3,13.5-65.3,13.5z M-63.8,14.1v0.2l-0.1-0.2H-63.8L-63.8,14.1
						z M-62.8,12.3C-62.8,12.3-62.8,12.3-62.8,12.3c-0.4,0.1-0.7-0.1-0.9-0.4C-63.5,11.9-63.2,12.1-62.8,12.3z M-62.5,15.2l-0.2-0.1
						c0-0.1,0-0.1,0.2-0.1C-62.5,15.1-62.5,15.1-62.5,15.2C-62.5,15.1-62.5,15.1-62.5,15.2z M-62.5,0.9c-0.1,0-0.1-0.1-0.2-0.1
						c0-0.1,0.1-0.1,0.2-0.1C-62.4,0.8-62.4,0.8-62.5,0.9C-62.5,0.8-62.5,0.8-62.5,0.9z M-62.2,15.3c0,0,0-0.1,0.1-0.1
						c0.5,0.2,0.9,0.5,1.2,0.8c0.4,0.3,0.8,0.6,1.2,0.8c-0.1-0.3-0.4-0.6-0.8-0.8c-0.4-0.3-0.7-0.6-1-0.9c0.2,0,0.5,0.2,0.9,0.5
						c0.4,0.3,0.8,0.6,1.3,0.9c0.4,0.3,0.8,0.7,1.1,1c0.3,0.3,0.5,0.6,0.5,0.8v0.1c0.2,0.1,0.4,0.2,0.5,0.4s0.2,0.3,0.3,0.5
						c0.1,0.2,0.2,0.4,0.3,0.5c0.1,0.1,0.2,0.3,0.3,0.4c0.1,0.1,0.1,0.2,0.2,0.3c-0.3-0.1-0.6-0.4-0.9-0.9s-0.6-0.8-0.8-1
						c-0.1-0.2-0.3-0.4-0.5-0.6c-0.2-0.2-0.4-0.3-0.6-0.4h-0.1c0.1,0.2,0.2,0.4,0.3,0.5c0.1,0,0.1,0.2,0.2,0.4c-0.7-0.5-1.3-1-2-1.5
						C-61,16.4-61.6,15.9-62.2,15.3z M-61.8,7.8L-61.8,7.8c0.1,0,0.2,0,0.2,0.1C-61.7,7.9-61.8,7.8-61.8,7.8z M-60.2-1.5
						c0.1-0.2,0.2-0.3,0.2-0.3c0,0,0.2,0,0.3,0c-0.1,0.1-0.2,0.2-0.3,0.2C-60.1-1.6-60.1-1.5-60.2-1.5z M-58.7,9.3
						c-0.1,0-0.2-0.1-0.3-0.1c-0.1,0-0.2-0.1-0.3-0.2c0-0.1,0-0.2,0-0.2c0,0,0-0.1,0-0.1c0.1,0.1,0.2,0.2,0.3,0.2
						c0.1,0,0.2,0.1,0.2,0.3C-58.6,9.2-58.6,9.2-58.7,9.3z M-57.8,9.6h0.4c0.2,0,0.3,0.1,0.4,0.2c-0.1,0-0.1,0.1-0.1,0.1
						c0,0.1,0.1,0.2,0.3,0.3c0.2,0.1,0.3,0.3,0.4,0.6c-0.4,0-0.8-0.3-1.2-0.7s-0.7-0.7-0.7-0.8c0-0.1,0-0.2,0.1-0.2
						C-58.2,9.3-58,9.4-57.8,9.6z M-58,18.9L-58,18.9c0.2,0,0.2,0.1,0.3,0.1c0,0,0.1,0.1,0.1,0.2v0.1c-0.1-0.1-0.2-0.1-0.2-0.2
						C-57.8,19-57.9,19-58,18.9z M-57,20c-0.2-0.2-0.3-0.3-0.3-0.3c0-0.1,0-0.2,0-0.3c0.1,0,0.2,0.1,0.3,0.2
						c0.1,0.1,0.1,0.2,0.1,0.3V20z M-57.2,12.8L-57.2,12.8L-57.2,12.8L-57.2,12.8z M-56.6-6L-56.6-6c0,0.3-0.1,0.5-0.3,0.7
						c-0.2,0.1-0.3,0.2-0.4,0.2c0.1-0.2,0.2-0.3,0.3-0.5C-56.8-5.7-56.7-5.9-56.6-6z M-56.6,13.2c0.1,0,0.2,0.1,0.2,0.2L-56.6,13.2z
						 M-56.5,16.9h0.2H-56.5C-56.4,16.9-56.4,16.9-56.5,16.9z M-56.2,17.3c0.1,0,0.3,0.1,0.4,0.3C-56,17.6-56.1,17.5-56.2,17.3z
						 M-55.9,11.3C-55.9,11.3-56,11.3-55.9,11.3c-0.1,0-0.2-0.1-0.3-0.2l0.1-0.1c0,0,0.1,0.1,0.1,0.2C-56,11.2-55.9,11.2-55.9,11.3z
						 M-55.7,19.4C-55.8,19.4-55.8,19.4-55.7,19.4c-0.2,0-0.2-0.1-0.2-0.2v-0.1L-55.7,19.4z M-55.9-6.7L-55.9-6.7
						C-56-6.8-55.9-6.8-55.9-6.7L-55.9-6.7z M-55.4-7.8c-0.1,0.1-0.1,0.2-0.2,0.4c0,0.2-0.1,0.3-0.2,0.4c0-0.1,0-0.1,0-0.1
						s0-0.1,0-0.1C-55.8-7.5-55.6-7.7-55.4-7.8z M-55.8,17.8h0.2c0,0.1,0,0.2,0.1,0.2l-0.2,0.1L-55.8,17.8z M-54.9,18.8h-0.2
						c-0.2,0-0.3-0.1-0.3-0.2v-0.1c0-0.1,0-0.1,0-0.1c0,0,0,0,0-0.1c0.2,0.3,0.4,0.5,0.4,0.6c0,0.1,0,0.1-0.1,0.1
						C-55,18.9-55,18.8-54.9,18.8z M-54.8,20.3C-54.8,20.3-54.8,20.3-54.8,20.3c0.1,0.1,0.1,0.1,0.1,0.1l-0.1,0.1
						C-54.8,20.4-54.8,20.4-54.8,20.3C-54.8,20.4-54.8,20.3-54.8,20.3z M-53.9,22L-53.9,22C-53.9,22-53.9,22-53.9,22
						c0.1,0.1,0.1,0.1,0.2,0.2c-0.1,0-0.1,0-0.1,0.1C-53.9,22.2-53.9,22.1-53.9,22L-53.9,22z M-52.3,21.7c0.1,0,0.2,0,0.2,0.2
						c0,0,0,0.1,0,0.1c0,0,0,0.1,0,0.1C-52.2,21.9-52.2,21.8-52.3,21.7z"/>
				</g>
				<g>
					<path fill="#A48A46" d="M17,20c0-0.3,0-0.6,0-0.8c0-0.2-0.1-0.4-0.1-0.7c0,0-0.1,0-0.1,0c0,0,0,0-0.1,0
						c-0.3-0.3-0.4-0.6-0.3-0.9c0.1-0.3,0-0.6-0.1-0.9c0.1,0,0.2,0.1,0.2,0.1c0,0,0.1,0.1,0.2,0.1c-0.1-0.3-0.2-0.6-0.3-0.9
						c-0.1-0.3-0.1-0.6-0.1-0.8c0-0.1,0-0.2,0-0.2c0,0,0-0.1,0-0.2c0.1,0.1,0.3,0.2,0.4,0.3c0.1,0.1,0.3,0.2,0.4,0.3l0.1-0.1
						c-0.2-0.1-0.5-0.4-0.7-0.7c-0.3-0.3-0.4-0.6-0.5-0.9c0.4,0.4,0.7,0.7,1.1,1.2c0.4,0.4,0.6,0.6,0.7,0.6l0.1-0.1
						c0.2,0,0.4,0.2,0.7,0.5c0.3,0.4,0.5,0.6,0.5,0.7c0,0-0.1-0.1-0.1-0.1c0,0-0.1,0-0.1-0.1c0,0.1,0.1,0.1,0.1,0.2
						c0,0,0,0.1,0.1,0.2c-0.1-0.1-0.2-0.2-0.4-0.3l-0.1,0.1c0.1,0,0.2,0.1,0.2,0.2C18.9,17,19,17,19.1,17h0.1c0,0,0.1,0,0.1,0.1
						c0,0.1,0.1,0.1,0.1,0.2c0,0-0.1,0.1-0.1,0.1c0,0.1,0.1,0.2,0.3,0.4c0.2,0.2,0.4,0.3,0.6,0.5c0.2,0.2,0.5,0.3,0.9,0.5h-0.1
						c0,0.2,0.6,0.6,1.8,1.3c0,0,0-0.2-0.1-0.3c0.2,0.1,0.3,0.3,0.5,0.4c0.2,0.1,0.3,0.2,0.5,0.3c-0.1,0-0.2,0.1-0.2,0.1
						c-0.1,0-0.1,0-0.2,0.1c0.1,0.2,0.3,0.4,0.5,0.6c0.2,0.2,0.3,0.3,0.5,0.5l0.1-0.1c0,0-0.1-0.1-0.1-0.1c0,0,0-0.1-0.1-0.1
						c0.2,0,0.3,0.1,0.4,0.3c0.1,0.1,0.2,0.3,0.4,0.4c0.1,0.1,0.3,0.3,0.5,0.4c0.2,0.1,0.5,0.2,0.8,0.2c-0.1-0.1-0.3-0.3-0.5-0.5
						c-0.2-0.2-0.3-0.3-0.3-0.4c0.5,0.4,0.9,0.8,1.3,1.1c0.4,0.3,0.8,0.6,1.2,1c0,0,0,0.1-0.1,0.1c-0.2-0.2-0.4-0.4-0.7-0.7
						c-0.2-0.2-0.5-0.4-0.9-0.6l-0.1,0.1c0.1,0.1,0.3,0.3,0.4,0.4s0.2,0.3,0.4,0.5c-0.1,0-0.2,0-0.2,0c0,0,0,0-0.1,0
						c0.3,0,0.5,0.1,0.7,0.3c0,0,0,0.1-0.1,0.1c-0.2-0.1-0.3-0.1-0.3-0.1c0,0-0.1,0.1-0.1,0.1c1.1,0.5,1.8,1,2.1,1.5
						c0.3,0.5,0.6,0.7,0.7,0.8l0.3,0.3h-0.3c0.1,0,0.1,0.1,0.2,0.1c0,0,0.1,0.1,0.1,0.1c-0.1,0-0.1,0-0.2,0c0,0-0.1,0-0.2,0
						c0.2,0.1,0.3,0.3,0.5,0.4c0.1,0.2,0.3,0.3,0.5,0.5c-0.1,0-0.2,0-0.2,0c0,0-0.1,0-0.2,0l-0.1,0.1c0.1,0.1,0.3,0.2,0.4,0.4
						s0.3,0.2,0.4,0.2h0.2l0.3,0.1c0,0-0.1,0-0.2,0.1c0.1,0.1,0.2,0.2,0.3,0.2c0.1,0.1,0.2,0.1,0.2,0.2c0.1,0,0.1,0,0.2,0
						c0,0,0.1,0,0.1,0c0,0,0.2,0.1,0.4,0.3c0.2,0.2,0.4,0.4,0.7,0.6c0.3,0.2,0.5,0.4,0.8,0.6c0.2,0.2,0.5,0.3,0.6,0.4
						c0,0.1-0.1,0.2-0.2,0.3c0.7,0.4,1.4,1,2.3,1.6c0.9,0.6,1.7,1.3,2.3,2l0.1,0.1c0.1,0,0.2,0,0.2-0.1c0.1-0.1,0.1-0.1,0.2-0.1
						C40,34.7,40,34.6,40,34.4l0.6,0.2c0-0.1,0.1-0.1,0.2-0.1c0.2,0,0.3,0,0.4,0c0-0.1,0-0.1,0-0.2c0,0,0-0.1,0-0.2h0.3
						c-0.1,0-0.2-0.2-0.3-0.3c0.3-0.1,0.5-0.2,0.6-0.2c0.1,0,0.2,0,0.2,0.1c0,0,0.1,0.1,0.2,0.1c0.4,0,0.6-0.1,0.6-0.3v-0.2
						c0,0,0.2,0.1,0.3,0.2c0-0.1,0-0.2-0.1-0.2c0,0-0.1-0.1-0.1-0.2c0.2,0.1,0.4,0.2,0.5,0.2c0,0,0.2,0,0.5-0.1l-0.1-0.3
						c0.1-0.1,0.2-0.2,0.3-0.2c0.1,0,0.3,0,0.6,0.3c0.3,0.2,0.5,0.3,0.6,0.3c0,0,0.1,0,0.1-0.1c0,0,0.1,0.1,0.3,0.2l0.1-0.1
						c-0.1-0.1-0.2-0.2-0.3-0.2c-0.1-0.1-0.2-0.2-0.3-0.3c0.1,0,0.3,0.1,0.5,0.2v-0.5c0.2,0.2,0.3,0.3,0.5,0.4
						c0.1,0.1,0.3,0.2,0.4,0.4l0.1-0.1c0-0.1,0-0.2-0.1-0.3h0.3c-0.1-0.1-0.1-0.2-0.1-0.4c0.2,0,0.3,0.1,0.5,0.3
						c0-0.2-0.1-0.4-0.4-0.6c-0.2-0.2-0.4-0.3-0.4-0.4c0,0,0-0.1,0.1-0.1c0,0,0-0.1-0.1-0.2c-0.1-0.1-0.1-0.2-0.2-0.2
						c0.1,0,0.1,0,0.1,0c0,0,0,0,0.1,0c0-0.4-0.4-1-1.2-1.7c-0.8-0.7-1.7-1.4-2.7-2.1c-1.2-0.8-2.4-1.7-3.8-2.5c0,0,0,0.1-0.1,0.1
						c0.4,0.3,0.7,0.6,1.1,0.9s0.7,0.6,1.1,0.9c0,0,0,0.1,0,0.1s0,0,0,0.1c-0.2-0.1-0.4-0.3-0.8-0.6c-0.4-0.2-0.7-0.5-1.1-0.8
						c-0.4-0.3-0.7-0.5-1-0.7c-0.3-0.2-0.4-0.4-0.4-0.5c0.1,0,0.2-0.1,0.2-0.1c0.1,0,0.2,0,0.3-0.1c-0.2-0.2-0.4-0.3-0.6-0.4
						c-0.2-0.1-0.4-0.3-0.5-0.4l-0.1,0.1c0.1,0.1,0.2,0.2,0.3,0.3c0.1,0.1,0.2,0.2,0.3,0.3L37,24.2c-0.8-0.5-1.4-0.9-1.9-1.3
						c-0.5-0.4-0.9-0.8-1.3-1.1c-0.3-0.3-0.6-0.6-0.8-0.8c-0.2-0.2-0.4-0.4-0.6-0.5c-0.3-0.2-0.6-0.5-1-0.9
						c-0.4-0.4-0.6-0.6-0.6-0.7c0-0.4,0.2-0.8,0.6-1.4c0.4-0.6,0.9-1.1,1.4-1.7c0.6-0.6,1.1-1.2,1.7-1.8c0.6-0.6,1-1,1.4-1.4
						c0.7-0.8,1.4-1.5,2.1-2.1c0.7-0.6,1.4-1.3,2.1-1.9c0-0.1,0-0.1,0.1-0.1c0,0.1,0,0.2-0.1,0.3c0.1,0,0.4-0.1,0.7-0.4
						c0.3-0.3,0.7-0.6,1-0.9c0.3-0.4,0.7-0.7,1-1c0.3-0.3,0.6-0.6,0.7-0.7c0.1,0.1,0.2,0.1,0.3,0.1c0.3,0,0.6-0.2,1.1-0.6
						c0.5-0.4,0.9-0.8,1.4-1.3c0.5-0.5,0.9-0.9,1.3-1.3c0.4-0.4,0.6-0.7,0.7-0.8c1-0.8,2-1.8,3.1-2.7c1.1-1,2-2,2.6-3L54.1-4
						c-0.1,0-0.2,0.1-0.3,0.1c-0.1,0-0.2,0.1-0.3,0.2l-0.1-0.1c0.2-0.2,0.3-0.5,0.3-0.7c-0.1,0-0.2-0.1-0.3-0.1
						c-0.3,0-0.5,0.1-0.6,0.3C52.7-4.1,52.4-4,52.1-4c0.1-0.1,0.2-0.2,0.2-0.3c0-0.1-0.1-0.2-0.2-0.3c-0.1-0.1-0.2-0.2-0.3-0.2
						c-0.1,0-0.3,0.1-0.5,0.2c-0.2,0.1-0.3,0.2-0.4,0.2c-0.1,0-0.1,0-0.1-0.1h-0.4c-0.1,0-0.1-0.1-0.1-0.2c0-0.2,0-0.3,0-0.3
						c-0.2,0-0.4,0.1-0.6,0.1c-0.2,0-0.3,0.2-0.3,0.5c0-0.1-0.1-0.1-0.1-0.1c0,0-0.1,0-0.1-0.1c-0.1,0-0.1,0.1-0.2,0.1
						c0,0-0.1,0.1-0.2,0.1H49c-0.1,0.1-0.1,0.2-0.2,0.3c0,0.1-0.1,0.2-0.2,0.3c-0.1,0-0.3,0-0.5-0.1c0-0.2,0.2-0.4,0.4-0.5
						C48.8-4.6,49-4.8,49.1-5c-0.5,0.1-1,0.4-1.4,0.9c-0.5,0.5-0.9,0.7-1.2,0.7c0.2-0.3,0.4-0.5,0.7-0.7c0.2-0.2,0.4-0.5,0.6-0.7
						c-0.3,0.2-0.5,0.3-0.7,0.5c-0.2,0.2-0.4,0.3-0.7,0.5c0.1-0.2,0.3-0.3,0.4-0.5c0.2-0.2,0.3-0.3,0.4-0.6c0,0,0-0.1-0.1-0.1
						c-0.3,0.3-0.5,0.5-0.8,0.8c-0.3,0.3-0.6,0.6-0.9,0.8l-0.1-0.1c0.2-0.2,0.3-0.4,0.5-0.6c0.2-0.2,0.3-0.4,0.5-0.6l-0.1-0.1
						c-0.1,0.1-0.2,0.2-0.4,0.3c-0.2,0.1-0.3,0.2-0.4,0.3c0,0,0-0.1-0.1-0.1c0-0.1,0.1-0.2,0.1-0.3C44.7-4.2,44.2-4,44-3.7
						c-0.2,0.2-0.4,0.4-0.6,0.4c0.1-0.2,0.3-0.4,0.6-0.7c0.3-0.3,0.4-0.5,0.4-0.6c-0.4,0.2-0.8,0.5-1.3,0.9s-0.8,0.6-0.9,0.6
						c0,0-0.1-0.1-0.2,0c-0.1,0-0.1,0-0.2,0c0.4-0.2,0.7-0.5,1-0.8s0.5-0.6,0.8-0.9c-0.1,0-0.1,0-0.2,0c0,0-0.1,0-0.1,0
						c-0.1,0-0.1,0-0.1,0.1c0,0.1,0,0.2-0.2,0.4c-0.2,0-0.4,0.1-0.6,0.3c-0.2,0.2-0.5,0.4-0.8,0.6c-0.3,0.3-0.6,0.6-1,1
						c-0.5,0.5-1,1-1.6,1.5c-0.6,0.5-1.1,1-1.7,1.5c-0.5,0.5-1,0.9-1.4,1.2c-0.4,0.4-0.7,0.6-0.8,0.7c0-0.1,0-0.1,0-0.2
						c0,0,0-0.1,0-0.1c-0.1,0.1-0.2,0.2-0.3,0.2c-0.1,0.1-0.2,0.1-0.3,0.2c0,0.1,0.1,0.2,0.1,0.2c0,0.1,0.1,0.1,0.2,0.2
						c0,0-0.1,0-0.1,0s-0.1,0-0.1,0c-0.1,0-0.1,0-0.1-0.1c0-0.1,0-0.2-0.1-0.3L34,3.1v0.3c0,0.2-0.1,0.3-0.2,0.3c0,0-0.1,0-0.1-0.1
						c0,0-0.1-0.1-0.1-0.1c-0.1,0-0.4,0.2-0.7,0.5c-0.4,0.3-0.7,0.7-1.1,1.1c-0.4,0.4-0.8,0.8-1.1,1.1c-0.3,0.3-0.5,0.5-0.6,0.6
						c0,0-0.1,0.1-0.2,0.1c0.1-0.2,0.3-0.5,0.7-1s0.8-0.9,1.3-1.3c0.5-0.4,0.9-0.9,1.4-1.2c0.4-0.4,0.8-0.6,1-0.7
						c0.5-0.5,1.1-1,1.6-1.5c0.5-0.5,1.1-1,1.6-1.5c0.4-0.3,0.8-0.5,0.9-0.7c0.2-0.2,0.4-0.3,0.6-0.5v0.2c0.2-0.4,0.5-0.7,0.7-1
						c0.3-0.3,0.5-0.6,0.8-0.9l-0.1-0.1c-0.4,0.1-0.8,0.4-1.3,0.7c-0.5,0.4-0.9,0.7-1.3,1.1s-0.7,0.8-1,1.1
						c-0.3,0.3-0.4,0.5-0.4,0.6c-1.2,1.2-2.5,2.3-4,3.5c-1.5,1.2-2.9,2.4-4.2,3.8c0-0.1,0.1-0.3,0.4-0.6C28.7,6.5,29,6.3,29.4,6
						c0.3-0.3,0.7-0.6,1-0.8c0.3-0.3,0.6-0.5,0.7-0.7c0.6-0.6,1.2-1.2,1.9-1.8c0.7-0.6,1.3-1.2,1.9-1.7C35.5,0.4,36,0,36.4-0.3
						c0.4-0.3,0.5-0.4,0.3-0.3c0.4-0.5,0.9-1,1.4-1.4c0.5-0.5,1-0.9,1.4-1.3c-0.1,0-0.2,0.1-0.4,0.2c-0.2,0.2-0.4,0.3-0.6,0.5
						C38.3-2.4,38-2.2,37.8-2c-0.2,0.2-0.4,0.3-0.5,0.3s-0.3,0.1-0.6,0.4s-0.6,0.5-0.9,0.8c-0.3,0.3-0.7,0.7-1.3,1.3
						c-0.9,0.8-1.6,1.5-2,1.9c-0.4,0.4-0.8,0.8-1,1C31.2,3.8,31,3.9,30.9,4c-0.1,0-0.2,0.1-0.3,0.2c-0.5,0.4-1.1,1-1.8,1.6
						C28.1,6.4,27.5,7,27,7.5h0.1C27,7.8,26.8,8,26.4,8.3c-0.4,0.3-0.8,0.5-1,0.7c0.1,0,0.2,0.1,0.3,0.1c0,0.1-0.1,0.3-0.4,0.5
						c-0.2,0.3-0.5,0.6-0.8,0.9c-0.3,0.3-0.7,0.7-1.3,1.1c-0.2,0-0.3,0.1-0.3,0.2c0,0.1-0.2,0.2-0.4,0.2c0-0.1,0.1-0.3,0.4-0.6
						c0.3-0.3,0.5-0.6,0.7-0.8c-0.2,0-0.5,0.2-0.7,0.6c-0.2,0.4-0.5,0.6-0.7,0.6c-0.1,0-0.4-0.1-0.7-0.4c-0.3-0.2-0.6-0.5-1-0.9
						c-0.4-0.3-0.7-0.6-1-0.9c-0.3-0.3-0.5-0.5-0.6-0.6c-0.7-0.6-1.4-1.2-2.2-1.9s-1.3-1.2-1.5-1.7c0,0,0,0,0,0.1
						c0,0.1,0,0.1-0.1,0.1c0-0.8,0-1.8-0.1-3c-0.1-1.3-0.2-2.6-0.3-3.8c-0.1-1.3-0.3-2.5-0.4-3.5c-0.2-1-0.4-1.6-0.6-1.8
						c0,0,0.1,0,0.1,0c0,0,0.1,0,0.1,0c-0.1-0.1-0.2-0.2-0.2-0.2c0-0.1-0.1-0.1-0.2-0.2v0.5l-0.3-0.1c0,0.1,0,0.2,0,0.3
						s0,0.2-0.1,0.3c-0.1-0.1-0.2-0.2-0.2-0.3v-0.1c0-0.1-0.1-0.2-0.4-0.3c-0.2,0.1-0.3,0.3-0.3,0.4c0,0.1-0.1,0.2-0.4,0.2
						c0,0.1,0,0.4,0.1,0.7c0,0.2-0.1,0.3-0.4,0.3c-0.1,0-0.2-0.1-0.3-0.2c0,0.1-0.1,0.3-0.2,0.5c0,0-0.1,0-0.2-0.1
						c0,0.1-0.1,0.1-0.1,0.2c0,0-0.1,0.1-0.1,0.1c0,0.1,0,0.2,0,0.3c0,0.1,0,0.2,0,0.3c0,0-0.1,0-0.1,0c0,0,0,0-0.1,0h-0.1
						c-0.2,0-0.3,0.2-0.4,0.7c-0.1,0.5-0.1,0.8-0.1,1c0,1.7,0.1,3.5,0.4,5.2c0.2,1.7,0.4,3.2,0.4,4.3c0,0.2-0.1,0.3-0.2,0.3
						s-0.2,0-0.2,0.1c0.1,0.1,0.2,0.2,0.3,0.4c0.1,0.2,0.2,0.3,0.2,0.4v0.3c-0.1,0-0.3,0-0.4,0c-0.2,0-0.3,0-0.5,0
						c0.3,0.2,0.5,0.5,0.6,0.8c0.1,0.3,0.2,0.6,0.3,0.9h-0.4c0.2,0.2,0.4,0.6,0.5,1.1s0.2,1.1,0.3,1.7c0.1,0.6,0.1,1.2,0.1,1.7
						c0,0.6,0.1,1,0.1,1.3c0.1,0.6,0.2,1.3,0.3,1.9s0.2,1.3,0.2,2.1h-0.1c0,0-0.1-0.2-0.2-0.6c-0.1-0.4-0.1-0.7-0.2-0.8
						c0-0.1,0-0.2,0.1-0.4c-0.2-0.2-0.3-0.3-0.3-0.4c0-0.1,0-0.2,0-0.4c0.1-0.1,0.2-0.2,0.2-0.3c-0.2,0-0.3-0.2-0.3-0.4v-0.3
						l-0.1-0.1h-0.1C11,16.3,11,16.4,11,16.5c0,0.3,0,0.6,0.1,1.1c0,0.4,0.1,0.9,0.2,1.3c0.1,0.4,0.1,0.8,0.2,1.2
						c0.1,0.4,0.2,0.7,0.3,0.9h0.1c0.1,0,0.3,0.3,0.4,0.9c0.1,0.6,0.2,1.3,0.3,2c0.1,0.7,0.2,1.4,0.2,1.9c0,0.6,0.1,0.8,0.1,0.8v0.7
						c0,0-0.1,0-0.1-0.1v0.1v0.2c0,0,0.1,0.2,0.2,0.7c0.1,0.5,0.2,0.9,0.2,1.3c0,0,0,0.1-0.1,0.2c0,0.1-0.1,0.2-0.1,0.4
						c0-0.2,0-0.3-0.1-0.5c0-0.1-0.1-0.3-0.1-0.4c0,0,0-0.2,0.1-0.3c-0.2-0.4-0.4-1-0.4-1.8c-0.1-0.8-0.1-1.5-0.1-1.9
						c-0.1,0.1-0.2,0.3-0.2,0.4s0,0.3,0.1,0.4c0.1,0.1,0.1,0.2,0.1,0.3v0.3c0,0.2,0,0.4,0.1,0.7c0,0.2,0.1,0.4,0.1,0.7
						c0,0,0,0.1,0,0.1c0,0,0,0.1,0,0.2c0,0.1,0,0.2,0.1,0.3c0.1,0.1,0.1,0.2,0.1,0.5c0,0.1,0,0.3-0.1,0.4c0,0.1-0.1,0.3-0.1,0.5
						c0,0.4,0,0.7,0.1,1.1c0.1,0.4,0.1,0.7,0.1,1.1c0,0.2-0.1,0.5-0.1,0.8c0,0.3-0.1,0.6-0.3,0.7c0-0.1,0-0.1,0-0.2s0-0.1,0-0.2
						c0,0.1-0.1,0.3-0.1,0.4c0,0.1-0.1,0.2-0.1,0.4h0.3c0,0.1-0.1,0.2-0.1,0.4s0,0.3-0.1,0.4c0-0.1,0-0.2,0-0.3c0-0.1,0-0.2-0.1-0.3
						c-0.1,0.7-0.2,1.4-0.4,2.1c-0.2,0.7-0.3,1.5-0.4,2.2c0-0.2,0.1-0.3,0.2-0.3c0,0,0.1,0.1,0.1,0.2s0,0.3,0,0.4
						c0.2-0.1,0.3-0.1,0.4-0.2c0.1,0,0.3-0.1,0.4-0.2l0.1,0.4c0,0,0.1-0.1,0.1-0.1c0.1,0,0.2,0.1,0.2,0.2c0,0.1,0.1,0.2,0.2,0.2
						c0,0,0-0.1,0.1-0.1c0,0,0-0.1,0-0.1c0,0,0-0.1,0-0.2c0.2,0.2,0.3,0.4,0.3,0.6s0.1,0.2,0.4,0.2c0-0.1,0-0.2,0-0.2
						c0,0,0.1-0.1,0.1-0.2c0.1,0.1,0.1,0.2,0.1,0.2c0,0,0,0.1,0.1,0.2c0-0.1,0.1-0.2,0.2-0.2c0.1,0.1,0.2,0.2,0.3,0.3
						c0.1,0.1,0.2,0.2,0.4,0.3c0,0,0-0.2,0.1-0.3c0.1,0.3,0.2,0.5,0.5,0.5c0-0.1,0-0.2,0-0.3s0-0.2,0-0.3v0.7
						c0.1-0.1,0.1-0.1,0.1-0.2s0-0.1,0.1-0.1c0.1,0.3,0.2,0.6,0.3,0.9c0-0.1,0.1-0.2,0.2-0.3c0,0,0.1,0,0.1,0c0,0,0.1,0,0.1,0
						c0-0.1,0-0.2,0-0.4c0-0.2,0-0.3,0.1-0.3c0.1,0,0.2,0.2,0.3,0.5c0.2-0.2,0.3-0.5,0.3-0.8c0-0.3,0-0.6,0-0.8
						c0.4-1.3,0.6-2.7,0.6-3.9c0-2-0.1-4-0.3-6c-0.2-2-0.4-3.7-0.7-5.3c0,0.2,0,0.4,0,0.6c0,0.2,0,0.4,0,0.5L17.5,25
						c-0.1-0.4-0.2-0.9-0.3-1.4c-0.1-0.5-0.1-1-0.1-1.4c0.1-0.1,0.2-0.3,0.2-0.5c0-0.2,0-0.5-0.1-0.7C17.2,20.6,17.1,20.4,17,20
						c0,0.4,0,0.6-0.1,0.6c-0.1-0.2-0.1-0.4-0.1-0.7c0-0.2,0-0.5-0.1-0.7c0.1,0,0.1,0.1,0.2,0.3C16.9,19.8,17,20,17,20z M10.7,37.4
						c0.3-0.5,0.4-1,0.5-1.6c0.1-0.6,0.1-1.1,0.1-1.6c0,0.5,0,1,0,1.7c0,0.6-0.1,1.2-0.2,1.7c0,0,0.1,0,0.2-0.1
						c0,0.1,0.1,0.2,0.2,0.2c0.1-0.6,0.2-1.1,0.3-1.7c0.1-0.5,0.1-1.1,0.1-1.8c0-0.2,0-0.5,0-0.8c0-0.3,0-0.7,0-1
						c0-0.3,0-0.6-0.1-0.9c-0.1-0.3-0.2-0.4-0.3-0.5c0,0,0,0.2-0.1,0.5c-0.1-0.1-0.2-0.4-0.3-0.8c0-0.4-0.1-0.8-0.1-1.3
						c0-0.5-0.1-1-0.1-1.4c0-0.5,0-0.8-0.1-1c0-0.2,0-0.5-0.1-1c0-0.5-0.1-1-0.1-1.5c0-0.5-0.1-1-0.2-1.4c-0.1-0.4-0.1-0.6-0.2-0.6
						c0.1,1.2,0.3,2.4,0.4,3.6c0.2,1.2,0.2,2.5,0.2,3.7c0,0.1,0,0.2,0.1,0.2l-0.1,0.1l-0.1-0.3c0,0.9,0,1.8,0,2.7c0,0.9,0,1.8,0,2.7
						c0,0.2,0,0.4,0,0.5c0,0.2,0,0.4,0,0.6V37.4z M10.9,12.1L10.9,12.1c0,0.2,0,0.2-0.1,0.3c-0.1,0.1-0.1,0.1-0.1,0.2
						c0,0,0,0.1,0.1,0.2c0-0.2,0-0.3,0.1-0.3c0.1,0,0.1,0,0.1-0.1C11,12.3,11,12.2,10.9,12.1z M10.8,13.7c0.1-0.1,0.1-0.2,0.2-0.3
						c0-0.1,0.1-0.2,0.1-0.3c0,0-0.1,0-0.1-0.1c0,0.1,0,0.2-0.1,0.2c-0.1,0-0.1,0.1-0.1,0.2C10.7,13.6,10.8,13.6,10.8,13.7z
						 M11.5,16.2c-0.1-0.3-0.2-0.6-0.2-0.9c0-0.3-0.1-0.6-0.2-0.8c0,0,0,0.1,0.1,0.2c0-0.2,0-0.3,0-0.5c0-0.2,0-0.3,0-0.4
						c-0.2,0-0.3,0.1-0.3,0.3c0,0,0,0.1,0,0.2c0,0.1,0,0.1,0,0.2c0,0.1,0,0.3,0,0.4c0,0.1,0,0.3,0,0.4c0,0.2,0.1,0.4,0.2,0.7
						C11.2,16.1,11.3,16.2,11.5,16.2z M11.2,25c-0.1-0.1-0.1-0.2-0.1-0.2c0,0.1-0.1,0.2-0.1,0.3c0,0.3,0.2,0.6,0.5,1
						c0-0.2-0.1-0.5-0.1-0.9s-0.1-0.6-0.1-0.6C11.3,24.7,11.2,24.9,11.2,25z M11.1,11.4c0.1,0.3,0.1,0.5,0.1,0.7l0.1-0.1
						c0-0.1,0-0.3,0-0.4S11.3,11.4,11.1,11.4z M11.1,11.4c0.1,0,0.2,0.1,0.2,0.2s0,0.3,0,0.4l-0.1,0.1
						C11.3,11.9,11.2,11.7,11.1,11.4z M11.4,32.9c0-0.1,0.1-0.3,0.1-0.4c0-0.1,0-0.2,0.1-0.4c-0.1,0-0.1,0-0.1,0.1
						c0,0.1,0,0.2,0,0.2c-0.1,0-0.1,0.1-0.1,0.2C11.3,32.8,11.4,32.9,11.4,32.9z M11.4,32.9c0-0.1-0.1-0.2-0.1-0.3
						c0-0.1,0-0.2,0-0.2s0.1-0.1,0.2-0.3c0,0.1-0.1,0.3-0.1,0.4C11.5,32.7,11.4,32.8,11.4,32.9z M11.8,29.1c0-0.3-0.1-0.7-0.1-1.3
						c0-0.6-0.1-0.9-0.2-0.9c0,0.2,0,0.5,0,0.7c0,0.2,0,0.5,0,0.8l-0.2-0.2c0,0.2,0.1,0.4,0.1,0.6C11.4,28.8,11.5,29,11.8,29.1z
						 M11.6,12.7l-0.3-0.1c0.1,0,0.1-0.1,0.1-0.1c0,0,0-0.1-0.1-0.1c0,0-0.1,0-0.1-0.1h0.1C11.5,12.3,11.6,12.4,11.6,12.7z
						 M11.6,12.7c0-0.3-0.1-0.4-0.2-0.4h-0.1c0,0,0,0.1,0.1,0.1c0,0,0.1,0,0.1,0.1c0,0,0,0.1-0.1,0.1L11.6,12.7z M11.8,31
						c0-0.2,0.1-0.4,0.1-0.7v-0.8v-0.3c-0.1,0-0.2,0-0.2,0.1c0,0.1,0,0.2-0.1,0.3c0,0-0.1-0.1-0.2-0.1c0,0.1,0.1,0.2,0.1,0.3
						c0,0,0.1-0.1,0.2-0.1c0,0.2,0,0.3,0,0.3c0,0-0.1,0-0.3,0c0,0.1,0.1,0.2,0.1,0.3c0,0.1,0,0.2,0.1,0.3l0.1-0.1
						c0.1,0,0.1,0,0.1,0.1v0.1V31z M11.7,21.2c0,0.2,0,0.4,0,0.7c0,0.3,0.1,0.5,0.2,0.7c0.1,0,0.1,0,0.1-0.1c0-0.2-0.1-0.5-0.1-0.8
						C11.9,21.3,11.9,21.1,11.7,21.2C11.8,21.1,11.7,21.1,11.7,21.2z M12.1,20.8c0-0.1-0.1-0.2-0.1-0.3c0-0.1-0.1-0.2-0.1-0.3
						c0,0.1-0.1,0.2-0.1,0.3C11.8,20.7,11.9,20.8,12.1,20.8z M12.1,20.8c-0.2,0-0.3-0.1-0.3-0.3c0-0.1,0-0.2,0.1-0.3
						c0,0.1,0,0.2,0.1,0.3C12,20.7,12,20.8,12.1,20.8z M12,22.7c0,0.1-0.1,0.2-0.1,0.3c0,0.2,0,0.5,0.1,0.7c0,0.3,0.1,0.4,0.3,0.4
						c0-0.1-0.1-0.4-0.1-0.8C12.2,22.9,12.1,22.7,12,22.7z M12.3,32.5c0,0.1-0.1,0.2-0.1,0.2c0,0.1-0.1,0.1-0.1,0.2
						c0.2,0,0.3,0,0.4,0c0,0,0-0.1,0-0.4C12.4,32.6,12.3,32.6,12.3,32.5z M12.5,18.2c0.1,0,0.1,0.1,0.2,0.2c0,0.1,0.1,0.1,0.2,0.2
						c-0.1-0.4-0.1-0.8-0.2-1.2s-0.2-0.9-0.4-1.2c0.1,0.4,0.1,0.7,0.1,1S12.5,17.8,12.5,18.2z M12.5,18.2c-0.1-0.4-0.1-0.7-0.1-1
						s0-0.7-0.1-1c0.3,0.3,0.4,0.7,0.4,1.2s0.1,0.9,0.2,1.2c-0.1,0-0.1-0.1-0.2-0.2C12.7,18.3,12.6,18.2,12.5,18.2z M12.9,21.3
						c0.3,0.1,0.5,0.3,0.5,0.6c0,0.1,0,0.3-0.1,0.5c-0.1,0.2-0.1,0.4-0.2,0.5C13,22.3,12.9,21.8,12.9,21.3v-0.6c0-0.3,0-0.5,0-0.8
						c0-0.3-0.1-0.5-0.1-0.8c0.1,0,0.2,0.3,0.2,0.9c0.1,0.6,0.1,1,0.2,1.3c0,0-0.1,0-0.1,0S13.1,21.3,12.9,21.3L12.9,21.3z
						 M12.9,21.3L12.9,21.3c0.1,0,0.1,0,0.2,0s0.1,0,0.1,0c0-0.3-0.1-0.7-0.2-1.3c-0.1-0.6-0.1-0.9-0.2-0.9c0,0.2,0.1,0.5,0.1,0.8
						c0,0.3,0,0.6,0,0.8V21.3z M13,30.9c0-0.1,0.1-0.3,0.2-0.6c-0.2,0-0.3,0.1-0.3,0.2C12.9,30.7,12.9,30.8,13,30.9L13,30.9z
						 M13,30.9L13,30.9c-0.1-0.1-0.1-0.2-0.1-0.4c0-0.2,0.1-0.2,0.3-0.2C13.1,30.5,13.1,30.7,13,30.9z M12.9,21.3
						c0,0.4,0.1,1,0.2,1.6c0-0.2,0.1-0.4,0.2-0.5c0.1-0.2,0.1-0.3,0.1-0.5C13.4,21.6,13.3,21.4,12.9,21.3z M13.7,23.7
						c0,0.2,0.1,0.3,0.1,0.4c0,0.1,0.1,0.3,0.1,0.4c0,0,0.1-0.2,0.1-0.3c0-0.3-0.1-0.5-0.2-0.7c-0.2-0.2-0.3-0.4-0.5-0.5
						c-0.1,0.1-0.1,0.2-0.1,0.4c0,0.2,0,0.3,0,0.4c0,0.3,0.1,0.7,0.1,1.2c0,0.5,0.1,0.7,0.3,0.7c0.1,0,0.1,0,0.2-0.1
						c0-0.1,0.1-0.2,0.1-0.2c0,0,0-0.2-0.1-0.3c0,0,0.1,0.1,0.1,0.1c0,0,0.1,0,0.1,0.1v-0.4c-0.2,0.1-0.3,0.1-0.3,0.1
						c0-0.1,0.1-0.2,0.1-0.3c0-0.2-0.1-0.5-0.2-0.7C13.6,23.8,13.6,23.8,13.7,23.7z M13.7,23.7l-0.1,0.1c0.1,0.3,0.2,0.5,0.2,0.7
						c0,0.1,0,0.2-0.1,0.3c0,0,0.2,0,0.3-0.1v0.4c0,0-0.1-0.1-0.1-0.1c0,0-0.1,0-0.1-0.1c0.1,0.2,0.1,0.3,0.1,0.3
						c0,0-0.1,0.1-0.1,0.2c0,0.1-0.1,0.1-0.2,0.1c-0.1,0-0.2-0.1-0.2-0.4c-0.1-0.3-0.1-0.6-0.1-0.9c0-0.3,0-0.7,0-1.2l0.1-0.1
						c0.2,0.2,0.3,0.4,0.5,0.5c0.2,0.2,0.2,0.4,0.2,0.7c0,0.2,0,0.3-0.1,0.3c0-0.2-0.1-0.3-0.1-0.4C13.8,24,13.7,23.9,13.7,23.7z
						 M14.1,32.5c0,0,0.1,0.1,0.3,0.1c0-0.9-0.1-1.8-0.1-2.6c0-0.8-0.1-1.7-0.1-2.6c0,0,0.1-0.1,0.1-0.1c-0.1,0-0.1-0.1-0.2-0.3
						c0-0.2,0-0.4,0-0.5l0.1-0.1v0.3c0-0.1,0.1-0.1,0.1-0.1c0,0,0,0,0-0.1c0-0.2-0.1-0.4-0.3-0.5c-0.2-0.1-0.3-0.1-0.4-0.1
						c0,1.2,0.1,2.2,0.3,3.1c0.2,0.9,0.3,1.8,0.3,2.7C14.1,32,14.1,32.3,14.1,32.5z M14.1,32.5c0-0.2,0.1-0.4,0.1-0.8
						c0-1.2-0.1-2.1-0.3-2.9c-0.2-0.8-0.3-1.8-0.3-2.9c0.1,0,0.2,0,0.4,0.1c0.2,0.1,0.3,0.2,0.3,0.5c0,0.1,0,0.1,0,0.1
						c0,0-0.1,0-0.1,0.1v-0.3c0,0,0,0.1-0.1,0.1c0,0.1,0,0.3,0,0.5c0,0.2,0.1,0.3,0.2,0.3c0,0-0.1,0-0.1,0.1c0,0.9,0.1,1.8,0.1,2.6
						c0,0.8,0.1,1.7,0.1,2.6C14.2,32.5,14.1,32.5,14.1,32.5z M15,29.6c0,0,0.1-0.1,0.1-0.4c0-0.9-0.1-1.9-0.2-3s-0.3-2-0.6-2.6
						c0,0.1-0.1,0.2-0.1,0.3s0,0.2-0.1,0.2c0-0.3,0-0.6-0.1-0.7c0.2,0,0.3-0.1,0.3-0.2c0-0.1,0-0.2,0.2-0.2c0.2,1.2,0.4,2.3,0.5,3.4
						c0.1,1.1,0.2,2.3,0.2,3.4L15,29.6z M15,29.6l0.1,0.3c0-1.2-0.1-2.3-0.2-3.4c-0.1-1.1-0.3-2.3-0.5-3.4c-0.1,0.1-0.1,0.2-0.1,0.2
						c0,0.1-0.1,0.1-0.3,0.1c0,0.1,0.1,0.2,0.1,0.4c0,0.2,0,0.3,0.1,0.3c0-0.3,0-0.4,0.1-0.5c0.2,0.4,0.3,0.9,0.4,1.4
						c0.1,0.5,0.2,1,0.2,1.5c0.1,0.5,0.1,1,0.1,1.5c0,0.5,0,0.9,0,1.2C15.1,29.5,15.1,29.6,15,29.6z M14.7,29.2c0-0.1,0-0.2,0-0.3
						s0-0.2-0.1-0.3c0,0.1-0.1,0.3-0.1,0.6H14.7z M14.7,29.2h-0.1c0-0.1,0-0.2,0-0.3s0-0.2,0.1-0.3V29.2z M17.4,13.5
						c0.2,0.1,0.4,0.2,0.7,0.3s0.4,0.2,0.4,0.3v0.1c0,0.3,0.1,0.5,0.4,0.7c0.3,0.1,0.4,0.3,0.4,0.5v0.3c-0.2,0-0.5-0.1-0.8-0.4
						c-0.3-0.2-0.7-0.5-1-0.8c-0.3-0.3-0.6-0.6-0.9-1c-0.2-0.3-0.4-0.6-0.4-0.7c0,0,0-0.1,0.1-0.2c0.3,0.3,0.6,0.6,1.1,0.9V13.5z
						 M17.4,13.5v0.2c-0.5-0.4-0.9-0.7-1.1-0.9c0,0.1-0.1,0.2-0.1,0.2c0.1,0.3,0.3,0.6,0.6,0.9c0.3,0.3,0.6,0.6,0.9,0.9
						c0.3,0.3,0.7,0.5,1,0.7c0.3,0.2,0.5,0.3,0.7,0.3v-0.3c0-0.2-0.1-0.4-0.4-0.5c-0.3-0.1-0.4-0.3-0.4-0.7v-0.1
						c0-0.1-0.2-0.2-0.5-0.4C17.7,13.6,17.4,13.5,17.4,13.5z M17.8,14.9c-0.2-0.2-0.5-0.4-0.7-0.5c-0.2-0.2-0.5-0.4-0.8-0.6
						c0.2,0.3,0.4,0.5,0.7,0.7c0.2,0.2,0.4,0.4,0.7,0.6L17.8,14.9z M17.8,14.9L17.6,15c-0.2-0.2-0.4-0.4-0.7-0.6
						c-0.2-0.2-0.4-0.4-0.7-0.7c0.3,0.2,0.5,0.4,0.8,0.6C17.3,14.5,17.5,14.7,17.8,14.9z M17,20c0-0.1-0.1-0.2-0.1-0.5
						c0-0.2-0.1-0.3-0.2-0.3c0,0.2,0,0.5,0.1,0.8c0,0.4,0.1,0.6,0.2,0.6V20z M17.3,22.2c0,0.2,0.1,0.4,0.1,0.6c0,0.2,0,0.4,0.1,0.6
						c0,0,0.1,0,0.1-0.1c0-0.2-0.1-0.4-0.1-0.6C17.4,22.6,17.3,22.4,17.3,22.2z M17.8,15.2c0.2,0.2,0.5,0.4,0.7,0.6
						c0.2,0.2,0.5,0.4,0.7,0.6l0.1-0.1c-0.2-0.2-0.5-0.4-0.7-0.6C18.4,15.5,18.1,15.3,17.8,15.2C17.9,15.1,17.9,15.2,17.8,15.2z
						 M17.8,15.2C17.9,15.2,17.9,15.1,17.8,15.2c0.3,0.2,0.5,0.4,0.8,0.6c0.2,0.2,0.5,0.4,0.7,0.6l-0.1,0.1
						c-0.2-0.2-0.5-0.4-0.7-0.6C18.3,15.6,18,15.4,17.8,15.2z M20.2,10.5c0-0.1-0.1-0.2-0.2-0.3s-0.2-0.2-0.3-0.3L19.6,10
						C19.7,10.1,19.9,10.3,20.2,10.5z M19.6,10c0,0,0.1-0.1,0.1-0.1c0.1,0.1,0.2,0.2,0.3,0.3s0.2,0.2,0.2,0.3
						C19.9,10.3,19.7,10.1,19.6,10z M21.8,20c0.5,0.5,1,1,1.6,1.4c0.6,0.4,1.1,0.9,1.8,1.3c-0.5-0.5-1-0.9-1.4-1.3
						c-0.4-0.4-0.8-0.7-1.2-1c-0.4-0.3-0.6-0.5-0.8-0.7c-0.2-0.2-0.3-0.2-0.2-0.2c-0.2-0.1-0.5-0.4-0.9-0.8
						c-0.4-0.4-0.7-0.6-0.9-0.6c0,0-0.1,0-0.1,0.1c0.4,0.3,0.7,0.6,1.1,0.9C21.1,19.3,21.4,19.7,21.8,20L21.8,20z M21.8,20L21.8,20
						c-0.2-0.1-0.3-0.2-0.5-0.3c-0.2-0.1-0.3-0.3-0.6-0.4c0.2,0.2,0.3,0.4,0.5,0.6c0.2,0.2,0.3,0.3,0.6,0.4V20z M22.9,21.1
						c-0.1-0.1-0.2-0.2-0.3-0.2c-0.1,0-0.2-0.1-0.3-0.2c0,0,0,0.1-0.1,0.1c0.2,0.2,0.4,0.4,0.6,0.5V21.1z M22.6,19.4
						c0.3,0.2,0.6,0.5,0.9,0.7s0.6,0.5,0.9,0.7c0,0,0-0.1,0-0.1c0,0,0,0,0-0.1c-0.3-0.2-0.5-0.5-0.8-0.7c-0.3-0.2-0.6-0.5-0.8-0.8
						L22.6,19.4z M22.6,19.4l0.1-0.1c0.3,0.3,0.5,0.5,0.8,0.8c0.3,0.2,0.6,0.5,0.8,0.7c0,0,0,0.1,0,0.1c0,0,0,0,0,0.1
						c-0.3-0.2-0.6-0.5-0.9-0.7S23,19.6,22.6,19.4z M33.9,27.5c0,0.2,0.2,0.4,0.6,0.7s0.6,0.5,0.7,0.5c0,0,0.1,0,0.1-0.1
						c0,0,0.1-0.1,0.1-0.1c0,0,0.2,0.1,0.3,0.3c0.2,0.2,0.4,0.4,0.7,0.7s0.5,0.5,0.8,0.8s0.5,0.5,0.7,0.7c0,0,0,0.1,0.1,0.1
						c-0.2,0-0.3,0-0.3,0.1c0.2,0.1,0.4,0.2,0.5,0.3l-0.1,0.1c-0.7-0.4-1.3-0.7-1.7-1c-0.4-0.3-0.8-0.6-1-0.8
						c-0.3-0.3-0.5-0.5-0.7-0.7c-0.3-0.2-0.7-0.5-1.1-0.9c-0.4-0.4-0.9-0.8-1.3-1.2c-0.4-0.4-0.8-0.7-1.2-1
						c-0.4-0.3-0.6-0.4-0.7-0.4c-0.1,0-0.2,0-0.2,0.1c-0.1,0.1-0.1,0.1-0.2,0l-1-0.8l0.1-0.1c0.2,0.1,0.4,0.2,0.6,0.4
						c0.2,0.2,0.3,0.3,0.5,0.4c0,0,0-0.1,0.1-0.1c-1.7-1.2-2.9-2.2-3.7-3.1s-1.3-1.3-1.5-1.3c-0.4-0.3-0.9-0.7-1.2-1
						c-0.4-0.4-0.6-0.6-0.7-0.8c0.2,0,0.6,0.1,1,0.4c0.4,0.2,0.9,0.5,1.3,0.8c0.5,0.4,1,0.8,1.5,1.2c0,0.1,0,0.1,0,0.2s0,0.1,0,0.2
						c0,0,0.1,0.1,0.1,0.1H27c0,0.2,0.1,0.4,0.4,0.5c0.3,0.2,0.5,0.3,0.7,0.3h0.1c0.1,0,0.2,0.1,0.2,0.2c0,0.1-0.1,0.1-0.4,0.1
						c0.6,0.4,1,0.6,1.2,0.7c0.2,0.1,0.3,0.1,0.4,0.2c0,0-0.1,0-0.1,0c0,0-0.1,0-0.1,0c0.1,0.1,0.2,0.2,0.3,0.3
						c0.1,0.1,0.2,0.2,0.3,0.4c0-0.2,0.1-0.3,0.2-0.3c0,0.3,0.1,0.4,0.3,0.5c0.2,0,0.4,0.2,0.6,0.5c0,0-0.2-0.1-0.3-0.2
						c0.1,0.3,0.4,0.6,0.7,0.9c0.3,0.3,0.6,0.4,0.8,0.4c0,0,0.1-0.1,0.2-0.1c0.2,0,0.5,0.2,0.8,0.5c0.3,0.4,0.6,0.6,0.8,0.7
						c0,0,0,0.1-0.1,0.1C34.1,27.6,34,27.5,33.9,27.5z M33.9,27.5c0.1,0,0.2,0,0.3,0.1c0,0,0.1,0,0.1-0.1c-0.3-0.1-0.6-0.4-0.9-0.7
						c-0.3-0.4-0.6-0.5-0.8-0.5c-0.1,0-0.2,0-0.2,0.1c-0.2,0-0.5-0.2-0.8-0.5c-0.3-0.3-0.5-0.6-0.6-0.8c0.2,0.1,0.3,0.2,0.3,0.2
						c0-0.1-0.2-0.3-0.5-0.5c-0.3-0.3-0.5-0.4-0.5-0.4c0,0.1,0,0.1,0,0.2c0,0,0,0.1,0,0.2c-0.1-0.1-0.2-0.3-0.3-0.4
						c-0.1-0.1-0.2-0.2-0.3-0.3c0,0,0.1,0,0.2,0c0.1,0,0.1-0.1,0.1-0.1c-0.4,0-0.7-0.1-0.9-0.3c-0.3-0.2-0.5-0.4-0.7-0.5
						c0.3,0,0.4,0,0.4-0.1c0-0.1-0.1-0.2-0.2-0.2h-0.1c-0.2,0-0.5-0.1-0.7-0.3C27.1,22.2,27,22,27,21.9h-0.1l-0.1-0.1
						c0-0.1,0-0.1,0-0.2s0-0.1,0-0.2c0,0-0.1,0-0.4-0.2c-0.2-0.2-0.5-0.3-0.8-0.6c-0.3-0.2-0.6-0.4-0.8-0.6
						c-0.2-0.2-0.4-0.3-0.4-0.4c-0.2-0.1-0.4-0.2-0.6-0.4c-0.2-0.2-0.4-0.3-0.7-0.3c0.1,0.2,0.2,0.4,0.5,0.6
						c0.2,0.2,0.5,0.4,0.7,0.6c0.2,0.2,0.5,0.3,0.7,0.5c0.2,0.2,0.3,0.3,0.4,0.4c0.8,0.6,1.7,1.3,2.4,2.1c0.8,0.8,1.6,1.5,2.5,2.1
						c0,0-0.1,0.1-0.1,0.1c-0.2-0.1-0.3-0.2-0.5-0.4c-0.2-0.2-0.3-0.3-0.6-0.4c0,0-0.1,0-0.1,0.1c0,0,0.2,0.1,0.5,0.4
						c0.3,0.3,0.5,0.4,0.7,0.4c0.1-0.1,0.2-0.1,0.2-0.1c0.2,0,0.6,0.2,1.3,0.7c0.6,0.5,1.2,1,1.8,1.5s1.1,1,1.5,1.4s0.5,0.5,0.4,0.4
						c0,0,0.2,0.2,0.4,0.3c0.2,0.2,0.4,0.4,0.7,0.6c0.3,0.2,0.6,0.4,0.9,0.6c0.3,0.2,0.6,0.3,0.8,0.4c0,0,0-0.1,0.1-0.1
						c-0.2,0-0.4-0.1-0.5-0.3c0,0,0.1-0.1,0.3-0.1c-0.2,0-0.5-0.1-0.8-0.4c-0.3-0.3-0.6-0.5-0.8-0.8c-0.2-0.3-0.4-0.5-0.5-0.7
						c-0.1-0.2-0.1-0.2,0,0c-0.1-0.1-0.2-0.2-0.3-0.4c-0.1-0.2-0.2-0.2-0.3-0.2c0,0-0.1,0-0.1,0.1c0,0-0.1,0.1-0.1,0.1
						c-0.2,0-0.4-0.2-0.8-0.5C34.1,27.8,33.9,27.6,33.9,27.5l-0.1,0.1c-0.1,0-0.3-0.1-0.5-0.4c-0.3-0.2-0.4-0.4-0.5-0.6l0.1-0.1
						c0.2,0.1,0.4,0.3,0.6,0.4S33.7,27.4,33.9,27.5z M26.1,9.3c0.3-0.3,0.5-0.6,0.8-0.9c0.3-0.4,0.6-0.6,0.9-0.9c0,0,0,0.1,0.1,0.1
						c-0.8,0.6-1.5,1.3-2.1,2c-0.6,0.7-1.1,1.3-1.5,2c0,0,0.1-0.1,0.1-0.1c0,0,0.1,0,0.1,0c0,0,0.1,0,0.1,0
						c-0.1,0.2-0.3,0.4-0.4,0.5c-0.1,0.1-0.2,0.3-0.3,0.4c0,0-0.1,0-0.1,0c0,0,0,0-0.1,0c0-0.3,0.2-0.6,0.5-0.9
						c-0.1,0.1-0.3,0.2-0.4,0.4c-0.2,0.2-0.3,0.3-0.4,0.4c0,0-0.1,0-0.1,0c0,0,0,0-0.1,0c0.4-0.6,0.8-1.1,1.3-1.6
						C25.1,10.2,25.6,9.8,26.1,9.3z M24.2,11.5c0.4-0.6,0.7-1,1-1.3c0.3-0.3,0.6-0.6,0.9-0.9c-0.5,0.4-1,0.9-1.5,1.4
						c-0.5,0.5-0.9,1-1.3,1.6c0,0,0.1,0,0.1,0c0,0,0,0,0.1,0c0.1-0.1,0.2-0.3,0.4-0.4C24,11.8,24.1,11.6,24.2,11.5z M24.2,11.5
						c-0.3,0.3-0.5,0.6-0.5,0.9c0,0,0.1,0,0.1,0c0,0,0,0,0.1,0c0.1-0.2,0.2-0.3,0.3-0.4c0.1-0.1,0.3-0.3,0.4-0.5c0,0-0.1,0-0.1,0
						c0,0-0.1,0-0.1,0C24.3,11.5,24.3,11.5,24.2,11.5z M25.3,8.8c0.2-0.1,0.4-0.3,0.5-0.5c0,0-0.1-0.1-0.2-0.1
						C25.4,8.2,25.3,8.4,25.3,8.8z M25.4,22C25.4,22,25.5,22,25.4,22c0.1-0.1,0.1-0.1,0.1-0.1c0.1,0.1,0.2,0.2,0.2,0.3
						c0,0.1,0.1,0.2,0.2,0.3C25.8,22.4,25.6,22.3,25.4,22z M25.4,22c0.2,0.2,0.4,0.4,0.5,0.5c-0.1-0.1-0.2-0.2-0.2-0.3
						c0-0.1-0.1-0.2-0.2-0.3C25.5,22,25.5,22,25.4,22C25.5,22,25.4,22,25.4,22z M26.1,9.3C26.4,9,26.7,8.7,27,8.4
						c0.3-0.3,0.6-0.6,0.9-0.8l-0.1-0.1c-0.4,0.2-0.7,0.5-0.9,0.9C26.7,8.8,26.4,9.1,26.1,9.3z M28.8,7.8c0,0-0.2,0.1-0.4,0.3
						c-0.2,0.2-0.4,0.4-0.7,0.6c-0.2,0.2-0.4,0.5-0.7,0.7c-0.2,0.2-0.4,0.4-0.4,0.5c0.4-0.4,0.7-0.7,1.1-1
						C28.1,8.5,28.4,8.2,28.8,7.8z M28.8,7.8c-0.4,0.4-0.7,0.7-1.1,1c-0.4,0.3-0.7,0.7-1.1,1c0-0.1,0.2-0.3,0.4-0.5
						c0.2-0.2,0.4-0.5,0.7-0.7c0.2-0.2,0.4-0.4,0.7-0.6C28.6,7.9,28.8,7.8,28.8,7.8z M26.9,22.8c0.2,0.3,0.4,0.5,0.5,0.6
						c0.2,0.1,0.4,0.3,0.6,0.5c0,0,0.1-0.1,0.1-0.1c-0.2-0.1-0.4-0.3-0.6-0.5C27.3,23.1,27.1,23,26.9,22.8z M29.2,26.1
						c-0.2-0.2-0.3-0.4-0.4-0.5c-0.1-0.1-0.4-0.3-0.9-0.4c0.2,0.1,0.4,0.3,0.6,0.5C28.7,25.8,28.9,26,29.2,26.1L29.2,26.1z
						 M32.7,28.9c0.1,0,0.2,0.1,0.3,0.1H33c0,0,0.1,0,0.1,0c0,0,0.1,0,0.2,0c-0.4-0.3-0.7-0.5-1-0.8c-0.3-0.3-0.7-0.5-1-0.7
						c0,0.2,0.2,0.4,0.5,0.7c0.4,0.3,0.6,0.4,0.9,0.5l-0.1,0.1C32.5,28.8,32.6,28.9,32.7,28.9z M32.5,28.7
						C32.6,28.7,32.6,28.6,32.5,28.7c-0.9-0.6-1.3-1-1.3-1.3c0.4,0.2,0.7,0.5,1,0.7c0.3,0.3,0.7,0.5,1,0.8c-0.1,0-0.1,0-0.2,0
						c0,0-0.1,0-0.1,0h-0.1c-0.1,0-0.2-0.1-0.3-0.1C32.6,28.9,32.5,28.8,32.5,28.7z M31.2,6c0.2,0,0.4,0,0.5-0.1
						c-0.2,0.2-0.3,0.3-0.3,0.3C31.3,6.2,31.2,6.1,31.2,6z M32.4,27.5c0,0-0.1,0.1-0.1,0.1c0-0.2-0.2-0.4-0.5-0.5l0.1-0.1
						C32.1,27.1,32.3,27.2,32.4,27.5z M31.9,26.9L31.9,26.9c0.2,0.2,0.4,0.4,0.4,0.6l0.1-0.1C32.3,27.2,32.1,27.1,31.9,26.9z
						 M33.9,27.5c-0.2-0.2-0.4-0.3-0.6-0.5s-0.3-0.3-0.6-0.4l-0.1,0.1c0.2,0.3,0.4,0.5,0.7,0.7c0.3,0.2,0.4,0.3,0.4,0.3
						C33.9,27.6,33.9,27.6,33.9,27.5z M33.1,7.8c0,0.1,0.1,0.2,0.1,0.3c0,0-0.1,0.1-0.4,0.2C32.9,8.2,33,8.1,33,8
						C33,8,33.1,7.9,33.1,7.8z M33.1,7.8C33.1,7.9,33,8,33,8c0,0.1-0.1,0.1-0.2,0.2c0.3-0.1,0.4-0.2,0.4-0.2
						C33.2,8,33.2,7.9,33.1,7.8z M33.1,4.6C33.1,4.5,33.1,4.5,33.1,4.6c0.1-0.2,0.2-0.3,0.3-0.5c0.1-0.2,0.2-0.3,0.5-0.4l0.1,0.1
						c-0.1,0.1-0.3,0.3-0.4,0.4S33.3,4.5,33.1,4.6z M33.7,24.5c0,0,0.1-0.1,0.1-0.1c0.3,0.1,0.4,0.3,0.4,0.6
						c-0.1-0.1-0.2-0.2-0.2-0.2C33.9,24.7,33.8,24.6,33.7,24.5z M34.1,7.7l0.1,0.1C34.2,8,34.1,8,34,8.1c-0.1,0.1-0.1,0.1-0.2,0.2
						l-0.1-0.1C33.8,8.1,33.9,8,33.9,8C34,7.9,34.1,7.8,34.1,7.7z M34.5,7.4c0.1,0,0.1,0,0.1,0.1c-0.1,0.2-0.1,0.3-0.1,0.4l-0.2-0.2
						C34.3,7.6,34.3,7.5,34.5,7.4z M36,6c-0.1,0.3-0.3,0.5-0.6,0.8s-0.4,0.4-0.6,0.4C35,7,35.2,6.7,35.5,6.4C35.7,6.1,35.9,6,36,6z
						 M35.4,5.7c0.1,0.1,0.1,0.2,0.1,0.3l-0.3,0.2c0,0,0-0.1-0.1-0.1C35.3,6,35.3,5.8,35.4,5.7z M36.7,4.6c0,0-0.1,0.1-0.1,0.1
						c0,0-0.1,0-0.1,0.1l0.2-0.3c0,0,0.1,0.1,0.3,0.2l-0.3,0.3V4.6z M37.1,5.4C37.1,5.4,37.1,5.5,37.1,5.4c-0.1,0.1-0.3,0-0.5-0.1
						c0.1,0,0.1-0.1,0.1-0.1c0,0,0-0.1,0.1-0.1C36.8,5.2,37,5.3,37.1,5.4z M36.8,7.3l-0.1-0.1C37,7,37.2,6.8,37.3,6.7
						c0,0,0,0.1,0,0.1s0,0,0,0.1C37.3,6.9,37.2,7,37.1,7C37,7.1,36.9,7.2,36.8,7.3z M38.6,3.6c0.2-0.2,0.4-0.4,0.6-0.7
						c0.2-0.2,0.4-0.4,0.6-0.7l0.1,0.1c-0.1,0.1-0.3,0.3-0.5,0.6s-0.6,0.6-0.9,0.9c-0.3,0.3-0.6,0.6-0.9,0.8C37.4,4.9,37.2,5,37,5
						H37C37.5,4.5,38,4,38.6,3.6z M38.8,31.7l0.1-0.1c0.1,0.1,0.2,0.2,0.3,0.2c0.1,0.1,0.2,0.1,0.3,0.2l-0.1,0.1
						c-0.1-0.1-0.2-0.2-0.3-0.2C39,31.9,38.9,31.8,38.8,31.7z M42.2,0.2c0.1-0.2,0.3-0.5,0.7-0.8c0.4-0.3,0.6-0.5,0.8-0.6
						c-0.3,0.3-0.5,0.5-0.8,0.7C42.6-0.2,42.4,0,42.2,0.2z M43,1.1c0,0.3-0.2,0.5-0.5,0.5C42.6,1.5,42.8,1.3,43,1.1z M43.9,0.2
						c0,0.1-0.1,0.2-0.1,0.3c0,0.1-0.1,0.2-0.3,0.2h-0.1c0.1-0.1,0.2-0.2,0.3-0.2C43.7,0.3,43.8,0.3,43.9,0.2z M45.7-1.4
						c-0.2,0.2-0.4,0.4-0.5,0.5c-0.2,0.2-0.4,0.4-0.5,0.6c0-0.2,0.1-0.4,0.4-0.7C45.3-1.2,45.5-1.4,45.7-1.4z"/>
					<path fill="#A48A46" d="M64.8,24.7c0.9,0.1,1.7,0.2,2.5,0.4c0.8,0.2,1.6,0.4,2.5,0.6c0.2,0,0.4,0,0.6-0.1
						c-0.4-0.1-1-0.3-1.9-0.5c-0.9-0.2-1.9-0.4-2.9-0.7c-1-0.2-1.9-0.5-2.6-0.7c-0.8-0.2-1.1-0.4-1.1-0.5c0-0.3,0.2-0.5,0.6-0.5
						c0.4,0,0.9,0.2,1.6,0.3c0.6,0.2,1.3,0.4,2,0.6c0.7,0.2,1.3,0.4,2,0.5c0.6,0.1,1.1,0.2,1.5,0.2c0.2,0,0.4,0,0.7,0
						c0.2,0,0.4,0,0.7,0c0.4,0,0.7,0.2,1.1,0.3c0.4,0.2,0.8,0.4,1.3,0.6c0.4,0.2,0.9,0.4,1.5,0.6c0.6,0.2,1.2,0.3,1.8,0.3
						c0.2,0,0.4-0.1,0.7-0.1c0.1,0,0.4,0,0.7,0.1c0.4,0,0.7,0.1,1.1,0.2c0.4,0.1,0.8,0.2,1.1,0.3c0.4,0.1,0.6,0.3,0.7,0.4
						c-0.3,0.2-0.6,0.3-0.9,0.3c-0.6,0-1.3-0.1-2.1-0.3c-0.8-0.2-1.5-0.4-2.3-0.6c-0.8-0.2-1.5-0.4-2.3-0.5
						c-0.8-0.2-1.5-0.2-2.1-0.2c-0.1,0-0.1,0-0.2,0s-0.1,0-0.2,0c0.3,0.2,0.6,0.4,0.9,0.4c0.3,0.1,0.6,0.1,0.9,0.2
						c0.3,0,0.6,0.1,0.9,0.2c0.3,0.1,0.6,0.2,0.9,0.4c-0.7-0.1-1.4-0.2-2.1-0.4c-0.7-0.2-1.4-0.3-2.1-0.4c0,0.1,0,0.2-0.1,0.2
						c1.7,0.6,3.5,1,5.4,1.2c1.9,0.2,3.7,0.5,5.4,0.8c0.1,0,0.2,0.1,0.3,0.1c0.2,0,0.5-0.1,0.7-0.4s0.5-0.5,0.8-0.9
						c0.3-0.4,0.6-0.7,0.8-1.1c0.3-0.4,0.5-0.7,0.7-0.9c0.5-0.5,1-1,1.6-1.4c0.6-0.4,1-0.9,1.3-1.4c-0.7-0.4-1.4-0.6-2.1-0.7
						c-0.7-0.1-1.4-0.2-2.1-0.3c-0.7,0-1.4-0.1-2-0.1S80,21.2,79.3,21c-1.7-0.1-3.4-0.4-5.2-1c-1.8-0.6-3.5-0.9-5.2-1.2
						c-0.3,0-0.6,0-1-0.1c-0.4-0.1-0.9-0.2-1.4-0.3c-0.5-0.1-1-0.2-1.5-0.4c-0.5-0.1-0.9-0.2-1.3-0.3c-1-0.1-2.1-0.3-3.1-0.5
						c-1-0.2-2.1-0.3-3.2-0.4c-0.4,0-0.7,0-0.9-0.1c-0.2-0.1-0.3-0.4-0.4-0.8c-0.5-2-0.9-4.1-1.3-6.2c-0.4-2.1-0.8-4.2-1.2-6.3
						c-0.1-0.3-0.1-0.6-0.1-0.8c0-0.2,0-0.5-0.1-0.7c0-0.4,0.2-0.5,0.5-0.5c1.2,0,2.3,0.1,3.2,0.4c0.9,0.3,1.8,0.6,2.5,0.9
						c0.8,0.3,1.5,0.7,2.2,1c0.7,0.3,1.4,0.6,2.1,0.7C64.5,4.5,65,4.7,65.4,5s0.9,0.4,1.4,0.4h0.3c0.5,0.4,1.2,0.7,2.1,1
						c0.9,0.3,1.6,0.6,2.3,0.9c0.4,0.1,0.9,0.3,1.3,0.5c0.4,0.2,0.8,0.3,1.2,0.4c0.4,0.1,0.8,0.2,1.3,0.3c0.4,0.1,0.8,0.4,1.1,0.9
						c0.1,0.1,0.2,0.2,0.4,0.3c0.2,0.1,0.4,0.1,0.6,0.1h0.3c0.6,0,1.1,0.2,1.5,0.5c0.4,0.4,0.7,0.5,1,0.5c0.1,0,0.2,0,0.3-0.1
						c0.2,0.1,0.4,0.2,0.6,0.2c0.2,0,0.4,0.1,0.5,0.1c0.3,0,0.8-0.3,1.4-0.9c0.6-0.6,1.3-1.3,2-2c0.7-0.8,1.4-1.5,2-2.2
						c0.6-0.7,1.1-1.2,1.4-1.5c-0.4-0.4-0.9-0.6-1.6-0.7c-0.7-0.1-1-0.1-1.1-0.1c-1.1,0-2.2-0.1-3.3-0.4c-1.1-0.3-2.2-0.6-3.3-1
						c-1.1-0.4-2.2-0.8-3.3-1.3c-1.1-0.4-2.2-0.8-3.2-1.1C69.7-1.2,66.8-2.1,64-3c-2.8-0.9-5.8-1.3-8.9-1.3c-0.7,0-1.3,0.2-1.9,0.5
						c-0.6,0.3-1,0.8-1.5,1.3S51-1.4,50.6-0.7c-0.3,0.6-0.6,1.3-0.9,1.9c-0.7,0.7-1.1,1.5-1.2,2.3c0,0.4,0.1,0.7,0.2,0.9
						C48.9,4.7,49,4.9,49.1,5c0.1,0.7,0.2,1.6,0.4,2.7c0.2,1.2,0.4,2.4,0.7,3.7s0.5,2.6,0.8,4c0.3,1.3,0.6,2.6,0.9,3.6
						c0.3,1.1,0.6,2,0.9,2.7c0.3,0.7,0.5,1,0.8,1c0.3,0,0.5,0.5,0.7,1.4c0.2,1,0.4,2,0.5,3.1c0.2,1.1,0.3,2.2,0.3,3.1
						c0.1,0.9,0.1,1.3,0.1,1.2c0,0.6,0,1.1-0.1,1.5c-0.1,0.4-0.3,0.9-0.5,1.4c0,0.1-0.1,0.2-0.1,0.4c0,0.2,0.2,0.4,0.7,0.6
						c0.5,0.2,1,0.3,1.7,0.4c0.6,0.1,1.3,0.2,1.9,0.2c0.6,0,1,0.1,1.3,0.1c0.9,0.1,1.8,0.2,2.6,0.4c0.8,0.2,1.5,0.3,2,0.3
						c0.2,0,0.3,0,0.5-0.1c0.2-0.1,0.3-0.1,0.4-0.1c0.5,0,1,0.1,1.5,0.2c0.5,0.1,1,0.2,1.5,0.2c0.3,0,0.6,0,0.9,0c0.3,0,0.6,0,1-0.1
						c1.6,0,3.2,0.1,4.8,0.2c1.6,0.1,3.1,0.2,4.6,0.3c0.7,0,1.4,0,2.1-0.1c0.7,0,1.4-0.1,2.1-0.1c1.5,0,3.1,0,4.9,0
						c1.8,0,3.5,0,5.1,0c0.8,0,1.3-0.2,1.7-0.6c0.4-0.4,0.8-0.8,1.5-1.3c-0.4-0.4-0.8-0.7-1.2-0.9c-0.4-0.3-0.9-0.4-1.4-0.4
						c-0.6,0-1.2,0-1.8,0.1c-0.6,0.1-1.2,0.1-1.7,0.1c-3-0.1-6-0.2-9-0.3c-3-0.1-5.9-0.2-8.7-0.5c-2.4,0-4.8-0.1-7.1-0.3
						c-2.3-0.2-4.6-0.6-6.9-1.2c-0.4-0.1-0.6-0.2-0.7-0.3c-0.1-0.1-0.1-0.4-0.1-0.8c0-0.4,0-0.9,0.1-1.4c0-0.5,0.1-0.9,0.1-1.4
						c0-0.8-0.1-1.6-0.3-2.4c-0.2-0.8-0.3-1.5-0.3-2.1c0-0.4,0.2-0.5,0.5-0.5c0.1,0,0.2,0,0.3,0.1c1,0.2,2,0.5,3,0.7
						C62.8,24.3,63.8,24.5,64.8,24.7z M58.2,22.8c0.1,0,0.1-0.2,0.1-0.3c0.2,0,0.5,0.1,0.8,0.1c0.3,0,0.6,0,0.9,0
						c0.3,0,0.5,0.1,0.8,0.2c0.2,0.1,0.3,0.3,0.3,0.6c-0.5,0-1.1-0.1-1.6-0.1C59,23.1,58.6,23,58.2,22.8z M70.6,5.7
						c0.1,0.1,0.2,0.2,0.2,0.2C70.9,6,71,6.1,71.1,6.2c-0.3,0-0.5-0.1-0.7-0.1c-0.2,0-0.4-0.2-0.6-0.5c0.2,0,0.4,0.1,0.6,0.1
						C70.5,5.7,70.6,5.7,70.6,5.7c-1.9-0.7-3.8-1.5-5.8-2.3c-2-0.8-4-1.5-6-1.9c0.2-0.2,0.4-0.3,0.7-0.3c0.5,0,0.9,0.1,1.3,0.4
						C61.2,1.8,61.6,2,62.1,2h0.5c0.4,0.2,0.6,0.4,0.9,0.4c0.8,0,1.5,0.2,2.1,0.6c0.6,0.4,1.3,0.6,2,0.7c1.1,0.4,2.1,0.8,3,1.2
						c0.9,0.4,1.8,0.7,2.7,1.1c0.4,0.2,1,0.4,1.7,0.5c0.7,0.2,1.4,0.4,2.2,0.6c0.7,0.2,1.4,0.5,2.1,0.7c0.6,0.2,1.1,0.5,1.5,0.9
						c-0.8,0-1.6-0.2-2.5-0.5c-0.9-0.3-1.7-0.6-2.3-0.8c-0.2,0-0.4,0.1-0.5,0.2c-0.1,0.1-0.2,0.2-0.4,0.2c-0.2,0-0.4-0.1-0.6-0.2
						c-0.2-0.1-0.5-0.2-0.8-0.4h1.5c-0.6-0.3-1.4-0.7-2.2-1S71.3,5.7,70.6,5.7z M63.2,3.3v0.1c-0.1,0-0.2,0-0.4,0
						c-0.2,0-0.3-0.1-0.4-0.2c0-0.1,0-0.1,0.1-0.1c0.1,0,0.3,0,0.4,0.1C63.1,3.2,63.1,3.2,63.2,3.3z M63.9,3.7c0.1,0,0.2,0,0.2,0
						c0.1,0,0.1,0,0.2,0c0.2,0,0.5,0.2,0.8,0.5C65,4,64.7,4,64.5,3.9C64.3,3.9,64.1,3.8,63.9,3.7z M66.7,4.8V4.7c0,0,0-0.1,0.1-0.1
						c0.1,0,0.2,0,0.3,0s0.2,0.1,0.2,0.2c-0.1,0-0.2,0-0.3,0C66.8,4.8,66.7,4.8,66.7,4.8z M68.6,5.3c0,0-0.1,0-0.1,0
						c0,0-0.1,0-0.1,0c-0.2,0-0.4-0.2-0.4-0.5c0.1,0.1,0.3,0.2,0.4,0.2C68.4,5.2,68.5,5.2,68.6,5.3z M72.5,6.8l0.1-0.1
						c0.1,0,0.2,0.1,0.3,0.1c0.1,0,0.2,0.1,0.3,0.2c-0.1,0-0.3-0.1-0.4-0.1C72.7,6.8,72.6,6.8,72.5,6.8z"/>
					<path fill="#A48A46" d="M94.7,40.4h0.2c0.1,0,0.2-0.1,0.3-0.2c0.1-0.1,0.2-0.2,0.3-0.3c0.1,0,0.1,0.1,0.1,0.4
						c0,0.3,0,0.5,0,0.7c0.3,0.1,0.6,0.2,0.9,0.2c0.3,0,0.5,0.1,0.8,0.2c3.7-4,7.6-8.2,11.5-12.6c3.9-4.4,7.6-8.9,11.1-13.5
						c0.3-0.3,0.5-0.5,0.8-0.8c0.2-0.3,0.6-0.4,1-0.5c0.4,0.9,0.5,1.8,0.6,2.9c0,1,0.2,2,0.6,3c0.1,0.3,0.1,0.5,0.1,0.7
						c0,0.1,0,0.3,0,0.4c0,0.1,0,0.3,0,0.4c0,0.4,0,0.7,0.1,0.9c0.1,0.2,0.1,0.5,0.1,0.8c0,0.1,0,0.3-0.1,0.5c0,0.2-0.1,0.4-0.1,0.6
						c0,0.9,0.1,2,0.3,3.1c0.2,1.1,0.3,2.1,0.3,2.8c0,0.1-0.1,0.3-0.2,0.4s-0.2,0.3-0.2,0.4c0,0,0,0.1,0.1,0.1h0.1
						c0,0.1,0.1,0.2,0.1,0.4c0,0.1-0.1,0.3-0.2,0.4s-0.2,0.3-0.2,0.5c0,0.5,0,1,0.1,1.4c0.1,0.5,0.1,0.9,0.1,1.4c0,0.5,0,1-0.1,1.5
						c-0.1,0.5-0.1,1-0.1,1.5c0,0.4,0.2,0.7,0.5,0.7c0.2,0,0.5,0,0.8-0.1c0.3-0.1,0.6-0.1,0.9-0.2c0.3-0.1,0.5-0.2,0.8-0.2
						c0.2-0.1,0.3-0.1,0.3-0.1c0.8,0,1.5-0.1,2.2-0.3c0.7-0.2,1.4-0.3,2.2-0.3h0.1c0.1,0,0.4,0,0.8-0.1c0.5,0,1-0.1,1.5-0.2
						c0.5-0.1,1-0.2,1.4-0.3s0.6-0.3,0.6-0.5c0-2-0.1-4-0.3-6.1c-0.2-2.1-0.4-4.1-0.7-6.2c-0.3-2.1-0.6-4.2-0.8-6.3
						c-0.3-2.1-0.5-4.2-0.6-6.2c-0.2-2.2-0.4-4.4-0.7-6.7c-0.2-2.2-0.5-4.5-0.8-6.9c-0.1-0.8-0.5-1.1-1.2-1.1
						c-0.4,0-0.9,0.1-1.5,0.2s-1,0.2-1.3,0.2h-0.6c-0.2,0-0.4,0.1-0.5,0.2s-0.3,0.2-0.5,0.2c-0.4,0-0.7,0-1.1,0
						c-0.4,0-0.7-0.1-1.1-0.1c-0.6,0-1.2,0-1.9,0.1c-0.6,0-1,0.5-1.3,1.3c-0.1,0.3-0.2,0.7-0.2,1.1c0,0.4-0.1,0.8-0.1,1.3
						c0,0.4-0.1,0.8-0.2,1.1c-0.1,0.3-0.2,0.6-0.4,0.7c-0.2,0.1-0.4,0.3-0.5,0.6s-0.3,0.5-0.4,0.7c-0.1,0.2-0.2,0.4-0.4,0.5
						c-0.1,0.2-0.3,0.2-0.5,0.2c-0.2,0-0.5,0.1-0.7,0.3c-0.3,0.2-0.4,0.4-0.4,0.7c0,0.1,0,0.2,0.1,0.2c0,0.1,0.1,0.1,0.1,0.2
						c0,0.2-0.2,0.4-0.6,0.5c-0.4,0.1-0.7,0.2-0.9,0.3c0,0.2,0,0.3,0,0.4c0,0.1,0,0.2,0,0.5c-0.3,0.4-0.6,0.8-0.9,1.1
						c-0.2,0.3-0.4,0.6-0.6,0.8c-0.2,0.2-0.3,0.4-0.4,0.5c-0.3,0.3-0.6,0.7-1,1.3c-0.4,0.6-0.6,1-0.6,1.4v0.4c-0.3,0-0.6,0.1-1,0.4
						c-0.4,0.3-0.8,0.6-1.1,0.9c-0.4,0.4-0.8,0.7-1.1,1.2c-0.4,0.4-0.7,0.8-1,1.2c-0.7,0.8-1.4,1.5-2.1,2.3
						c-0.7,0.8-1.4,1.6-2.1,2.4c-0.8,0.9-1.5,1.8-2.2,2.7c-0.7,0.9-1.5,1.7-2.3,2.4c-0.4-2.4-0.6-4.7-0.8-7.1
						c-0.2-2.3-0.4-4.7-0.6-7.1c-0.2-2.4-0.4-4.8-0.5-7.2c-0.2-2.4-0.4-4.9-0.7-7.4C96.1-2.9,96-4,95.9-4.7s-0.7-1-1.6-1
						c-0.2,0-0.5,0-0.7,0.1c-0.2,0.1-0.5,0.1-0.8,0.1h-0.3c-0.5,0-1,0.1-1.5,0.3c-0.5,0.2-1,0.3-1.4,0.3c-0.1,0-0.3-0.1-0.6-0.1
						c-0.4,0-0.8,0.1-1.2,0.2c-0.4,0.1-0.8,0.2-1.2,0.3c-0.1,0-0.2,0-0.3,0c-0.1,0-0.2,0-0.3,0c-0.4,0-0.7,0.1-1.1,0.3
						c-0.4,0.2-0.8,0.3-1.3,0.4c0,0.9,0.1,1.9,0.3,2.9c0.2,1,0.6,2,1,2.9c0.1,0.2,0.1,0.3,0.1,0.3c0,0-0.1,0.2-0.4,0.5
						c0.1,0,0.3,0.1,0.4,0.1s0.2,0.1,0.2,0.4c-0.1,0.1-0.2,0.3-0.2,0.5c0,0.2,0.1,0.3,0.2,0.5c0.2,0.3,0.3,0.7,0.4,1.2
						c0.1,0.6,0.1,1.1,0.2,1.7c0.1,0.6,0.1,1.1,0.2,1.5c0,0.4,0.1,0.7,0.2,0.7c0-0.2,0-0.3,0.1-0.5c0.1-0.2,0.3-0.5,0.5-1.1
						c0.2,0.2,0.2,0.5,0.2,0.7c0,0.2,0,0.5,0.1,0.7c0-0.2,0.1-0.4,0.3-0.5c0.2,0.3,0.3,0.6,0.3,1c0,0.4,0,0.7,0.1,1.1
						c0-0.1,0-0.2,0.1-0.3c0.1-0.1,0.1-0.3,0.1-0.5c0.2,0.4,0.3,0.7,0.3,1.1c0,0.4,0,0.8,0.3,1.3c0.2-0.3,0.2-0.5,0.2-0.8
						c0-0.3,0-0.5,0.1-0.7c0,0.7,0.1,1.4,0.2,2.1c0.1,0.7,0.2,1.4,0.3,2c0-0.1,0.1-0.2,0.3-0.3c0.1-0.1,0.2-0.2,0.2-0.3v-0.3
						c0-0.2,0.2-0.5,0.5-0.8c-0.1-0.1-0.2-0.2-0.2-0.2c-0.1-0.1-0.1-0.2-0.2-0.3c0.3-0.1,0.5-0.4,0.5-0.7c0-0.2,0-0.5-0.1-0.7
						c0-0.3-0.1-0.5-0.1-0.8c0-0.4,0-0.7,0-1c0-0.3,0-0.6,0-1c0-0.3,0-0.6-0.1-0.9c-0.1-0.3-0.1-0.6-0.2-0.9c0,0,0-0.1,0.1-0.2
						c0.1-0.1,0.1-0.1,0.1-0.2c0.2,0.2,0.4,0.6,0.5,1.3c0.1,0.6,0.2,1.3,0.2,2c0,0.7,0.1,1.4,0.1,2c0,0.6,0,1.1,0.1,1.4
						c0,0.1,0,0.3,0.1,0.4c0.1,0.2,0.1,0.3,0.2,0.4c-0.2,0.1-0.3,0.3-0.3,0.5c0,0.3,0.2,0.5,0.7,0.8c0,0.2-0.1,0.5-0.3,0.8
						c-0.2,0.3-0.3,0.5-0.3,0.8c0,0.3,0.1,0.6,0.3,0.7c0.2,0.2,0.3,0.3,0.3,0.4c0,0.1-0.1,0.2-0.2,0.4c-0.1,0.2-0.2,0.4-0.2,0.5
						c0,0.1,0,0.2,0.1,0.3c0.1-0.1,0.1-0.2,0.1-0.2c0-0.1,0-0.1,0.1-0.2c0.1,0.1,0.2,0.3,0.3,0.5c0,0.2,0.1,0.4,0.1,0.7
						c0,0.2,0,0.4,0,0.6c0,0.2,0.1,0.3,0.2,0.3c0.1,0.1,0.2,0.2,0.3,0.3c0.1,0.1,0.2,0.2,0.2,0.3c-0.1,0.2-0.2,0.3-0.2,0.5
						c0,0.1-0.1,0.3-0.1,0.4c0.2,0,0.4,0.3,0.5,0.7c0.1,0.4,0.2,1,0.3,1.5c0.1,0.6,0.1,1.1,0.2,1.7c0,0.6,0,0.9,0,1.2
						c0,0.2,0.1,0.5,0.1,0.7c0,0.3,0.1,0.5,0.1,0.7c0,0.2,0,0.3-0.1,0.5c0,0.2-0.1,0.3-0.1,0.5c0,0.4,0,0.7,0.1,1.1
						c0.1,0.4,0.1,0.7,0.1,1.1c0,0.3,0,0.5-0.1,0.8c0,0.3-0.2,0.5-0.4,0.8c0.2,0.1,0.5,0.2,0.7,0.3c0.2,0.1,0.4,0.3,0.4,0.7
						c-0.2,0.2-0.4,0.5-0.6,0.7c-0.2,0.2-0.4,0.5-0.5,0.8c0.3,0.5,0.7,1.1,1.1,1.7c-0.1,0.1-0.2,0.3-0.3,0.6l0.4,0.4
						c0,0-0.1,0-0.1,0.1V39c0,0.1,0.1,0.2,0.2,0.3c0.1,0,0.3,0.1,0.4,0.2c-0.1,0.2-0.2,0.3-0.2,0.5C94.8,40.2,94.8,40.3,94.7,40.4z
						 M88.2,8.8C88.2,8.8,88.3,8.8,88.2,8.8C88.3,9,88.3,9,88.3,9.1C88.2,9.1,88.2,9,88.2,8.8z M90.4,5.8c-0.1,0-0.2-0.1-0.2-0.4
						c-0.1-0.2-0.1-0.4-0.1-0.6c0-0.2,0.1-0.4,0.3-0.6c0,0.3,0.1,0.5,0.1,0.8S90.4,5.6,90.4,5.8z M92.7,20.4
						C92.7,20.4,92.7,20.5,92.7,20.4c-0.2-0.1-0.3-0.2-0.3-0.2c0,0,0-0.1,0-0.1c0,0,0-0.1,0-0.2C92.7,20,92.7,20.1,92.7,20.4z
						 M103.4,22c0,0,0,0.1,0,0.1c0,0,0,0.1,0,0.1c0,0,0,0.1,0.1,0.1c0,0,0.1-0.1,0.1-0.1c0,0,0-0.1,0.1-0.1
						C103.5,22,103.4,22,103.4,22C103.4,22,103.4,22,103.4,22z"/>
				</g>
				<g>
					<path fill="#A48A46" d="M-36.8,33.7c0.1,0.1,0.2,0.2,0.2,0.2c0.1,0,0.1,0.1,0.2,0.2l-0.1,0.1c0-0.1-0.1-0.2-0.2-0.2
						S-36.8,33.8-36.8,33.7C-36.8,33.7-36.8,33.7-36.8,33.7z"/>
					<path fill="#A48A46" d="M-30.1,36.9l-1.7,0.8c-0.1-0.1-0.2-0.2-0.3-0.2l3.7-5.7L-30.1,36.9z"/>
					<path fill="#A48A46" d="M3.1,7c0.2,0.5,0.5,1,0.7,1.5c-0.2-0.3-0.3-0.6-0.5-1C3.3,7.4,3.2,7.2,3.1,7z"/>
					<path fill="#A48A46" d="M-33.8,35.9c-0.1-0.1-0.2-0.2-0.4-0.3c0,0,0-0.1,0-0.1c0,0,0,0,0-0.1c0.1,0.1,0.3,0.2,0.4,0.3
						c0.1,0.1,0.2,0.2,0.4,0.3l-0.1,0.1C-33.6,36.1-33.7,36-33.8,35.9z"/>
					<path fill="#A48A46" d="M-2.2,0.2C-3.1-0.6-4-1.3-5-1.9c-1-0.6-2-1.2-3-1.6c-1-0.4-2.2-0.7-3.5-0.9c-0.7-0.2-1.4-0.4-2.1-0.4
						c-0.6,0-1.3,0-1.9,0.1c-0.6,0.1-1.3,0.2-2,0.4C-18.2-4.2-19-4-19.9-3.8c-0.4-0.2-1-0.3-1.7-0.3c-1.4,0-2.6,0-3.8,0.1
						c-1.2,0-2.4,0.2-3.5,0.4c-0.5,0.1-1,0.2-1.4,0.4c3.5-2,7.6-3.2,11.9-3.2c7.7,0,14.6,3.6,19,9.3c0,0,0,0,0,0
						C-0.4,1.9-1.3,1.1-2.2,0.2z"/>
					<path fill="#A48A46" d="M1.6,4.3C2,5,2.5,5.7,2.9,6.5C2.7,6.2,2.5,5.9,2.3,5.6C2,5.2,1.7,4.8,1.6,4.3z"/>
					<path fill="#A48A46" d="M5.4,16.1c0-0.3,0-0.5,0.1-0.7c0.1,0.7,0.1,1.5,0.1,2.3c0,0,0,0.1,0,0.1c0-0.1,0-0.1,0-0.2
						C5.5,17,5.4,16.5,5.4,16.1z"/>
					<path fill="#A48A46" d="M5.4,14.6c0,0.1,0,0.2,0,0.2c0,0-0.1,0-0.1,0C5.4,14.7,5.4,14.7,5.4,14.6z"/>
				</g>
				<path fill="#A48A46" d="M1.4,26.2l-2.7-1.3L-11.7,22l-6.7-5l2.3,1.7l-2.3-1.3l-2.8,0.4l-1.3,5l-4.5,4.6l-0.7,2
					c0.2,0.1,0.3,0.3,0.5,0.4l-1.2,1.9l-3.7,5.7l-0.5,0.7c-0.6-0.5-1.1-1.1-1.7-1.6c-0.8-0.8-1.6-1.6-2.4-2.3
					c-0.8-0.7-1.4-1.5-2-2.1c-0.2-0.1-0.3-0.3-0.3-0.5c0,0,0-0.1,0-0.1c0,0,0-0.1,0-0.1c0-0.1-0.1-0.4-0.3-0.7
					c-0.2-0.3-0.4-0.6-0.7-1c-0.3-0.3-0.5-0.7-0.8-1c-0.2-0.3-0.4-0.6-0.5-0.7c0.2,0.1,0.3,0.2,0.4,0.2c0.1,0,0.2,0.1,0.4,0.1
					c0,0,0.1,0,0.1,0c0,0,0,0,0.1,0c-0.4-0.7-0.8-1.4-1.2-2.1c-0.4-0.7-0.6-1.5-0.8-2.3c0.3,0.3,0.5,0.6,0.7,0.9
					c0,0.1,0.1,0.1,0.2,0.2c-0.7-2.3-1.1-4.8-1.1-7.3c0-0.2,0-0.4,0-0.6c0-0.2-0.1-0.4-0.1-0.6c-0.2-1.2-0.4-2.3-0.4-3.4
					c0-1.6,0.3-3,0.8-4.2c0.5-1.2,1-2.3,1.4-3.3c0.5-0.8,0.9-1.6,1.3-2.2c0.4-0.7,0.8-1.2,1.2-1.7c0.4-0.5,0.8-1,1.3-1.4
					c0.5-0.4,1.1-0.8,1.7-1.2c0.8-0.6,1.5-1,2.3-1.4c0.1-0.1,0.1-0.1,0.2-0.2c0.3-0.3,0.5-0.5,0.6-0.7c0,0.2-0.1,0.4-0.1,0.5
					c0,0,0,0.1,0,0.1c0,0,0.1,0,0.1-0.1c0.3-0.1,0.5-0.2,0.8-0.3c0.3-0.3,0.6-0.5,0.9-0.8c0.6-0.5,1.3-0.9,2-1.3
					c-0.2,0.3-0.5,0.6-0.7,0.9c-0.2,0.2-0.4,0.4-0.5,0.7c0.2,0,0.4-0.1,0.6-0.1c0.4-0.3,0.7-0.5,1.1-0.8c0.5-0.4,1-0.7,1.5-0.8
					c0.2,0,0.3,0,0.4,0c-0.1,0.1-0.1,0.3-0.2,0.5c0,0,0,0.1,0,0.1c0,0,0,0,0,0.1c0.3-0.3,0.5-0.5,0.7-0.7c0.2-0.2,0.5-0.4,0.7-0.7
					c0,0.1,0.1,0.1,0.1,0.1c-0.1,0.1-0.1,0.1-0.1,0.2c0,0-0.1,0.1-0.1,0.2c0.1,0,0.2,0,0.3,0c1-0.4,2-0.9,3.1-1.4
					c1.1-0.5,2.2-0.9,3.2-1.1c1.6-0.3,3-0.4,4.3-0.1c1.2,0.3,2.4,0.5,3.5,0.6C-9.5-7.1-8.7-6.9-8-6.6C-7.2-6.4-6.6-6.1-6-5.9
					c0.6,0.3,1.1,0.6,1.6,1c0.5,0.4,1,0.9,1.5,1.4c1,0.9,1.8,1.7,2.4,2.7c0.6,0.9,1.2,1.9,1.7,3c0.5,1.1,0.8,2.2,1.1,3.3
					c0,0.1,0.1,0.3,0.1,0.4c0.1,0.2,0.2,0.4,0.4,0.6C3,6.7,3,6.8,3.1,7c0.1,0.2,0.1,0.3,0.2,0.5c0.1,0.4,0.3,0.7,0.5,1
					C4,8.8,4.1,9,4.3,9.2c0.2,0.2,0.3,0.3,0.4,0.3c-0.1,0.4-0.1,0.9,0.1,1.3c0.1,0.5,0.2,0.8,0.3,1.1c0.1,0,0.3,0.1,0.5,0.2
					c-0.1,0.2-0.2,0.4-0.3,0.6c-0.1,0.2-0.1,0.4,0.1,0.6l0.2,0.2C5.9,13.8,6,13.9,5.8,14c-0.1,0.1-0.3,0.3-0.4,0.6
					c0,0.1-0.1,0.1-0.1,0.2c0,0,0.1,0,0.1,0c0.2,0,0.4,0.1,0.6,0.1C6,15,5.9,15,5.8,15c0,0-0.1,0-0.1,0.1c-0.1,0.1-0.2,0.2-0.2,0.3
					c-0.1,0.2-0.1,0.4-0.1,0.7c0,0.4,0.1,0.9,0.2,1.4c0,0.1,0,0.1,0,0.2c0.1,0.5,0.2,1,0.3,1.5c0.1,0.6,0.1,1.2,0,1.8
					c-0.2,0.6-0.3,1.2-0.2,1.8c0,0.6-0.1,1.2-0.3,1.7c-0.2,0.3-0.3,0.7-0.4,1.1c0,0.4-0.1,0.8-0.2,1.3c-0.1,0-0.2,0-0.3,0.1
					 M1.8,21.4c0,0.5,0.1,0.9,0.1,1.3C1.8,22.4,1.8,21.9,1.8,21.4z M1.9,23.8c0,0.1,0,0.1,0,0.2C1.9,23.9,1.9,23.9,1.9,23.8z
					 M1.9,22.9c0,0.1,0,0.2,0,0.3C1.9,23,1.9,23,1.9,22.9z M1.9,23.4c0,0.1,0,0.1,0,0.2C1.9,23.5,1.9,23.4,1.9,23.4z M1.9,24.2
					c0,0,0,0.1,0,0.1C1.9,24.3,1.9,24.3,1.9,24.2z M-34,9.9c0,0.1,0,0.2,0,0.2C-34,10-34,9.9-34,9.9z M-34.6,9.6L-34.6,9.6
					L-34.6,9.6L-34.6,9.6z M-37.4,8.6c0,0.2,0,0.3,0,0.5C-37.4,8.9-37.4,8.8-37.4,8.6z M-37.4,9.2c0,0.2,0,0.4,0,0.6
					C-37.4,9.5-37.4,9.3-37.4,9.2z M-4.4,5.8c-0.1-0.1-0.2-0.2-0.3-0.4C-4.6,5.6-4.5,5.7-4.4,5.8z M-0.5,13.9c0,0-0.1-0.1-0.1-0.1
					C-0.6,13.8-0.5,13.8-0.5,13.9z M-0.7,13.7C-0.7,13.7-0.7,13.7-0.7,13.7C-0.7,13.7-0.7,13.7-0.7,13.7z M-2.3,8.9
					c-0.1-0.1-0.1-0.2-0.2-0.3C-2.4,8.7-2.4,8.8-2.3,8.9z M-2.5,8.6c-0.1-0.1-0.1-0.2-0.1-0.3C-2.6,8.4-2.6,8.5-2.5,8.6z M-3.5,19.3
					c-0.1,0-0.2,0-0.3-0.1C-3.7,19.3-3.6,19.3-3.5,19.3z M-3.5,20.8C-3.5,20.8-3.5,20.8-3.5,20.8C-3.5,20.8-3.5,20.8-3.5,20.8z
					 M-2.8,19.5L-2.8,19.5c-0.1,0-0.2,0-0.3-0.1C-3,19.4-2.9,19.4-2.8,19.5z M-3.1,19.4c-0.1,0-0.2,0-0.3-0.1
					C-3.3,19.3-3.2,19.4-3.1,19.4z M-3.5,20.8C-3.5,20.8-3.5,20.8-3.5,20.8C-3.5,20.8-3.5,20.8-3.5,20.8z M-3.5,20.7
					C-3.5,20.7-3.4,20.7-3.5,20.7C-3.4,20.7-3.5,20.7-3.5,20.7z M-1.8,22.8L-1.8,22.8c-0.1,0.3-0.2,0.5-0.3,0.8
					C-2,23.3-1.9,23.1-1.8,22.8z M-3.5,20.9L-3.5,20.9l-0.1-0.1L-3.5,20.9z M-3.9,19.2c-0.1,0-0.3,0-0.4-0.1
					C-4.1,19.2-4,19.2-3.9,19.2z M-33.8,35.9c0.1,0.1,0.2,0.2,0.3,0.3l0.1-0.1c-0.1-0.1-0.3-0.2-0.4-0.3c-0.1-0.1-0.2-0.2-0.4-0.3
					c0,0,0,0.1,0,0.1c0,0,0,0,0,0.1C-34,35.7-33.9,35.8-33.8,35.9z M-36.6,34c0.1,0.1,0.1,0.1,0.2,0.2l0.1-0.1
					c-0.1-0.1-0.2-0.2-0.2-0.2c-0.1,0-0.1-0.1-0.2-0.2c0,0,0,0.1-0.1,0.1C-36.8,33.8-36.7,33.9-36.6,34z"/>
				<path fill="#FFFFFF" d="M-11.5,17.4c0-3.8-3.1-7-7-7s-7,3.1-7,7s3.1,7,7,7S-11.5,21.2-11.5,17.4z"/>
				<g>
					<path fill="#A48A46" d="M-15.6,17.2c0-1.6-1.3-2.8-2.8-2.8c-1.6,0-2.8,1.3-2.8,2.8c0,1.6,1.3,2.8,2.8,2.8
						C-16.9,20-15.6,18.8-15.6,17.2z"/>
				</g>
			</g>
		</g>
	</g>
</symbol>
<g id="Layer_1">
	
		<use xlink:href="#Broken_Records"  width="420" height="420" x="-210" y="-210" transform="matrix(1 0 0 -1 210.0028 210.0028)" overflow="visible"/>
</g>
<g id="Layer_2">
</g>
</svg>
