<?xml version="1.0" encoding="utf-8"?>
<!-- Generator: Adobe Illustrator 18.0.0, SVG Export Plug-In . SVG Version: 6.00 Build 0)  -->
<!DOCTYPE svg PUBLIC "-//W3C//DTD SVG 1.1//EN" "http://www.w3.org/Graphics/SVG/1.1/DTD/svg11.dtd">
<svg version="1.1" xmlns="http://www.w3.org/2000/svg" xmlns:xlink="http://www.w3.org/1999/xlink" x="0px" y="0px"
	 viewBox="0 0 420 420" enable-background="new 0 0 420 420" xml:space="preserve">
<symbol  id="Manny_Logo" viewBox="-210 -210 420 420">
	<polygon fill="#FFFFFF" points="210,-210 -210,-210 -210,210 210,210 	"/>
	<path fill="#4E4E56" d="M44.6,66.5H26.5H15L0,40.8l-15,25.6h-11.5h-18.1l-48-33.9l51.1-54.7l0.1-0.2l0,0.1L0-66.5l0,0.1l0-0.1l0,0
		l0,0l0,0l0,0l0,0.1l0-0.1l41.4,44.3l0-0.1l0.1,0.2l51.1,54.7L44.6,66.5z M0-66.4l-2.4,7.2l-3.6,11l-2.1,6.5l-21.3,65.1L-0.1,2.7v0
		V2.6l0,0v0l0,0l0,0v0l0,0v0.1v0l29.3,20.7L8.1-41.7l-2.1-6.5l-3.6-11L0-66.4z"/>
</symbol>
<g id="Layer_1">
	
		<use xlink:href="#Manny_Logo"  width="420" height="420" x="-210" y="-210" transform="matrix(1 0 0 -1 210.0028 210.0028)" overflow="visible"/>
</g>
<g id="Layer_2">
</g>
</svg>
