<?xml version="1.0" encoding="utf-8"?>
<!-- Generator: Adobe Illustrator 18.0.0, SVG Export Plug-In . SVG Version: 6.00 Build 0)  -->
<!DOCTYPE svg PUBLIC "-//W3C//DTD SVG 1.1//EN" "http://www.w3.org/Graphics/SVG/1.1/DTD/svg11.dtd">
<svg version="1.1" xmlns="http://www.w3.org/2000/svg" xmlns:xlink="http://www.w3.org/1999/xlink" x="0px" y="0px"
	 viewBox="0 0 420 420" enable-background="new 0 0 420 420" xml:space="preserve">
<symbol  id="YTB" viewBox="-210 -210 420 420">
	<polygon fill="#FFFFFF" points="210,-210 -210,-210 -210,210 210,210 	"/>
	<g opacity="0.25">
		<path fill="#72D0EB" d="M155.5-7.8c-3,27-24.5,48-51.4,46.1c-12.4-0.9-24.4-6.2-34.6-8.9c1.6,10.9,5.1,24.4,5.2,38
			c0.2,43.6-37.3,56.2-67.5,45.8c-26.3-9.1-41.4-29.9-48.7-55.2c-7.4-25.6-11.6-52.1-17.1-78.2c-2.4-11.5-4.5-23-6.6-33.9
			c-15.6,1.9-29.8,4-44,5.2c-22.6,1.8-40.6-10-45.6-29.2c-4.4-16.9,6.4-35.4,22.9-37.4c25.7-3.2,48.9,1.8,64.3,31.6
			c3.1,6,5.5,12.4,8.4,18.9c19.4-5.2,38.6-10.4,57.9-15.3C35.8-90,72.6-91,109.7-78.7C134.6-70.6,159-39.9,155.5-7.8z M-127.4-107.8
			c-15.9,2-24.2,16-18.1,31c5,12.3,15.2,19,27.6,19.1c16.4,0.1,32.8-2.6,49.5-4.1C-74.9-94.1-98-111.5-127.4-107.8z M146.9-21.9
			c-3.8-23.9-17.3-40.6-40.8-49c-36.2-13-72.4-10.2-108.7-0.8c-16.8,4.4-33.6,8.9-50.4,13.4c-1.4,0.4-2.7,1.1-4.7,1.9
			c7.3,35.5,13.8,71,22,106c4.5,19.1,14.2,36.1,30.9,48c11.1,7.9,23.2,12.1,37,10.3c24.3-3.2,37.4-22.3,34.5-48.9
			C64.2,35.8,53.5,15.9,42.1-3.8c-0.5-0.9-1-1.7-1.5-2.6c0.3-0.3,0.5-0.6,0.8-0.9c7.1,6.4,13.5,13.6,21.3,18.8
			c9.7,6.6,19.8,13.7,30.8,16.9C128,38.6,151.8,8.6,146.9-21.9z"/>
	</g>
	<text transform="matrix(1 0 0 -1 -127.7637 -113.5522)" fill="#D91D4F" font-family="'BebasNeue'" font-size="40.5">UNDER CONSTRUCTION</text>
</symbol>
<g id="Layer_1">
	
		<use xlink:href="#YTB"  width="420" height="420" x="-210" y="-210" transform="matrix(1 0 0 -1 210.0028 210.0028)" overflow="visible"/>
</g>
<g id="Layer_2">
</g>
</svg>
