<?xml version="1.0" encoding="utf-8"?>
<!-- Generator: Adobe Illustrator 18.0.0, SVG Export Plug-In . SVG Version: 6.00 Build 0)  -->
<!DOCTYPE svg PUBLIC "-//W3C//DTD SVG 1.1//EN" "http://www.w3.org/Graphics/SVG/1.1/DTD/svg11.dtd">
<svg version="1.1" xmlns="http://www.w3.org/2000/svg" xmlns:xlink="http://www.w3.org/1999/xlink" x="0px" y="0px"
	 viewBox="0 0 420 420" enable-background="new 0 0 420 420" xml:space="preserve">
<symbol  id="Advance" viewBox="-210 -210 420 420">
	<polygon fill="#FFFFFF" points="210,-210 -210,-210 -210,210 210,210 	"/>
	<g>
		<polygon opacity="0.25" fill="#00AEEF" points="91.9,-91.9 -91.9,-91.9 -91.9,91.9 91.9,91.9 		"/>
		<g>
			<g>
				<path fill="#FFFFFF" d="M2.7-28.1c6.9,15.9,22.8,57.4,25.4,66c0.6,1.8,1.1,3.4,1.1,4.5c0,1-0.4,2.1-1.5,2.7
					c-1.4,0.5-3.2,0.5-4.5,0.5c-0.7,0-1.3,0.1-1.3,0.7c0,0.7,0.7,1,2.6,1c4.8,0,10.2-0.4,11.6-0.4c0.7,0,5.8,0.4,9.3,0.4
					c1.3,0,2-0.2,2-0.8s-0.5-0.8-1.4-0.8c-0.8,0-3.4,0-5.7-1.4c-1.5-1.1-3.3-3.1-6.5-11.2c-1.3-3.3-7.2-17.6-13.3-32.2
					C13.1-16.6,7.8-29.4,5-35.3c-3.3-7.1-3.8-9-5-9c-1.4,0-2,1.7-4.3,7.4l-29.1,72.9c-2.6,6.7-4.4,8-8.6,9.2
					c-1.8,0.5-3.8,0.5-4.5,0.5c-0.7,0-1,0.4-1,0.8c0,0.7,1.2,0.8,3.1,0.8c5.7,0,12.5-0.4,13.9-0.4c1.2,0,6.5,0.4,11.1,0.4
					c2.1,0,3.2-0.2,3.2-0.8s-0.4-0.8-1.2-0.8c-1.3,0-3.4-0.1-4.5-0.6c-1.3-0.6-1.5-1.5-1.5-2.4c0-1.5,1.4-5.2,3.2-9.9L2.7-28.1z"/>
			</g>
			<g>
				<polygon fill="#FFFFFF" points="-33.2,83.6 -30.6,71.9 -18,72.5 -28.5,66.5 -23.8,54.7 -33.2,61.8 -42.5,54.7 -38.1,66.6 
					-48.3,72.5 -35.7,72 				"/>
				<polygon fill="#FFFFFF" points="0,83.6 2.6,71.9 15.2,72.5 4.7,66.5 9.4,54.7 0,61.8 -9.4,54.7 -5,66.6 -15.2,72.5 -2.6,72 				
					"/>
				<polygon fill="#FFFFFF" points="33.2,83.6 35.7,71.9 48.3,72.5 37.8,66.5 42.5,54.7 33.2,61.8 23.8,54.7 28.2,66.6 18,72.5 
					30.6,72 				"/>
			</g>
			<g>
				<path fill="#FFFFFF" d="M-56.4-79.4h-2.2l7.9,18.1h1.8l7.9-18.1h-2.2l-2,4.8h-9.3L-56.4-79.4z M-53.7-72.9h7.9l-3.9,9.5
					L-53.7-72.9z"/>
				<path fill="#FFFFFF" d="M-38.8-61.2h6c1.1,0,2.3-0.2,3.4-0.6c1.1-0.4,2.2-0.9,3.1-1.7c0.9-0.8,1.7-1.7,2.2-2.8
					c0.6-1.1,0.8-2.5,0.8-4c0-1.5-0.3-2.8-0.8-4s-1.3-2.1-2.2-2.8s-1.9-1.3-3.1-1.7c-1.1-0.4-2.3-0.6-3.4-0.6h-6V-61.2z M-37-77.7
					h3.6c1.4,0,2.6,0.2,3.6,0.6c1,0.4,1.9,1,2.5,1.7s1.2,1.5,1.5,2.4c0.3,0.9,0.5,1.8,0.5,2.7c0,0.9-0.2,1.8-0.5,2.7
					c-0.3,0.9-0.8,1.7-1.5,2.4s-1.5,1.2-2.5,1.7c-1,0.4-2.2,0.6-3.6,0.6H-37V-77.7z"/>
				<path fill="#FFFFFF" d="M-14.3-76.6L-14.3-76.6l6,15.4h2l-7.1-18.1h-1.8l-6.9,18.1h2L-14.3-76.6z"/>
				<path fill="#FFFFFF" d="M-5.6-79.4h-2.2l7.9,18.1h1.8l7.9-18.1H7.6l-2,4.8h-9.3L-5.6-79.4z M-2.9-72.9h7.9L1-63.4L-2.9-72.9z"/>
				<path fill="#FFFFFF" d="M25.4-76.6L25.4-76.6l0.1,15.4h1.8v-18.1h-2.3L14.1-63.9h-0.1v-15.5h-1.8v18.1h2.3L25.4-76.6z"/>
				<path fill="#FFFFFF" d="M47.1-76.5c-0.3-0.5-0.7-0.9-1.1-1.3c-0.5-0.4-1-0.8-1.5-1.1c-0.6-0.3-1.2-0.5-1.9-0.7
					c-0.7-0.2-1.4-0.3-2.1-0.3c-1.3,0-2.6,0.2-3.8,0.7c-1.2,0.5-2.2,1.1-3,2c-0.8,0.8-1.5,1.8-2,3c-0.5,1.2-0.7,2.4-0.7,3.8
					s0.2,2.7,0.7,3.8c0.5,1.2,1.1,2.2,2,3c0.8,0.8,1.8,1.5,3,2c1.2,0.5,2.4,0.7,3.8,0.7c1.1,0,2.3-0.2,3.4-0.7
					c1.1-0.4,2.1-1.2,2.9-2.2L45-64.8c-0.2,0.3-0.4,0.6-0.8,0.9c-0.3,0.3-0.7,0.5-1.1,0.8c-0.4,0.2-0.9,0.4-1.3,0.5
					c-0.5,0.1-1,0.2-1.4,0.2c-1.2,0-2.2-0.2-3.1-0.6c-0.9-0.4-1.7-1-2.3-1.7s-1.1-1.5-1.5-2.5c-0.3-0.9-0.5-1.9-0.5-3
					c0-1,0.2-2,0.5-3c0.3-0.9,0.8-1.8,1.5-2.5c0.6-0.7,1.4-1.3,2.3-1.7c0.9-0.4,2-0.6,3.1-0.6c0.5,0,1,0,1.4,0.1
					c0.5,0.1,0.9,0.2,1.4,0.4c0.5,0.2,0.9,0.5,1.3,0.8s0.8,0.8,1.1,1.3L47.1-76.5z"/>
				<path fill="#FFFFFF" d="M52-77.7h9.7v-1.7H50.2v18.1h11.2v-1.7H52v-6.2h8.8v-1.7H52V-77.7z"/>
			</g>
		</g>
	</g>
	<g>
		<path fill="#D91D4F" d="M-129-94.7v-21.9c0-2,0.9-2.8,2.3-2.8c1.4,0,2.3,0.7,2.3,2.8v21.9h4.2v-21.6c0-4.5-2.3-7.1-6.6-7.1
			c-4.4,0-6.6,2.6-6.6,7.1v21.6H-129z"/>
		<path fill="#D91D4F" d="M-113.1-102.5V-123h-4v28.3h5.6l4.6-17v17h4V-123h-4.6L-113.1-102.5z"/>
		<path fill="#D91D4F" d="M-99.8-94.7h7c4.5,0,6.6-2.5,6.6-7V-116c0-4.5-2.2-7-6.6-7h-7V-94.7z M-95.3-98.7V-119h2.5
			c1.4,0,2.3,0.7,2.3,2.8v14.7c0,2-0.9,2.8-2.3,2.8H-95.3z"/>
		<path fill="#D91D4F" d="M-78.8-106.6h6.1v-4h-6.1v-8.3h7.7v-4h-12.1v28.3h12.1v-4h-7.7V-106.6z"/>
		<path fill="#D91D4F" d="M-59-123c-0.2,0.7-0.4,1.2-0.4,3.5v4.5c0,2.6-0.9,3.6-2.9,3.6h-1.5V-123h-4.5v28.3h6.7
			c4.6,0,6.6-2.1,6.6-6.5v-2.2c0-2.9-0.9-4.8-2.9-5.8c2.2-0.9,3-3.1,3-6v-4.4c0-1.4,0-2.4,0.5-3.4H-59z M-63.9-98.7v-8.7h1.7
			c1.7,0,2.7,0.7,2.7,3v2.8c0,2-0.7,2.9-2.3,2.9H-63.9z"/>
		<path fill="#D91D4F" d="M-32.9-112.5v-3.8c0-4.5-2.3-7.1-6.6-7.1c-4.4,0-6.6,2.6-6.6,7.1v14.7c0,4.5,2.3,7.1,6.6,7.1
			c4.4,0,6.6-2.6,6.6-7.1v-2.8h-4.2v3c0,2-0.9,2.8-2.3,2.8c-1.4,0-2.3-0.8-2.3-2.8v-15.3c0-2,0.9-2.8,2.3-2.8c1.4,0,2.3,0.7,2.3,2.8
			v4H-32.9z"/>
		<path fill="#D91D4F" d="M-30.5-101.5c0,4.5,2.4,7.1,6.8,7.1c4.4,0,6.8-2.6,6.8-7.1v-14.7c0-4.5-2.4-7.1-6.8-7.1
			c-4.4,0-6.8,2.6-6.8,7.1V-101.5z M-26.1-116.5c0-2,0.9-2.8,2.3-2.8c1.4,0,2.3,0.8,2.3,2.8v15.3c0,2-0.9,2.8-2.3,2.8
			c-1.4,0-2.3-0.8-2.3-2.8V-116.5z"/>
		<path fill="#D91D4F" d="M-10.2-102.5V-123h-4v28.3h5.6l4.6-17v17h4V-123h-4.6L-10.2-102.5z"/>
		<path fill="#D91D4F" d="M9.2-94.4c4.3,0,6.6-2.6,6.6-7.1v-0.9h-4.2v1.2c0,2-0.8,2.8-2.2,2.8c-1.4,0-2.2-0.8-2.2-2.8
			c0-5.8,8.7-6.9,8.7-15c0-4.5-2.3-7.1-6.6-7.1c-4.4,0-6.6,2.6-6.6,7.1v1.7h4.2v-2c0-2,0.9-2.8,2.3-2.8c1.4,0,2.3,0.7,2.3,2.8
			c0,5.8-8.7,6.9-8.7,15C2.6-97,4.8-94.4,9.2-94.4z"/>
		<path fill="#D91D4F" d="M17-94.7h13.8v-4h-4.7V-123h-4.5v24.3H17V-94.7z"/>
		<path fill="#D91D4F" d="M42-123c-0.2,0.7-0.4,1.2-0.4,3.5v4.5c0,2.6-0.9,3.6-2.9,3.6h-1.5V-123h-4.5v28.3h6.7
			c4.6,0,6.6-2.1,6.6-6.5v-2.2c0-2.9-0.9-4.8-2.9-5.8c2.2-0.9,3-3.1,3-6v-4.4c0-1.4,0-2.4,0.5-3.4H42z M37.2-98.7v-8.7h1.7
			c1.7,0,2.7,0.7,2.7,3v2.8c0,2-0.7,2.9-2.3,2.9H37.2z"/>
		<path fill="#D91D4F" d="M53.3-94.7v-21.9c0-2,0.9-2.8,2.3-2.8c1.4,0,2.3,0.7,2.3,2.8v21.9h4.2v-21.6c0-4.5-2.3-7.1-6.6-7.1
			c-4.4,0-6.6,2.6-6.6,7.1v21.6H53.3z"/>
		<path fill="#D91D4F" d="M78-112.5v-3.8c0-4.5-2.3-7.1-6.6-7.1c-4.4,0-6.6,2.6-6.6,7.1v14.7c0,4.5,2.3,7.1,6.6,7.1
			c4.4,0,6.6-2.6,6.6-7.1v-2.8h-4.2v3c0,2-0.9,2.8-2.3,2.8c-1.4,0-2.3-0.8-2.3-2.8v-15.3c0-2,0.9-2.8,2.3-2.8c1.4,0,2.3,0.7,2.3,2.8
			v4H78z"/>
		<path fill="#D91D4F" d="M79.5-94.7h13.8v-4h-4.7V-123h-4.5v24.3h-4.7V-94.7z"/>
		<path fill="#D91D4F" d="M95.2-94.7h4.5V-123h-4.5V-94.7z"/>
		<path fill="#D91D4F" d="M102.5-101.5c0,4.5,2.4,7.1,6.8,7.1c4.4,0,6.8-2.6,6.8-7.1v-14.7c0-4.5-2.4-7.1-6.8-7.1
			c-4.4,0-6.8,2.6-6.8,7.1V-101.5z M107-116.5c0-2,0.9-2.8,2.3-2.8c1.4,0,2.3,0.8,2.3,2.8v15.3c0,2-0.9,2.8-2.3,2.8
			c-1.4,0-2.3-0.8-2.3-2.8V-116.5z"/>
		<path fill="#D91D4F" d="M122.9-102.5V-123h-4v28.3h5.6l4.6-17v17h4V-123h-4.6L122.9-102.5z"/>
	</g>
</symbol>
<g id="Layer_1">
	
		<use xlink:href="#Advance"  width="420" height="420" x="-210" y="-210" transform="matrix(1 0 0 -1 210.0028 210.0028)" overflow="visible"/>
</g>
<g id="Layer_2">
</g>
</svg>
