<?xml version="1.0" encoding="utf-8"?>
<!-- Generator: Adobe Illustrator 18.0.0, SVG Export Plug-In . SVG Version: 6.00 Build 0)  -->
<!DOCTYPE svg PUBLIC "-//W3C//DTD SVG 1.1//EN" "http://www.w3.org/Graphics/SVG/1.1/DTD/svg11.dtd">
<svg version="1.1" xmlns="http://www.w3.org/2000/svg" xmlns:xlink="http://www.w3.org/1999/xlink" x="0px" y="0px"
	 viewBox="0 0 420 420" enable-background="new 0 0 420 420" xml:space="preserve">
<symbol  id="Collective" viewBox="-210 -210 420 420">
	<polygon fill="#FFFFFF" points="210,-210 -210,-210 -210,210 210,210 	"/>
	<g opacity="0.25">
		<text transform="matrix(1 0 0 -1 -159.2529 -9.1113)" font-family="'DINBold'" font-size="49.3736" letter-spacing="3">COLLECTIVE</text>
		<text transform="matrix(1 0 0 -1 -40.8096 -29.2441)" font-family="'DIN'" font-size="17.2808">BURGERS</text>
	</g>
	<g>
		<path fill="#D91D4F" d="M-127.5-86.9v-21.9c0-2,0.9-2.8,2.3-2.8c1.4,0,2.3,0.7,2.3,2.8v21.9h4.2v-21.6c0-4.5-2.3-7.1-6.6-7.1
			c-4.4,0-6.6,2.6-6.6,7.1v21.6H-127.5z"/>
		<path fill="#D91D4F" d="M-111.6-94.7v-20.5h-4v28.3h5.6l4.6-17v17h4v-28.3h-4.6L-111.6-94.7z"/>
		<path fill="#D91D4F" d="M-98.3-86.9h7c4.5,0,6.6-2.5,6.6-7v-14.3c0-4.5-2.2-7-6.6-7h-7V-86.9z M-93.8-91v-20.2h2.5
			c1.4,0,2.3,0.7,2.3,2.8v14.7c0,2-0.9,2.8-2.3,2.8H-93.8z"/>
		<path fill="#D91D4F" d="M-77.3-98.9h6.1v-4h-6.1v-8.3h7.7v-4h-12.1v28.3h12.1v-4h-7.7V-98.9z"/>
		<path fill="#D91D4F" d="M-57.5-115.3c-0.2,0.7-0.4,1.2-0.4,3.5v4.5c0,2.6-0.9,3.6-2.9,3.6h-1.5v-11.5h-4.5v28.3h6.7
			c4.6,0,6.6-2.1,6.6-6.5v-2.2c0-2.9-0.9-4.8-2.9-5.8c2.2-0.9,3-3.1,3-6v-4.4c0-1.4,0-2.4,0.5-3.4H-57.5z M-62.4-91v-8.7h1.7
			c1.7,0,2.7,0.7,2.7,3v2.8c0,2-0.7,2.9-2.3,2.9H-62.4z"/>
		<path fill="#D91D4F" d="M-31.4-104.7v-3.8c0-4.5-2.3-7.1-6.6-7.1c-4.4,0-6.6,2.6-6.6,7.1v14.7c0,4.5,2.3,7.1,6.6,7.1
			c4.4,0,6.6-2.6,6.6-7.1v-2.8h-4.2v3c0,2-0.9,2.8-2.3,2.8c-1.4,0-2.3-0.8-2.3-2.8v-15.3c0-2,0.9-2.8,2.3-2.8c1.4,0,2.3,0.7,2.3,2.8
			v4H-31.4z"/>
		<path fill="#D91D4F" d="M-29-93.7c0,4.5,2.4,7.1,6.8,7.1c4.4,0,6.8-2.6,6.8-7.1v-14.7c0-4.5-2.4-7.1-6.8-7.1
			c-4.4,0-6.8,2.6-6.8,7.1V-93.7z M-24.6-108.7c0-2,0.9-2.8,2.3-2.8c1.4,0,2.3,0.8,2.3,2.8v15.3c0,2-0.9,2.8-2.3,2.8
			c-1.4,0-2.3-0.8-2.3-2.8V-108.7z"/>
		<path fill="#D91D4F" d="M-8.7-94.7v-20.5h-4v28.3h5.6l4.6-17v17h4v-28.3h-4.6L-8.7-94.7z"/>
		<path fill="#D91D4F" d="M10.7-86.6c4.3,0,6.6-2.6,6.6-7.1v-0.9H13v1.2c0,2-0.8,2.8-2.2,2.8c-1.4,0-2.2-0.8-2.2-2.8
			c0-5.8,8.7-6.9,8.7-15c0-4.5-2.3-7.1-6.6-7.1c-4.4,0-6.6,2.6-6.6,7.1v1.7h4.2v-2c0-2,0.9-2.8,2.3-2.8c1.4,0,2.3,0.7,2.3,2.8
			c0,5.8-8.7,6.9-8.7,15C4.1-89.2,6.3-86.6,10.7-86.6z"/>
		<path fill="#D91D4F" d="M18.5-86.9h13.8v-4h-4.7v-24.3h-4.5V-91h-4.7V-86.9z"/>
		<path fill="#D91D4F" d="M43.5-115.3c-0.2,0.7-0.4,1.2-0.4,3.5v4.5c0,2.6-0.9,3.6-2.9,3.6h-1.5v-11.5h-4.5v28.3h6.7
			c4.6,0,6.6-2.1,6.6-6.5v-2.2c0-2.9-0.9-4.8-2.9-5.8c2.2-0.9,3-3.1,3-6v-4.4c0-1.4,0-2.4,0.5-3.4H43.5z M38.7-91v-8.7h1.7
			c1.7,0,2.7,0.7,2.7,3v2.8c0,2-0.7,2.9-2.3,2.9H38.7z"/>
		<path fill="#D91D4F" d="M54.8-86.9v-21.9c0-2,0.9-2.8,2.3-2.8c1.4,0,2.3,0.7,2.3,2.8v21.9h4.2v-21.6c0-4.5-2.3-7.1-6.6-7.1
			c-4.4,0-6.6,2.6-6.6,7.1v21.6H54.8z"/>
		<path fill="#D91D4F" d="M79.5-104.7v-3.8c0-4.5-2.3-7.1-6.6-7.1c-4.4,0-6.6,2.6-6.6,7.1v14.7c0,4.5,2.3,7.1,6.6,7.1
			c4.4,0,6.6-2.6,6.6-7.1v-2.8h-4.2v3c0,2-0.9,2.8-2.3,2.8c-1.4,0-2.3-0.8-2.3-2.8v-15.3c0-2,0.9-2.8,2.3-2.8c1.4,0,2.3,0.7,2.3,2.8
			v4H79.5z"/>
		<path fill="#D91D4F" d="M81-86.9h13.8v-4h-4.7v-24.3h-4.5V-91H81V-86.9z"/>
		<path fill="#D91D4F" d="M96.7-86.9h4.5v-28.3h-4.5V-86.9z"/>
		<path fill="#D91D4F" d="M104-93.7c0,4.5,2.4,7.1,6.8,7.1c4.4,0,6.8-2.6,6.8-7.1v-14.7c0-4.5-2.4-7.1-6.8-7.1
			c-4.4,0-6.8,2.6-6.8,7.1V-93.7z M108.5-108.7c0-2,0.9-2.8,2.3-2.8c1.4,0,2.3,0.8,2.3,2.8v15.3c0,2-0.9,2.8-2.3,2.8
			c-1.4,0-2.3-0.8-2.3-2.8V-108.7z"/>
		<path fill="#D91D4F" d="M124.4-94.7v-20.5h-4v28.3h5.6l4.6-17v17h4v-28.3h-4.6L124.4-94.7z"/>
	</g>
</symbol>
<g id="Layer_1">
	
		<use xlink:href="#Collective"  width="420" height="420" x="-210" y="-210" transform="matrix(1 0 0 -1 210.0028 210.0028)" overflow="visible"/>
</g>
<g id="Layer_2">
</g>
</svg>
