<?xml version="1.0" encoding="utf-8"?>
<!-- Generator: Adobe Illustrator 18.0.0, SVG Export Plug-In . SVG Version: 6.00 Build 0)  -->
<!DOCTYPE svg PUBLIC "-//W3C//DTD SVG 1.1//EN" "http://www.w3.org/Graphics/SVG/1.1/DTD/svg11.dtd">
<svg version="1.1" xmlns="http://www.w3.org/2000/svg" xmlns:xlink="http://www.w3.org/1999/xlink" x="0px" y="0px"
	 viewBox="0 0 87.7 63" enable-background="new 0 0 87.7 63" xml:space="preserve">
<g id="Layer_1">
	<path fill="#F9F9FA" d="M65,0h-8.6H51l-7.1,12.2L36.8,0h-5.4h-8.6L0,16.1L24.2,42l0,0.1l0-0.1l19.6,21l0-0.1l0,0l0,0l0,0l0,0l0,0
		l0,0l0,0.1l19.6-21l0,0.1l0-0.1l24.2-25.9L65,0z M43.9,63l-1.1-3.4l-1.7-5.2l-1-3.1L29.9,20.4l13.9,9.8v0v0l0,0v0l0,0l0,0v0l0,0v0
		v0l13.9-9.8L47.7,51.3l-1,3.1L45,59.6L43.9,63z"/>
</g>
<g id="Layer_2">
</g>
</svg>
