<?xml version="1.0" encoding="utf-8"?>
<!-- Generator: Adobe Illustrator 18.0.0, SVG Export Plug-In . SVG Version: 6.00 Build 0)  -->
<!DOCTYPE svg PUBLIC "-//W3C//DTD SVG 1.1//EN" "http://www.w3.org/Graphics/SVG/1.1/DTD/svg11.dtd">
<svg version="1.1" xmlns="http://www.w3.org/2000/svg" xmlns:xlink="http://www.w3.org/1999/xlink" x="0px" y="0px"
	 viewBox="0 0 420 420" enable-background="new 0 0 420 420" xml:space="preserve">
<symbol  id="SV" viewBox="-210 -210 420 420">
	<polygon fill="#FFFFFF" points="210,-210 -210,-210 -210,210 210,210 	"/>
	<g opacity="0.25">
		<g>
			<path d="M-20.5,35.9c0-8.7-3.2-15.5-9.6-20.4C-36.5,10.5-44.6,8-54.5,8c-14.4,0-25.5,4-33.5,12.1l11.6,11.6
				c5.2-5.2,12.6-7.7,22.2-7.7C-43.4,24-38,27.8-38,35.4c0,3.4-0.9,6-2.7,7.7c-1.8,1.7-4.6,2.8-8.3,3.3l-11.1,1.5
				c-16.2,2.2-24.4,10.8-24.4,25.7c0,8.3,2.9,15.1,8.6,20.2c5.8,5.1,13.5,7.7,23.3,7.7c12.4,0,22.3-3.6,29.7-10.7l-11.3-11.2
				c-4.4,4.2-10.7,6.3-18.8,6.3c-4.6,0-8.1-1.1-10.5-3.3s-3.7-5-3.7-8.3c0-2.7,1-4.9,2.9-6.7c1.9-1.8,4.7-3,8.3-3.5l10.8-1.5
				c7.8-1.1,13.7-3.5,17.5-7.1C-22.8,50.9-20.5,44.4-20.5,35.9z"/>
			<path d="M60.1,100.6L29.7,8.8H16.3L-14,100.6H4.5L23,40.8l18.4,59.8H60.1z"/>
		</g>
		<g>
			<path d="M11.6-8.8h16.9v-73.8l18.6,16.2v-18.1l-18.6-16.2H11.6V-8.8z"/>
			<path d="M-75.5-21.8h8.4v13H-51v-13h37.5v-15.9L-45-100.6h-18.3l31.5,62.9H-51v-17.2h-16.1v17.2h-8.4V-21.8z"/>
		</g>
		<path fill="#FFB602" d="M90.6-83.6c0-9.3-7.5-16.8-16.8-16.8S57-92.9,57-83.6s7.5,16.8,16.8,16.8S90.6-74.4,90.6-83.6z"/>
	</g>
	<g>
		<path fill="#D91D4F" d="M-139.3-94.4v-21.9c0-2,0.9-2.8,2.3-2.8c1.4,0,2.3,0.7,2.3,2.8v21.9h4.2V-116c0-4.5-2.3-7.1-6.6-7.1
			c-4.4,0-6.6,2.6-6.6,7.1v21.6H-139.3z"/>
		<path fill="#D91D4F" d="M-123.5-102.2v-20.5h-4v28.3h5.6l4.6-17v17h4v-28.3h-4.6L-123.5-102.2z"/>
		<path fill="#D91D4F" d="M-110.2-94.4h7c4.5,0,6.6-2.5,6.6-7v-14.3c0-4.5-2.2-7-6.6-7h-7V-94.4z M-105.7-98.4v-20.2h2.5
			c1.4,0,2.3,0.7,2.3,2.8v14.7c0,2-0.9,2.8-2.3,2.8H-105.7z"/>
		<path fill="#D91D4F" d="M-89.2-106.3h6.1v-4h-6.1v-8.3h7.7v-4h-12.1v28.3h12.1v-4h-7.7V-106.3z"/>
		<path fill="#D91D4F" d="M-69.4-122.7c-0.2,0.7-0.4,1.2-0.4,3.5v4.5c0,2.6-0.9,3.6-2.9,3.6h-1.5v-11.5h-4.5v28.3h6.7
			c4.6,0,6.6-2.1,6.6-6.5v-2.2c0-2.9-0.9-4.8-2.9-5.8c2.2-0.9,3-3.1,3-6v-4.4c0-1.4,0-2.4,0.5-3.4H-69.4z M-74.3-98.4v-8.7h1.7
			c1.7,0,2.7,0.7,2.7,3v2.8c0,2-0.7,2.9-2.3,2.9H-74.3z"/>
		<path fill="#D91D4F" d="M-43.3-112.1v-3.8c0-4.5-2.3-7.1-6.6-7.1c-4.4,0-6.6,2.6-6.6,7.1v14.7c0,4.5,2.3,7.1,6.6,7.1
			c4.4,0,6.6-2.6,6.6-7.1v-2.8h-4.2v3c0,2-0.9,2.8-2.3,2.8c-1.4,0-2.3-0.8-2.3-2.8v-15.3c0-2,0.9-2.8,2.3-2.8c1.4,0,2.3,0.7,2.3,2.8
			v4H-43.3z"/>
		<path fill="#D91D4F" d="M-40.9-101.2c0,4.5,2.4,7.1,6.8,7.1c4.4,0,6.8-2.6,6.8-7.1v-14.7c0-4.5-2.4-7.1-6.8-7.1
			c-4.4,0-6.8,2.6-6.8,7.1V-101.2z M-36.5-116.2c0-2,0.9-2.8,2.3-2.8c1.4,0,2.3,0.8,2.3,2.8v15.3c0,2-0.9,2.8-2.3,2.8
			c-1.4,0-2.3-0.8-2.3-2.8V-116.2z"/>
		<path fill="#D91D4F" d="M-20.6-102.2v-20.5h-4v28.3h5.6l4.6-17v17h4v-28.3H-15L-20.6-102.2z"/>
		<path fill="#D91D4F" d="M-1.2-94c4.3,0,6.6-2.6,6.6-7.1v-0.9H1.1v1.2c0,2-0.8,2.8-2.2,2.8c-1.4,0-2.2-0.8-2.2-2.8
			c0-5.8,8.7-6.9,8.7-15c0-4.5-2.3-7.1-6.6-7.1c-4.4,0-6.6,2.6-6.6,7.1v1.7h4.2v-2c0-2,0.9-2.8,2.3-2.8c1.4,0,2.3,0.7,2.3,2.8
			c0,5.8-8.7,6.9-8.7,15C-7.8-96.6-5.6-94-1.2-94z"/>
		<path fill="#D91D4F" d="M6.6-94.4h13.8v-4h-4.7v-24.3h-4.5v24.3H6.6V-94.4z"/>
		<path fill="#D91D4F" d="M31.6-122.7c-0.2,0.7-0.4,1.2-0.4,3.5v4.5c0,2.6-0.9,3.6-2.9,3.6h-1.5v-11.5h-4.5v28.3H29
			c4.6,0,6.6-2.1,6.6-6.5v-2.2c0-2.9-0.9-4.8-2.9-5.8c2.2-0.9,3-3.1,3-6v-4.4c0-1.4,0-2.4,0.5-3.4H31.6z M26.8-98.4v-8.7h1.7
			c1.7,0,2.7,0.7,2.7,3v2.8c0,2-0.7,2.9-2.3,2.9H26.8z"/>
		<path fill="#D91D4F" d="M42.9-94.4v-21.9c0-2,0.9-2.8,2.3-2.8c1.4,0,2.3,0.7,2.3,2.8v21.9h4.2V-116c0-4.5-2.3-7.1-6.6-7.1
			c-4.4,0-6.6,2.6-6.6,7.1v21.6H42.9z"/>
		<path fill="#D91D4F" d="M67.6-112.1v-3.8c0-4.5-2.3-7.1-6.6-7.1c-4.4,0-6.6,2.6-6.6,7.1v14.7c0,4.5,2.3,7.1,6.6,7.1
			c4.4,0,6.6-2.6,6.6-7.1v-2.8h-4.2v3c0,2-0.9,2.8-2.3,2.8c-1.4,0-2.3-0.8-2.3-2.8v-15.3c0-2,0.9-2.8,2.3-2.8c1.4,0,2.3,0.7,2.3,2.8
			v4H67.6z"/>
		<path fill="#D91D4F" d="M69.1-94.4h13.8v-4h-4.7v-24.3h-4.5v24.3h-4.7V-94.4z"/>
		<path fill="#D91D4F" d="M84.8-94.4h4.5v-28.3h-4.5V-94.4z"/>
		<path fill="#D91D4F" d="M92.1-101.2c0,4.5,2.4,7.1,6.8,7.1c4.4,0,6.8-2.6,6.8-7.1v-14.7c0-4.5-2.4-7.1-6.8-7.1
			c-4.4,0-6.8,2.6-6.8,7.1V-101.2z M96.6-116.2c0-2,0.9-2.8,2.3-2.8c1.4,0,2.3,0.8,2.3,2.8v15.3c0,2-0.9,2.8-2.3,2.8
			c-1.4,0-2.3-0.8-2.3-2.8V-116.2z"/>
		<path fill="#D91D4F" d="M112.5-102.2v-20.5h-4v28.3h5.6l4.6-17v17h4v-28.3H118L112.5-102.2z"/>
	</g>
</symbol>
<g id="Layer_1">
	
		<use xlink:href="#SV"  width="420" height="420" x="-210" y="-210" transform="matrix(1 0 0 -1 210.0028 210.0028)" overflow="visible"/>
</g>
<g id="Layer_2">
</g>
</svg>
