<?xml version="1.0" encoding="utf-8"?>
<!-- Generator: Adobe Illustrator 18.0.0, SVG Export Plug-In . SVG Version: 6.00 Build 0)  -->
<!DOCTYPE svg PUBLIC "-//W3C//DTD SVG 1.1//EN" "http://www.w3.org/Graphics/SVG/1.1/DTD/svg11.dtd">
<svg version="1.1" xmlns="http://www.w3.org/2000/svg" xmlns:xlink="http://www.w3.org/1999/xlink" x="0px" y="0px"
	 viewBox="0 0 420 420" enable-background="new 0 0 420 420" xml:space="preserve">
<symbol  id="STBW" viewBox="-210 -210 420 420">
	<polygon fill="#FFFFFF" points="210,-210 -210,-210 -210,210 210,210 	"/>
	<g>
		<g>
			<defs>
				<path id="SVGID_1_" d="M-89,123.7H88.7v-204H-89V123.7z"/>
			</defs>
			<clipPath id="SVGID_2_">
				<use xlink:href="#SVGID_1_"  overflow="visible"/>
			</clipPath>
			<g id="lL5ogL_2_" clip-path="url(#SVGID_2_)">
				<g>
					<path fill="#FFFFFF" d="M57.1,39.6c-0.2,0.7-0.4,1.5-0.5,2.2c0.8-0.2,1.7-0.5,3.3-1c-1.5,1.2-2.6,1.9-3.6,2.7
						c1.6-0.1,3.6-1.4,4-1.1c1.6,1.7,2.6-0.6,4.2-0.2c-1.5,1-2.8,1.9-3.8,2.6c0.1,1,0.2,1.7,0.2,2.3c0.5-0.3,1.4-0.6,2.2-1
						c0.1,0.2,0.3,0.4,0.4,0.6c-0.5,0.2-0.9,0.4-1.2,0.6c1.5,0.4,2.9,0.7,4.5,1.1c-0.5-0.9-1-1.7-1.7-2.8c1-0.2,2.2-0.5,3.9-0.9
						c-1,1.1-1.6,1.7-2.1,2.3c1.2,0,2.4-0.3,3.1-1c1.7-1.9,3.9-2.5,6.9-1.3c-1.3,0.9-2.3,1.7-3.4,2.4c-0.1-0.2-0.3-0.4-0.4-0.6
						c0.4-0.3,0.9-0.6,1.3-0.9c-0.1-0.1-0.1-0.2-0.2-0.3c-2.9,1.6-5.9,3.3-8.8,4.9c0.1,0.2,0.1,0.3,0.2,0.5c0.6-0.1,1.1-0.2,2.1-0.4
						c-0.5,1.1-0.9,1.9-1.3,2.7c-1.2,0.4-2,1.3-3,2c-0.9,0.6-1.9,1.1-2.9,1.3c-0.8,0.2-1.7-0.1-2.6-0.1c0,0.2,0,0.5,0,0.7
						c1.4,0.3,2.7,0.6,4.6,1c-2,1.1-3.4,2-5.4,3.2c1.1,0.2,1.7,0.2,2.6,0.4c-2,0.5-3.5,1-5.1,1.4c0,0.3,0.1,0.6,0.1,0.9
						c1.1,0.2,2.3,0.3,3.6,0.6c-3.4,2.7-7.4-1.5-10.6,1.5c0.6,0.4,1.2,0.7,2.3,1.4c-1.9,0.6-3.3,1.4-4.6,1.4c-1.1,0-2.1-0.9-3.4-1.4
						c0.4-0.3,0.7-0.5,1-0.8c-0.2,0-0.5-0.1-0.7-0.1c0-0.7,0-1.5,0.1-2.2c0.2-0.7,0.5-1.4,0.8-2.1c-0.2-0.2-0.5-0.4-0.7-0.5
						c-1.9,1-4.4,1.6-5.5,3.1c-1,1.4-2.1,2.2-3.4,3c-0.4,0.3-0.9,0.9-1.3,0.9c-0.9,0-1.9,4.1-2.7,0c0-0.1-0.3-0.1-0.4-0.1
						c-1.1-0.5-2.2-0.9-3.6-1.5c4.4-2.9,7.2-6.2,9.5-10c0.3-0.4,0.5-1.1,0.9-1.2c3.4-1.1,3.7-4.6,5.5-6.9c1.1-1.4,2-3,2.9-4.5
						c0.2,0.1,0.4,0.3,0.7,0.4c-1,2.2-2,4.5-3.1,6.7c2.6-0.2,6-3.7,7.5-7.7c-0.5,0.3-0.9,0.6-1.3,0.8c-0.1-0.1-0.2-0.2-0.3-0.4
						c1.4-1.6,2.8-3.3,4.2-5c0.3,0.9,0.7,2,0.8,2c1.1-0.2,2.1-0.6,3.1-0.9c-0.6,0-1.1,0-1.7,0c-0.1-0.3-0.3-0.6-0.4-0.8
						c2.1-1.5,4.3-3.1,6.6-4.7c0.6,3.3-2.8,2.5-4.2,4.4c1.2-0.3,2-0.4,2.7-0.6c0,0.1,0.1,0.2,0.1,0.3C58.4,38.8,57.8,39.2,57.1,39.6
						z M-47.9,29.5c-0.1-0.3-0.2-0.5-0.4-0.9c9.7,3.4,11.7,10.3,12.1,15.2c-1.1-1.3-2.1-2.5-3.1-3.7c0,0.5,0.1,1.1,0.1,1.9
						c-0.7-0.5-1.2-0.8-2.2-1.4c0.6,1.3,0.9,2,1.4,3.2c-2.3-2.3-4.2-4.3-6.2-6.2c-0.4-0.4-1.6,0-2.1-0.4c-1.5-1.1-2.8-2.4-4.7-4
						c1.6,0.1,2.8,0.1,4.2,0.2c-0.6-0.8-1.2-1.3-1.4-1.9c-0.1-0.4,0.2-1,0.4-1.5c-1.2-1-2.4-2-3.5-2.8c0.5,0.1,1.3,0.2,2.5,0.3
						c-1.2-0.8-2-1.4-3.4-2.3c1.7,0.1,2.8,0.2,3.8,0.2c-2.7-1.5-5.4-3-8.1-4.6c3.7-0.1,3.7-0.1,4.1-1.5c-0.9-0.5-1.8-0.9-2.6-1.3
						c0.8-0.4,1.5-0.5,2-0.2c1.9,0.9,3.3,2.8,5.8,2.2c0.1,0,0.4,0.2,0.5,0.4c1.2,2.8,1.2,2.8,3.5,3.9c-3.3-4.8-3.3-4.8-8.3-6.8
						c-0.8-0.3-1.5-0.7-2.3-0.9c-2-0.5-4.4-0.5-6-1.6c-2.8-1.8-5.1-4.3-7.7-6.5c0.1-0.2,0.2-0.4,0.3-0.6c1.6,0.3,3.2,0.5,4.8,0.8
						c-1.2-1.4-2.1-3.3-3.5-4c-2.5-1.3-5-2.2-5.7-5.2c0-0.2,0-0.4,0.1-0.7c0.6,0.4,1.1,0.7,1.6,1c0.2-0.2,0.3-0.5,0.5-0.7
						c-1.8-1.3-3.7-2.6-5.5-3.9c0.1-0.2,0.3-0.3,0.4-0.5c0.9-0.1,1.7-0.2,2.4-0.3c0.4,0.6,0.8,1.1,1.1,1.6c0.2-0.2,0.3-0.3,0.5-0.5
						c-1.8-3.3-4.6-5.4-8.1-6.5c-0.6,0.8-1.1,1.5-1.6,2.3c-0.2,0.2-0.4,0.3-0.6,0.5c1.8,1.2,3.5,2.5,5.3,3.7
						c-0.2,0.3-0.5,0.6-0.7,0.8c-1.2-0.8-2.4-1.6-3.6-2.3C-81.8-6-81.9-5.8-82-5.6c0.6,0.4,1.2,0.8,1.6,1.1c-2.2,0.6-4.3,1.3-6.9,2
						c1.4,0.7,2.3,1.1,3.2,1.5c-0.1,0.1-0.1,0.3-0.2,0.4c-0.5,0-1,0-1.9,0c0.6,0.5,1,0.7,1.7,1.2c-1,0.1-1.5,0.2-2.1,0.2
						c0.6,0.7,1.1,1.3,1.7,2c-0.8,0.5-1.4,0.9-1.5,1c0.3,1.4,0.5,2.5,0.8,4c-1.3,0-2.4,0-3.8,0c-0.7,3.1,3.5,1,3.8,2.9
						c-1.3,0.8-2.6,1.6-3.8,2.3c-1-1.5-2.3-3.3-3.5-4.9c0.3,0,1,0,1.7,0.1c0-0.1,0-0.2,0.1-0.4c-1-0.4-1.9-0.8-2.9-1.3
						c-0.1,0.5-0.2,0.9-0.4,1.5c-0.7-0.8-1.3-1.3-1.8-1.9C-97,5.2-97.4,4-98.2,3c-1.1-1.3-3.6-1.9-2.1-4.5c0.1-0.2-0.5-1-0.8-1.4
						c-0.6-0.7-1.3-1.3-2.1-2.1c1.8,0.1,3.4,0.2,5,0.2c-0.3-1.7-3.5-2.8-1.8-5.8c0.6,1,1.2,1.9,1.8,3c0.2-1.6-0.1-3.1,0.6-4
						c0.6-0.8,1.1-1.1,0.8-2.3c-0.2-0.6,0.1-1.6,0.6-1.9c2.6-1.8,1.9-4.2,1.3-6.6c2-1,2-1.3-0.4-3.1c0.9-1.4,0.9-1.4-2.6-5.4
						c-0.3,0.2-0.6,0.5-1.2,1c0-1.7,0-3,0-4.8c1.2,1.1,2.2,1.9,3,2.7c0.5-0.8,1-1.6,1.6-2.5c-0.2-0.3-0.5-0.7-1.2-1.8
						c1,0.5,1.4,0.8,1.7,1c0.2-0.1,0.4-0.2,0.6-0.3c-0.5-1.3-1-2.7-1.6-4c-1.2-2.3-1.2-6,0.8-7.5c2.8-2.2,3.1-7.1,7.8-7
						c0.1,0,0.1-0.3,0.2-0.4c2.5-2.3,4.8-4.8,7.6-6.7c8.4-6.1,18.1-9.6,27.5-13.7c10.5-4.6,22-5.1,33.3-5.2
						c17.3-0.3,34.7-0.2,52-0.1c10.9,0,21.7,0.4,32,4.4c6.8,2.7,13.4,5.9,20.2,8.6c2.7,1.1,5,2.6,6.8,4.9c2,2.6,4.4,4.9,6.6,7.3
						c0.1,0.2,0.2,0.4,0.4,0.7c-0.7,0.3-1.3,0.6-2,0.9c-0.2-0.5-0.3-1.1-0.6-1.2c-1-0.5-2.5-1.6-3.1-1.2c-1.2,0.7-1.1,2.1-0.1,3.3
						c1.3,1.7,2.5,3.5,3.9,5.1c1.9,2,2.3,5.6,0.9,8c-0.7,1.2-0.9,2.7-1.6,4.6c1.1-0.6,1.5-0.8,1.8-1c0.1,0.1,0.2,0.2,0.2,0.3
						c-0.4,0.5-0.7,0.9-0.9,1.2c0.7,0.9,1.2,1.7,1.8,2.5c0.9-0.8,1.8-1.7,2.9-2.7c0,1.8,0,3.1,0,4c-0.8,0.1-1.5,0.1-1.6,0.3
						c-0.6,1.6-3.8,2.2-2.2,4.9c-2.3,1.6-2.4,2-0.5,3.1c-0.1,1.5-0.8,3.3-0.2,4.4c0.9,1.6,1.8,2.9,2.3,4.8c0.4,1.7,2,3.1,1.5,5.2
						c0.7-0.9,1.4-1.9,2-2.8c0.2,0.2,0.5,0.3,0.7,0.5c-0.9,2-1.8,4-2.5,5.4c1.4,0,2.9,0,4.7,0c-0.9,0.8-1.7,1.4-2.2,2.1
						c-0.4,0.5-0.7,1.3-0.5,1.8c0.4,1.2,0.3,1.9-0.9,2.8c-1.4,1.1-3.7,1.8-3.4,4.4c0.1,0.6-0.7,1.3-1.1,2c-0.2-0.2-0.4-0.4-0.6-0.6
						C99.3,7.4,99.2,7,99,6.6c-1,0.5-1.9,0.9-3.5,1.6c1.4,0,2.1,0,2.2,0c-1.1,1.7-2.4,3.5-3.4,4.9c-1.3-0.8-2.5-1.6-4.4-2.8
						c1.6-0.2,2.6,0,3.4-0.4c0.6-0.3,0.9-1.3,1.4-2c-1.6,0-2.7,0-4.1,0c0.4-1.7,0.7-2.8,1-4.1c-0.2-0.1-0.8-0.3-1.7-0.6
						c0.6-0.9,1.1-1.7,1.7-2.4c-0.5-0.1-1.1-0.1-1.8-0.2c0.5-0.5,0.8-0.8,1.3-1.4c-0.8,0.1-1.3,0.1-1.8,0.1
						c-0.1-0.2-0.1-0.4-0.2-0.6c0.9-0.4,1.8-0.8,3.4-1.4c-2.8-0.7-5-1.3-7.3-1.9c0.7-0.4,1.3-0.8,1.9-1.2c-0.1-0.2-0.2-0.3-0.3-0.5
						c-1.2,0.8-2.5,1.6-3.7,2.3c-0.1-0.2-0.2-0.4-0.3-0.6c0.7-0.7,1.4-1.4,2.3-2c0.9-0.6,1.9-1.1,2.9-1.7c-0.3-0.3-0.6-0.5-0.9-0.8
						c-0.5-0.7-1.1-1.4-1.6-2.1c-1.6,0.7-3.5,1.2-4.9,2.3c-1.3,1.1-2.1,2.8-3.1,4.3c0.2,0.1,0.4,0.2,0.6,0.4c0.3-0.6,0.6-1.2,1-1.7
						c0.9,0.2,1.7,0.3,2.8,0.5c-1.1,2.5-4.8,1.9-5.1,4.9c0.7-0.3,1.2-0.6,1.8-0.9C78.4,1.3,77,2.8,75,3.6c-2.5,1-3.9,3.1-5.9,5
						c1.9-0.3,3.5-0.5,5.3-0.7c-3,4.5-6.9,7.4-11.5,8.5c-2.7,0.7-5.1,1.8-7.6,2.5c-3.2,0.9-3.1,3.9-4.9,5.5c1.8-1.3,2.9-3.3,4.6-4.4
						c1.9-1.2,4.4-1.7,6.6-2.5c0.1,0.2,0.2,0.4,0.3,0.7C60.9,18.6,60,19,59,19.5c0.4,0.6,0.8,1.2,1.2,1.8c1.1-0.3,1.9-0.6,2.8-0.9
						c0.1,0.2,0.2,0.4,0.3,0.6c-2.7,1.5-5.3,3-8,4.6c1.3-0.2,2.6-0.4,4.4-0.6c-1.4,1-2.5,1.7-3.9,2.7c1.2-0.2,1.9-0.3,2.7-0.4
						c-2.3,1.6-4.5,3-6.6,4.5c-0.1-0.2-0.2-0.3-0.3-0.5c0.3-0.4,0.5-0.8,0.8-1.1c-1.5,1.2-2.9,2.5-4.4,3.7c0.2,0.2,0.3,0.5,0.5,0.7
						c2.2-1.3,4.3-2.5,6.5-3.8c0.1,0.1,0.2,0.2,0.4,0.3c-0.4,0.8-0.9,1.6-1.5,2.6c1.7-0.2,3.1-0.3,4.7-0.5
						c-4.5,3.7-10.2,5.3-13,10.6c-0.1-0.2-0.3-0.3-0.4-0.5c0.3-0.7,0.6-1.4,1.2-2.6c-1,0.7-1.5,1-2.2,1.4c0-0.8,0-1.3,0-1.7
						c-1,1.1-2,2.3-3,3.4c-0.2-0.1-0.5-0.3-0.7-0.4c1-2.5,2.2-4.9,3.1-7.4c1-2.6,3.3-3.9,5.4-5.3c0.6-0.3,1.4-0.6,2.3-0.8
						c0.5-0.1,1-0.1,1.5-0.2c0.6-0.2,1.2-0.3,1.8-0.5c-2.9-1.2-5.2-0.3-7.5,1.4c-1.9,1.5-4,2.8-6,4.2c-0.1-0.1-0.2-0.3-0.3-0.4
						c0.3-0.6,0.6-1.2,0.9-1.9c-0.6,0-1,0-1.6,0c2.4-3.2,4.7-6.2,7-9.2l0.1,0.1c-0.3-0.1-0.7-0.3-1-0.4c0.9-3.1,2.2-5.9,5.1-7.7
						c1.1-0.7,1.8-1.9,2.6-2.9c-0.2-0.2-0.3-0.5-0.5-0.7c-0.7,0.2-1.6,0.2-2.1,0.6c-2.1,1.9-4.1,4-6.2,5.9c-0.6,0.5-1.4,0.9-2,1.3
						c-0.1-0.2-0.2-0.4-0.3-0.5c1.1-2.5,2.2-5,3.3-7.5c-0.2-0.1-0.4-0.2-0.6-0.3c-1.2,1.6-2.4,3.3-3.5,4.9c-1,1.5-1.9,3.1-2.6,4.4
						c-0.4-1.1-1-2.4-1.5-3.7c-0.4-0.6-0.2-1.5-0.1-2.3c0.2-1.2-0.1-2.9,0.6-3.5C40.1,9,40.1,7.4,40,5.6c-3.2-0.1-2.2,3.5-4.4,5.1
						c-1.2-11.3,3.6-19.9,9.8-27.5c-0.4-1.4-0.8-2.6-1.3-4c-1.1,1.2-2.2,2.5-3.4,3.9c-2.1,0.2-4.5,0.4-7,0.6c0.6-0.8,1-1.4,1.4-1.9
						c0.5-0.5,1-0.9,1.6-1.4c-0.1-0.1-0.1-0.2-0.2-0.3c-2.3,1.3-4.5,2.6-7.3,4.1c1.4,0.2,2.1,0.4,3.1,0.6c-0.8,0.6-1.4,0.9-1.9,1.3
						c0.3,0.7,0.5,1.3,0.8,1.9c1.9-0.5,3.7-1,6.3-1.6c-2.2,1.5-3.8,2.7-5.7,4c0.8,0.1,1.2,0.1,1.8,0.1C31-8,30-5.6,30.1-3.3
						c0.3,6.3,1,12.6,1.7,18.9c0.5,4.3-0.3,6.6-3.1,10.5c-1.4,2-2.3,4.4-3.2,6.7c-1,2.6-1.8,5.2-2.4,7.9c-0.3,1.2,0.1,2.5,0,3.8
						c-0.1,1.5-0.4,3-0.7,4.6c0.9,2.5,0,4.1-3.3,5.1c-0.9,0.3-1.7,1.3-2.3,2.1c-0.5,0.8-0.7,1.9-1.1,2.9c1.2-0.1,5.7,2.5,6.2,3.6
						c0.1,0.3,0.2,0.6,0.1,0.9c-0.3,3.6-1.1,7-4.1,9.4c-2.3,1.9-4.4,4-7.9,3.2c-1.6-0.3-3.5,0.6-5.1,1.3c-1.7,0.7-3.2,0.5-4.9,0
						c-1.9-0.6-3.9-1-5.9-1.3c-1.2-0.2-2.6,0.1-3.6-0.4c-4.7-2.6-7.8-6.4-7.7-12.1c0-0.7,0.8-1.4,1.3-2c0.5-0.5,1.1-0.8,1.7-1.2
						c1-0.7,2-1.3,3-2.1c-0.1-0.2-0.6-0.8-0.7-1.5c-0.2-1.8-0.9-2.6-2.8-3.1c-3.2-0.8-3.8-2.5-2.3-5c-0.8-1.6-2.2-3-0.8-5
						c0.3-0.4,0.2-1.2,0-1.7c-1.2-4.3-2.4-8.6-3.8-12.8c-0.4-1.3-1.5-2.4-2.4-3.6c-0.1-0.1-0.6,0.2-0.6,0.1
						c-0.6-1.4-1.2-2.5-1.6-3.7c-0.5-1.4-1.1-2.9-1-4.3c0.5-6.4,1.5-12.7,1.9-19.1c0.1-1.9-0.7-3.8-1.3-5.7c-0.3-1-1.1-1.8-1.7-2.7
						c0.2,0,0.6,0,1.5,0c-2-1.4-3.6-2.5-5.2-3.6c0.1-0.1,0.1-0.2,0.2-0.3c1.8,0.5,3.6,1,5.5,1.4c0.3-0.7,0.5-1.3,0.7-1.9
						c-0.6-0.5-1.2-0.9-1.9-1.4c1-0.1,1.8-0.2,2.5-0.3c0.1-0.2,0.1-0.3,0.2-0.5c-2.3-1.3-4.6-2.6-6.9-3.9c-0.1,0.1-0.1,0.2-0.2,0.3
						c1,1,2.1,1.9,3.4,3.1c-1.9,0-3.3-0.1-4.7,0c-2.2,0.2-3.3-1.5-4.7-2.7c-0.5-0.5-1-1.1-1.7-1.8c-0.1,1.4,0.2,2.6-0.2,2.8
						c-2.1,1.3-0.5,2.5,0.3,2.9c1.9,0.8,2.2,2.4,3,3.9c0.5,1,1.3,1.9,2,2.9c0.4,0.6,0.8,1.2,1,1.8c0.5,1.5,0.7,3.2,1.5,4.7
						c2.1,4,1.8,8.2,1,12.5c-0.7-1-0.9-2.1-1.5-3c-0.5-0.8-1.4-1.4-2.1-2c-0.2,0.1-0.3,0.3-0.5,0.4c0.2,1.2,0.4,2.4,0.8,3.5
						c0.4,1,1.2,2,1.4,3c0.4,1.5,0.4,3,0.6,4.6c-2.8,0.2-1.2,2.4-1.6,3.4c-2-3.1-4.2-6.3-6.4-9.6c-0.2,0.1-0.5,0.3-0.7,0.4
						c1.1,2.5,2.2,5,3.3,7.5c-0.4,0.5-0.8,1-1.2,1.4c-1.9-4.2-5-7-9.4-8.4c0.1,1.1,0.4,2.3,1.1,2.7c3.3,1.9,5.3,4.7,5.8,8.6
						c-0.7-1.2-1.5-2.4-2.2-3.6c-2.2,1.4-2.2,1.4,0.5,5.1c-0.1-0.8-0.1-1.3-0.2-1.9c0.2-0.1,0.3-0.1,0.5-0.2c2.6,3.3,5.2,6.5,8,9.9
						c-0.8,0-1.2,0-1.7,0c0.3,0.8,0.5,1.4,0.9,2.6c-2.7-1.9-4.9-3.3-7-4.9c-2.3-1.7-4.8-2.2-6.9-0.9C-49.1,29.1-48.5,29.3-47.9,29.5
						z M-57.4,57.7c1.8-0.4,3.2-0.8,4.6-1.1c-0.8-0.6-1.6-0.7-2.3-0.9c-1.1-0.3-2.2-0.5-3.2-1.1c-1-0.6-1.9-1.5-2.8-2.3
						c-0.1,0.1-0.1,0.2-0.2,0.4c-0.4-0.8-0.8-1.6-1.4-2.6c1,0.1,1.5,0.2,2.1,0.3c0.1-0.1,0.1-0.3,0.2-0.4c-3-1.6-6-3.2-9-4.9
						c-0.1,0.1-0.1,0.2-0.2,0.3c0.5,0.4,0.9,0.7,1.4,1.1c-0.2,0.2-0.4,0.4-0.6,0.7c-1-0.9-1.9-1.8-2.9-2.7c0.2-0.3,0.3-0.6,0.5-0.9
						c1.8,0.5,3.7,0.9,5.5,1.6c1.2,0.5,2.2,1.5,3.3,2.3c0.1-0.2,0.3-0.4,0.4-0.6c-0.6-0.6-1.1-1.2-1.7-1.8c0.1-0.1,0.2-0.3,0.2-0.4
						c1.1,0.3,2.3,0.6,3.2,0.8c-0.7,1.1-1.1,1.9-1.6,2.8c1.7-0.3,3.3-0.5,4.7-0.7c-0.2-0.2-0.7-0.6-1.6-1.5c1.3,0.4,2.1,0.5,2.8,0.7
						c0.2-0.7,0.3-1.3,0.5-1.8c-1.4-0.9-2.7-1.7-4-2.6c0.1-0.1,0.1-0.2,0.2-0.3c1,0.4,2,0.8,3.2,1.2c-0.1-0.8-0.2-1.3-0.2-1.7
						c1.6,0.9,3.1,1.6,4.5,2.4c0.1-0.2,0.2-0.3,0.3-0.5c-1-0.8-2.1-1.6-3.5-2.7c1.5,0.4,2.5,0.7,3.7,1c-1-1.3-1.9-2.5-2.9-3.7
						c0.7,0.1,1.4,0.3,2,0.4c0.1-0.2,0.1-0.4,0.2-0.6c-0.9-0.3-1.8-0.4-2.6-0.9c-0.7-0.5-1.2-1.4-1.7-2.1c0.2-0.1,0.4-0.3,0.5-0.4
						c1.2,0.8,2.4,1.6,3.6,2.3c2.3,1.3,2.6,1.7,2.2,3.2c-0.6-0.1-1.1-0.3-2.3-0.6c3.1,2.2,4.1,2,4.8-0.6c1.5,1.8,2.8,3.5,4.1,5.1
						c-0.1,0.1-0.2,0.2-0.3,0.2c-0.5-0.3-1-0.5-1.8-1c4.2,5.8,5.3,8.7,8.1,7.7c-2-2.3-2.1-2.5-0.1-3.6c1.3,4,4.2,6.8,7,9.7
						c2.9,3.1,5.6,6.4,8.6,9.9c-1,0.7-2.6,1.8-4.3,2.9c-1.8-2.7-5.5-3.3-7.1-6.5c-0.6-1.1-3.2-1.3-4.9-1.8c-0.1,0.1-0.3,0.3-0.4,0.4
						c0.4,1,1.1,1.9,1.3,2.9c0.1,0.6-0.4,1.4-0.7,2.2c-1.4-0.7-0.7,0.4-0.1,1.9c-2.5-0.6-4.5-1.1-6.6-1.5c0-0.2,0.1-0.5,0.1-0.7
						c0.6-0.4,1.2-0.7,1.8-1.1c-0.1-0.2-0.1-0.4-0.2-0.7c-1.2,0.1-2.3,0.3-3.5,0.2c-0.9,0-2.2-0.8-2.5-0.5c-1.7,1.9-2.8,0.1-4.2-0.6
						c1.1-0.2,2.3-0.4,3.4-0.6c0-0.3,0-0.6,0-0.9c-1.5-0.4-3.1-0.8-4.6-1.3c0-0.1,0-0.2,0-0.2c0.5,0,1.1-0.1,2.3-0.1
						C-54,59.7-55.5,58.8-57.4,57.7z M63.9,98.5c3.2-4.5,8.3-6.6,11.8-10.5c1.4-1.5,2.7-3.2,4.1-4.7c0.4-0.4,0.7-1,1.2-1.2
						c2.4-1.1,4.8-2.1,7.1-3.2c0-0.9,0-1.9,0-2.8c0.8-0.3,1.6-0.6,2.3-0.8c-0.6-0.4-1.2-0.6-1.7-0.9c0.2-0.3,0.4-0.6,0.6-0.9
						c0.6,0.1,1.2,0.1,1.7,0.3c1.5,0.8,2.8,2.2,4.3,2.3c2.2,0.1,2.3,1.1,2.4,2.8c-1.1,0-2.1,0-3.1,0c0.1,0.9,0.1,1.7,0.2,2.4
						c0.1,0.9,0.4,1.7,0.6,2.5c0.4,2-0.4,3-2.4,3.3c-0.7,0.1-1.4,0.4-2,0.6c0,0.2,0.1,0.4,0.1,0.7c0.9,0.4,1.8,0.8,2.6,1.2
						c0,0.2,0,0.4,0,0.5c-1.3,0.2-2.6,0.3-3.9,0.5c1.1,1.1,2.1,2.2,3.2,3.2c0.1-0.1,0.2-0.2,0.3-0.3c-0.1-0.4-0.2-0.7-0.3-1.1
						c0.1-0.1,0.3-0.2,0.4-0.2c0.7,1,1.4,1.9,2.1,2.9c-1.3,2.5-2.3,2.8-5.1,1.7c-1.2-0.5-2.5-0.7-3.8-1c-0.1,0.2-0.1,0.4-0.2,0.6
						c5.3,3.3,6.9,5.5,5.6,8.3c-2.6-0.6-5.2-1.2-7.8-1.8c0,0.2-0.1,0.6-0.1,1.1c-1.5-1.2-2.9-2.3-4.4-3.5c0,0.9,0.1,1.8,0.1,2.7
						c-1.3,0-2.4,0-3.8,0c-0.4-0.4-0.9-0.9-1.5-1.6c-1.4,1.6-2.6,1.8-3.3,0.6c-1.4-0.2-2.2-0.6-2.9-0.4c-2.7,0.5-2.9,0.4-2.5-2.3
						C65.3,99.1,64.7,98.8,63.9,98.5z M-79,103.7c-0.2-0.4-0.3-0.9-0.4-0.9c-2.1,0.4-4.2,0.9-6.2,1.4c-0.6,0.1-1.1,0.2-1.7,0.3
						c0-0.8-0.3-1.7,0-2.2c1.7-2.2,3.5-4.3,5.4-6.5c-0.8,0.2-1.8,0.4-2.9,0.6c-1.1,0.3-2.3,0.8-3.4,0.8c-0.6,0-1.8-0.8-1.8-1.3
						c0-1,0.5-2.1,0.9-3.1c0.1-0.3,0.6-0.3,1.1-0.6c-0.1,0.6-0.2,1-0.3,1.9c1.4-1.5,2.4-2.5,3.3-3.5c-1.2-0.1-2.5-0.3-3.8-0.5
						c0-0.2,0-0.4,0-0.6c0.9-0.4,1.8-0.7,2.7-1.1c0-0.2,0-0.4,0.1-0.7c-0.7-0.2-1.4-0.5-2.1-0.6c-2.1-0.3-2.7-1.2-2.3-3.2
						c0.3-1.7,0.6-3.3,0.8-5.1c-1.1,0-2.1,0-3.1,0c-0.1-1.6,0.1-2.7,2.1-2.6c0.6,0,1.2-0.7,1.8-1c1.3-0.6,2.7-1.2,4.1-1.7
						c0.1,0,0.3,0.2,0.7,0.5c-0.5,0.5-0.9,0.9-1.4,1.3c0.9,0.3,1.7,0.6,2.4,0.8c0,1.1,0,2,0,3c0.8,0.4,1.6,1,2.4,1.1
						c2.8,0.3,4.7,1.8,6.6,3.6c0.5,0.5,0.6,1.3,1.1,1.8c1.2,1.2,2.4,2.3,3.6,3.4c1.5,1.3,3,2.7,4.5,4c2,1.7,4.1,3.4,6.4,5.3
						c-1.1,0.5-1.8,0.7-2,0.8c-0.4,1.2-0.5,2.5-0.8,2.5c-1.5,0.2-3.1,0.1-4.9,0.1c-0.8,2.3-2.2,0.5-3.6-0.2c0,0.3,0.1,0.6,0.1,0.9
						c-1.6,0.2-3.3,0.5-5.1,0.8c0.1-1.1,0.2-2,0.2-2.8C-76.2,101.6-77.6,102.7-79,103.7z M-67.6,40.1c1.6,1.2,3.1,2.3,4.5,3.4
						c-1.4,0-2.8,0.4-3.5-0.1c-2-1.5-3.7-3.3-5.6-5c0.4-0.1,0.9-0.2,1-0.2c-1.1-1.9-2.2-3.9-3.4-5.8c0.2-0.2,0.5-0.4,0.7-0.5
						c0.9,1.1,1.8,2.2,2.8,3.2c1.3,1.3,2.6,2.4,3.9,3.6c0.1,0.1,0.2,0.2,0.3,0.4C-67,39.3-67.3,39.7-67.6,40.1z M76.7,38.3
						c-0.7,1-1.3,2-2.1,2.7c-1.1,1-2.3,1.9-3.5,2.8c-0.9-1.9-2,0.4-3.3-0.2c1.7-1.3,3.1-2.3,4.7-3.5c-0.3-0.4-0.6-0.8-0.8-1.1
						c1.1-0.7,2.7-1.2,2.9-2c0.6-2.6,2.6-3.7,4.9-4.7c-1.1,2-2.3,3.9-3.4,5.9C76.2,38.2,76.7,38.3,76.7,38.3z M-79.8,19.9
						c-4.4-0.2-7.9-0.7-10.5-4.6c1.4,0.2,2.4,0.3,3.5,0.5c0.1-0.7,0.2-1.3,0.2-1.8c1.2-0.1,2.2-0.1,3.4-0.2
						c-1.6,1.3-2.9,2.3-0.2,3.4C-82.2,17.7-81.3,18.7-79.8,19.9z M90.6,15.5c-1.3-0.8-1.9-1.2-2.5-1.6c0.1-0.1,0.1-0.2,0.2-0.3
						c1.1,0.1,2.1,0.2,3.2,0.4c0.1,0.6,0.1,1.2,0.2,1.7c1.1-0.1,2.1-0.2,3.3-0.4c-2.2,3.4-6.6,5.1-9.8,4.2
						C86.9,18.2,88.6,17,90.6,15.5z M5.7,94.3c1.6,1.3,3,2.5,4.8,4c-0.9,0-1.3,0-1.7,0c0.1,0.6,0.3,1.1,0.5,2
						c-0.9-0.9-1.5-1.4-2-1.9c-1.4,1.4-3.1,1-4.1,0c-0.6-0.6,0-2.3,0.1-3.8c0.8,0.6,1.3,0.8,1.7,1.2C5.3,95.2,5.5,94.8,5.7,94.3z
						 M-5,98.3c0-0.2,0-0.3-0.1-0.5c1.4-1.2,2.8-2.3,4.4-3.6c0.2,0.5,0.4,1,0.6,1.4c0.5-0.2,1-0.4,1.6-0.7c0,1.5,0,2.7,0,4.2
						C0,99.1-1.2,99-2.8,98.8c-0.1,0.1-0.6,0.6-1.5,1.4c0.2-1,0.3-1.5,0.4-2.1C-4.4,98.2-4.7,98.3-5,98.3z M-69.3,26.3
						c3,0.8,5.4,1.4,8.3,2.1C-64.4,30.2-66.6,29.7-69.3,26.3z M74.1,26.4c-2.6,3.3-5.5,3.9-7.9,1.9C68.8,27.7,71.1,27.1,74.1,26.4z
						 M-34.2,49c0.6-0.4,1-0.7,1.5-0.9c0.4,1.4,3.3,2,1,4.7C-32.5,51.5-33.3,50.3-34.2,49z M36.3,52.4c-1.4-2.1,0.7-2.9,1.3-4.2
						c0.4,0.2,0.9,0.5,1.6,0.9C37.6,49.9,38.7,52.6,36.3,52.4z M40.9,27.6c0.2,0.1,0.3,0.3,0.5,0.4c-1.1,2.4-2.2,4.9-3.3,7.3
						c-0.3-0.1-0.5-0.3-0.8-0.4C38.5,32.4,39.7,30,40.9,27.6z M-33.1,35.3c-1.1-2.5-2.2-5-3.5-7.8C-34.2,29.8-32.9,32.2-33.1,35.3z
						 M81.5,33.5c0.3,0.2,0.6,0.5,1,0.7c-1.1,1.3-2.1,2.6-3.2,4c-0.2-0.2-0.5-0.4-0.7-0.5C79.5,36.3,80.5,34.9,81.5,33.5z
						 M-77.4,34.3c0.3-0.2,0.6-0.5,0.9-0.7c1,1.4,1.9,2.7,2.9,4.1c-0.2,0.2-0.5,0.3-0.7,0.5C-75.3,36.9-76.4,35.6-77.4,34.3z
						 M71.1,15.9c0,0.9,0.2,2,0,2.2c-0.9,0.5-2,0.8-3,1.1c-0.1-0.3-0.4-0.9-0.3-1C68.7,17.5,69.7,16.8,71.1,15.9z M-66.2,15.9
						c1.5,1,2.4,1.6,3.2,2.3c0.1,0.1-0.2,0.7-0.3,1.1c-0.9-0.3-2-0.5-2.8-1.1C-66.3,18-66.1,16.9-66.2,15.9z M79.3,30.3
						c-0.3-0.2-0.5-0.5-0.8-0.7c1.1-1.2,2.2-2.4,3.4-3.5c0.2,0.2,0.4,0.4,0.6,0.6C81.4,27.8,80.3,29.1,79.3,30.3z M-73.6,29.6
						c-0.3,0.2-0.6,0.5-0.8,0.7c-1-1.3-2.1-2.5-3.1-3.8c0.2-0.2,0.4-0.4,0.7-0.6C-75.7,27.2-74.6,28.4-73.6,29.6z"/>
					<path d="M-57.4,57.7c1.9,1.1,3.4,2,5.5,3.2c-1.2,0.1-1.8,0.1-2.3,0.1c0,0.1,0,0.2,0,0.2c1.5,0.4,3.1,0.8,4.6,1.3
						c0,0.3,0,0.6,0,0.9c-1.1,0.2-2.3,0.4-3.4,0.6c1.4,0.7,2.5,2.5,4.2,0.6c0.3-0.3,1.6,0.4,2.5,0.5c1.2,0,2.3-0.1,3.5-0.2
						c0.1,0.2,0.1,0.4,0.2,0.7c-0.6,0.4-1.2,0.7-1.8,1.1c0,0.2-0.1,0.5-0.1,0.7c2.1,0.5,4.1,1,6.6,1.5c-0.6-1.5-1.2-2.6,0.1-1.9
						c0.3-0.8,0.8-1.6,0.7-2.2c-0.2-1-0.8-1.9-1.3-2.9c0.1-0.1,0.3-0.3,0.4-0.4c1.7,0.6,4.3,0.7,4.9,1.8c1.6,3.3,5.4,3.8,7.1,6.5
						c1.7-1.1,3.3-2.2,4.3-2.9c-3-3.4-5.6-6.8-8.6-9.9c-2.8-2.9-5.7-5.7-7-9.7c-1.9,1.1-1.9,1.3,0.1,3.6c-2.8,1.1-3.9-1.8-8.1-7.7
						c0.9,0.5,1.4,0.7,1.8,1c0.1-0.1,0.2-0.2,0.3-0.2c-1.3-1.6-2.7-3.3-4.1-5.1c-0.7,2.6-1.7,2.8-4.8,0.6c1.1,0.3,1.7,0.4,2.3,0.6
						c0.5-1.5,0.2-1.9-2.2-3.2c-1.3-0.7-2.4-1.5-3.6-2.3c-0.2,0.1-0.4,0.3-0.5,0.4c0.6,0.7,1,1.6,1.7,2.1c0.7,0.5,1.7,0.6,2.6,0.9
						c-0.1,0.2-0.1,0.4-0.2,0.6c-0.7-0.1-1.3-0.3-2-0.4c1,1.2,1.9,2.4,2.9,3.7c-1.2-0.3-2.2-0.6-3.7-1c1.5,1.1,2.5,1.9,3.5,2.7
						c-0.1,0.2-0.2,0.3-0.3,0.5c-1.5-0.8-2.9-1.6-4.5-2.4c0.1,0.4,0.1,0.9,0.2,1.7c-1.2-0.5-2.2-0.8-3.2-1.2
						c-0.1,0.1-0.1,0.2-0.2,0.3c1.3,0.8,2.6,1.7,4,2.6c-0.1,0.5-0.3,1.1-0.5,1.8c-0.8-0.2-1.5-0.4-2.8-0.7c0.9,0.9,1.4,1.3,1.6,1.5
						c-1.4,0.2-3,0.5-4.7,0.7c0.5-0.9,1-1.7,1.6-2.8c-1-0.2-2.1-0.5-3.2-0.8c-0.1,0.1-0.2,0.3-0.2,0.4c0.6,0.6,1.1,1.2,1.7,1.8
						c-0.1,0.2-0.3,0.4-0.4,0.6c-1.1-0.8-2.1-1.8-3.3-2.3c-1.7-0.7-3.6-1.1-5.5-1.6c-0.2,0.3-0.3,0.6-0.5,0.9c1,0.9,1.9,1.8,2.9,2.7
						c0.2-0.2,0.4-0.4,0.6-0.7c-0.5-0.4-0.9-0.7-1.4-1.1c0.1-0.1,0.1-0.2,0.2-0.3c3,1.6,6,3.2,9,4.9c-0.1,0.1-0.1,0.3-0.2,0.4
						c-0.6-0.1-1.1-0.2-2.1-0.3c0.5,1,0.9,1.8,1.4,2.6c0.1-0.1,0.1-0.2,0.2-0.4c0.9,0.8,1.8,1.7,2.8,2.3c1,0.5,2.1,0.8,3.2,1.1
						c0.7,0.2,1.5,0.3,2.3,0.9C-54.2,57-55.6,57.3-57.4,57.7z"/>
					<path d="M56.1,39.9c-1,0.3-2.1,0.7-3.1,0.9c-0.1,0-0.4-1.1-0.8-2c-1.4,1.7-2.8,3.3-4.2,5c0.1,0.1,0.2,0.2,0.3,0.4
						c0.4-0.3,0.9-0.5,1.3-0.8c-1.6,4.1-4.9,7.5-7.5,7.7c1-2.2,2-4.5,3.1-6.7c-0.2-0.1-0.4-0.3-0.7-0.4c-1,1.5-1.9,3.1-2.9,4.5
						c-1.7,2.4-2,5.9-5.5,6.9c-0.4,0.1-0.7,0.8-0.9,1.2c-2.3,3.8-5.2,7.1-9.5,10c1.4,0.6,2.5,1,3.6,1.5c0.1,0.1,0.4,0,0.4,0.1
						c0.8,4.2,1.8,0,2.7,0c0.4,0,0.9-0.6,1.3-0.9c1.3-0.8,2.4-1.6,3.4-3c1.1-1.6,3.6-2.1,5.5-3.1c0.2,0.2,0.5,0.4,0.7,0.5
						c-0.3,0.7-0.6,1.4-0.8,2.1c-0.1,0.7-0.1,1.5-0.1,2.2c0.2,0,0.5,0.1,0.7,0.1c-0.3,0.2-0.6,0.4-1,0.8c1.3,0.6,2.3,1.5,3.4,1.4
						c1.4,0,2.8-0.8,4.6-1.4c-1.1-0.7-1.7-1-2.3-1.4c3.2-3,7.2,1.2,10.6-1.5c-1.4-0.2-2.5-0.4-3.6-0.6c0-0.3-0.1-0.6-0.1-0.9
						c1.6-0.4,3.2-0.9,5.1-1.4c-0.9-0.1-1.5-0.2-2.6-0.4c1.9-1.1,3.4-2,5.4-3.2c-1.9-0.4-3.3-0.7-4.6-1c0-0.2,0-0.5,0-0.7
						c0.9,0.1,1.8,0.3,2.6,0.1c1-0.2,2-0.8,2.9-1.3c1-0.7,1.8-1.6,3-2c0.4-0.8,0.8-1.6,1.3-2.7c-1,0.2-1.6,0.3-2.1,0.4
						c-0.1-0.2-0.1-0.3-0.2-0.5c2.9-1.6,5.9-3.3,8.8-4.9c0.1,0.1,0.1,0.2,0.2,0.3c-0.4,0.3-0.9,0.6-1.3,0.9c0.1,0.2,0.3,0.4,0.4,0.6
						c1.1-0.8,2.1-1.5,3.4-2.4c-3-1.3-5.2-0.6-6.9,1.3c-0.7,0.7-1.9,1-3.1,1c0.6-0.6,1.1-1.2,2.1-2.3C67.2,45,66,45.3,65,45.5
						c0.7,1.1,1.1,1.9,1.7,2.8c-1.6-0.4-2.9-0.7-4.5-1.1c0.3-0.1,0.7-0.4,1.2-0.6c-0.1-0.2-0.3-0.4-0.4-0.6c-0.8,0.4-1.6,0.7-2.2,1
						c-0.1-0.6-0.1-1.3-0.2-2.3c1-0.7,2.3-1.6,3.8-2.6c-1.6-0.4-2.5,1.9-4.2,0.2c-0.4-0.4-2.4,0.9-4,1.1c1-0.8,2.1-1.6,3.6-2.7
						c-1.5,0.5-2.5,0.8-3.3,1c0.2-0.7,0.4-1.5,0.5-2.2C56.8,39.7,56.4,39.8,56.1,39.9z"/>
					<path d="M60,98.5c0.8,0.3,1.4,0.5,2.1,0.8c-0.4,2.7-0.2,2.8,2.5,2.3c0.7-0.1,1.5,0.2,2.9,0.4c0.7,1.3,1.9,1.1,3.3-0.6
						c0.6,0.6,1.1,1.2,1.5,1.6c1.3,0,2.5,0,3.8,0c0-0.9-0.1-1.7-0.1-2.7c1.5,1.2,2.9,2.3,4.4,3.5c0.1-0.5,0.1-0.8,0.1-1.1
						c2.7,0.6,5.2,1.2,7.8,1.8c1.2-2.8-0.3-5.1-5.6-8.3c0.1-0.2,0.1-0.4,0.2-0.6c1.3,0.3,2.6,0.6,3.8,1c2.8,1.1,3.8,0.9,5.1-1.7
						c-0.7-1-1.4-1.9-2.1-2.9c-0.1,0.1-0.3,0.2-0.4,0.2c0.1,0.4,0.2,0.7,0.3,1.1c-0.1,0.1-0.2,0.2-0.3,0.3c-1-1-2-2-3.2-3.2
						c1.4-0.2,2.7-0.3,3.9-0.5c0-0.2,0-0.4,0-0.5c-0.9-0.4-1.8-0.8-2.6-1.2c0-0.2-0.1-0.4-0.1-0.7c0.7-0.2,1.3-0.5,2-0.6
						c2-0.3,2.8-1.3,2.4-3.3c-0.2-0.8-0.4-1.7-0.6-2.5c-0.1-0.7-0.1-1.5-0.2-2.4c1,0,2,0,3.1,0c0-1.7-0.2-2.7-2.4-2.8
						c-1.5-0.1-2.8-1.5-4.3-2.3c-0.5-0.3-1.1-0.2-1.7-0.3c-0.2,0.3-0.4,0.6-0.6,0.9c0.5,0.3,1,0.6,1.7,0.9c-0.7,0.2-1.5,0.5-2.3,0.8
						c0,0.9,0,1.9,0,2.8c-2.3,1-4.7,2-7.1,3.2c-0.5,0.2-0.8,0.8-1.2,1.2c-1.4,1.5-2.8,3.2-4.1,4.7C68.2,92,63.2,94.1,60,98.5z
						 M81.5,99.4c0.1-0.2,0.3-0.5,0.4-0.7c2.5-0.2,3.6,1.5,4.3,3.8C84.7,101.4,83.1,100.4,81.5,99.4z"/>
					<path d="M-79,103.7c1.4-1.1,2.8-2.1,4.3-3.3c-0.1,0.8-0.1,1.6-0.2,2.8c1.9-0.3,3.5-0.5,5.1-0.8c0-0.3-0.1-0.6-0.1-0.9
						c1.3,0.7,2.7,2.5,3.6,0.2c1.8,0,3.4,0.1,4.9-0.1c0.3,0,0.5-1.4,0.8-2.5c0.2-0.1,0.9-0.4,2-0.8c-2.3-1.9-4.4-3.6-6.4-5.3
						c-1.5-1.3-3-2.6-4.5-4c-1.2-1.1-2.5-2.2-3.6-3.4c-0.5-0.5-0.6-1.3-1.1-1.8c-1.8-1.8-3.8-3.4-6.6-3.6c-0.8-0.1-1.6-0.7-2.4-1.1
						c0-0.9,0-1.9,0-3c-0.7-0.2-1.5-0.5-2.4-0.8c0.5-0.4,0.9-0.8,1.4-1.3c-0.3-0.2-0.6-0.5-0.7-0.5c-1.4,0.6-2.7,1.1-4.1,1.7
						c-0.6,0.3-1.2,1-1.8,1c-2-0.1-2.2,1-2.1,2.6c1,0,2,0,3.1,0c-0.3,1.7-0.5,3.4-0.8,5.1c-0.4,2,0.3,3,2.3,3.2
						c0.7,0.1,1.4,0.4,2.1,0.6c0,0.2,0,0.4-0.1,0.7c-0.9,0.4-1.8,0.7-2.7,1.1c0,0.2,0,0.4,0,0.6c1.3,0.2,2.6,0.3,3.8,0.5
						c-0.9,1-1.9,2.1-3.3,3.5c0.1-0.9,0.2-1.3,0.3-1.9c-0.5,0.2-1,0.3-1.1,0.6c-0.4,1-0.9,2.1-0.9,3.1c0,0.5,1.2,1.3,1.8,1.3
						c1.1,0,2.3-0.5,3.4-0.8c1-0.3,2.1-0.5,2.9-0.6c-1.9,2.2-3.7,4.3-5.4,6.5c-0.4,0.5,0,1.5,0,2.2c0.6-0.1,1.1-0.2,1.7-0.3
						c2.1-0.5,4.2-0.9,6.2-1.4C-79.4,102.8-79.2,103.3-79,103.7z M-80.9,98.6c0.2,0.2,0.3,0.5,0.5,0.7c-1.6,1.1-3.3,2.1-4.9,3.2
						c-0.1-0.2-0.2-0.3-0.3-0.5C-84.4,100.4-83.4,98.4-80.9,98.6z"/>
					<path d="M-47.9,29.5c0.2,0.2,0.4,0.3,0.5,0.5c1.4,1.3,2.8,2.6,4.1,3.9c-0.3,0.3-0.7,0.5-0.8,0.6c-0.8-0.7-1.5-1.4-2.2-1.9
						c-1.2-0.9-2.4-1.7-3.5-2.6l0.1,0c-0.1,0.5-0.5,1.1-0.4,1.5c0.2,0.6,0.8,1.1,1.4,1.9c-1.5-0.1-2.6-0.1-4.2-0.2
						c1.8,1.6,3.2,2.9,4.7,4c0.5,0.4,1.6,0,2.1,0.4c2,1.8,3.9,3.8,6.2,6.2c-0.5-1.2-0.8-1.9-1.4-3.2c1,0.6,1.5,0.9,2.2,1.4
						c0-0.8-0.1-1.4-0.1-1.9c1,1.2,2,2.4,3.1,3.7c-0.4-4.8-2.4-11.7-12.1-15.2C-48.1,29-48,29.2-47.9,29.5z"/>
					<path d="M52.3,30c0.2-0.2,0.4-0.4,0.5-0.6c-0.5,0.1-1,0-1.5,0.2c-0.8,0.2-1.6,0.5-2.3,0.8c-2.2,1.4-4.4,2.7-5.4,5.3
						c-0.9,2.5-2.1,5-3.1,7.4c0.2,0.1,0.5,0.3,0.7,0.4c1-1.1,2-2.3,3-3.4c0,0.4,0,1,0,1.7c0.7-0.4,1.2-0.8,2.2-1.4
						c-0.6,1.2-0.9,1.9-1.2,2.6c0.1,0.2,0.3,0.3,0.4,0.5c2.8-5.4,8.4-7,13-10.6c-1.7,0.2-3.1,0.3-4.7,0.5c0.6-1,1-1.8,1.5-2.6
						c-0.1-0.1-0.2-0.2-0.4-0.3c-2.2,1.3-4.3,2.5-6.5,3.8c-0.2-0.2-0.3-0.5-0.5-0.7C49.4,32.5,50.8,31.2,52.3,30z"/>
					<path d="M-67.6,40.1c0.3-0.4,0.6-0.7,0.9-1.1c-0.1-0.2-0.2-0.3-0.3-0.4c-1.3-1.2-2.7-2.4-3.9-3.6c-1-1-1.9-2.1-2.8-3.2
						c-0.2,0.2-0.5,0.4-0.7,0.5c1.1,2,2.3,3.9,3.4,5.8c-0.1,0-0.6,0.1-1,0.2c1.8,1.7,3.5,3.6,5.6,5c0.7,0.5,2.2,0.1,3.5,0.1
						C-64.5,42.4-65.9,41.3-67.6,40.1z"/>
					<path d="M76.7,38.3c0,0-0.5-0.1-0.7-0.1c1.1-1.9,2.3-3.9,3.4-5.9c-2.3,1-4.2,2.1-4.9,4.7c-0.2,0.8-1.8,1.3-2.9,2
						c0.2,0.3,0.5,0.7,0.8,1.1c-1.5,1.2-3,2.2-4.7,3.5c1.3,0.6,2.4-1.7,3.3,0.2c1.2-0.9,2.4-1.8,3.5-2.8
						C75.4,40.2,76,39.2,76.7,38.3z"/>
					<path d="M-79.8,19.9c-1.6-1.2-2.5-2.2-3.6-2.7c-2.7-1.1-1.4-2.1,0.2-3.4c-1.2,0.1-2.2,0.1-3.4,0.2c-0.1,0.5-0.1,1.1-0.2,1.8
						c-1.1-0.2-2.1-0.3-3.5-0.5C-87.7,19.2-84.1,19.7-79.8,19.9z"/>
					<path d="M90.6,15.5c-2,1.5-3.7,2.8-5.4,4c3.2,0.9,7.6-0.8,9.8-4.2c-1.3,0.1-2.2,0.3-3.3,0.4c-0.1-0.6-0.1-1.1-0.2-1.7
						c-1.1-0.1-2.1-0.2-3.2-0.4c-0.1,0.1-0.1,0.2-0.2,0.3C88.8,14.3,89.4,14.7,90.6,15.5z"/>
					<path d="M5.7,94.3c-0.2,0.5-0.4,0.9-0.7,1.4c-0.5-0.3-0.9-0.6-1.7-1.2c-0.1,1.5-0.7,3.1-0.1,3.8c0.9,1.1,2.6,1.4,4.1,0
						c0.5,0.5,1.1,1,2,1.9c-0.2-0.9-0.3-1.4-0.5-2c0.4,0,0.8,0,1.7,0C8.7,96.8,7.3,95.6,5.7,94.3z"/>
					<path d="M-5,98.3c0.3-0.1,0.7-0.1,1.2-0.2c-0.1,0.6-0.2,1.1-0.4,2.1c0.9-0.8,1.4-1.3,1.5-1.4c1.6,0.1,2.8,0.2,4.3,0.4
						c0-1.5,0-2.7,0-4.2c-0.6,0.3-1.1,0.5-1.6,0.7c-0.2-0.5-0.4-0.9-0.6-1.4c-1.5,1.3-3,2.4-4.4,3.6C-5.1,98-5.1,98.2-5,98.3z"/>
					<path d="M56.1,39.9c0.4-0.1,0.7-0.2,1.1-0.3c0.6-0.4,1.3-0.8,1.9-1.2c0-0.1-0.1-0.2-0.1-0.3c-0.7,0.2-1.4,0.3-2.7,0.6
						c1.4-1.8,4.8-1,4.2-4.4c-2.3,1.7-4.5,3.2-6.6,4.7c0.1,0.3,0.3,0.6,0.4,0.8C54.9,39.9,55.5,39.9,56.1,39.9z"/>
					<path d="M-69.3,26.3c2.7,3.4,4.8,3.9,8.3,2.1C-63.8,27.7-66.3,27.1-69.3,26.3z"/>
					<path d="M74.1,26.4c-2.9,0.7-5.3,1.3-7.9,1.9C68.6,30.3,71.5,29.7,74.1,26.4z"/>
					<path d="M-34.2,49c0.9,1.3,1.6,2.5,2.5,3.7c2.3-2.6-0.6-3.2-1-4.7C-33.1,48.4-33.6,48.7-34.2,49z"/>
					<path d="M36.3,52.4c2.4,0.2,1.3-2.5,2.9-3.3c-0.7-0.4-1.2-0.6-1.6-0.9C37,49.6,34.9,50.4,36.3,52.4z"/>
					<path d="M40.9,27.6c-1.2,2.4-2.4,4.8-3.6,7.3c0.3,0.1,0.5,0.3,0.8,0.4c1.1-2.4,2.2-4.9,3.3-7.3C41.2,27.8,41,27.7,40.9,27.6z"
						/>
					<path d="M-33.1,35.3c0.2-3.1-1.1-5.5-3.5-7.8C-35.3,30.3-34.2,32.8-33.1,35.3z"/>
					<path d="M81.5,33.5c-1,1.4-2,2.8-2.9,4.2c0.2,0.2,0.5,0.4,0.7,0.5c1.1-1.3,2.1-2.6,3.2-4C82.1,34,81.8,33.8,81.5,33.5z"/>
					<path d="M-77.4,34.3c1,1.3,2.1,2.6,3.1,4c0.2-0.2,0.5-0.3,0.7-0.5c-1-1.4-1.9-2.7-2.9-4.1C-76.8,33.8-77.1,34-77.4,34.3z"/>
					<path d="M71.1,15.9c-1.3,0.9-2.3,1.5-3.3,2.2c-0.1,0.1,0.2,0.7,0.3,1c1-0.3,2.1-0.5,3-1.1C71.3,17.9,71.1,16.9,71.1,15.9z"/>
					<path d="M-66.2,15.9c0.1,1-0.2,2,0.2,2.3c0.8,0.6,1.8,0.8,2.8,1.1c0.1-0.4,0.4-1,0.3-1.1C-63.8,17.5-64.7,16.9-66.2,15.9z"/>
					<path d="M79.3,30.3c1.1-1.2,2.1-2.4,3.2-3.6c-0.2-0.2-0.4-0.4-0.6-0.6c-1.1,1.2-2.2,2.4-3.4,3.5C78.8,29.8,79,30,79.3,30.3z"/>
					<path d="M-73.6,29.6c-1.1-1.2-2.2-2.4-3.2-3.7c-0.2,0.2-0.4,0.4-0.7,0.6c1,1.3,2.1,2.5,3.1,3.8C-74.1,30.1-73.8,29.9-73.6,29.6
						z"/>
					<path fill="#FFFFFF" d="M-15.7,10.5c-1.7,5.9-3.6,11.7-1.3,18.3c0.6-0.5,1.1-0.7,1.2-1.1c0.6-2.2,0.6-4.7,1.7-6.5
						c1.9-3,1.1-5.9,0.7-8.9c-0.1-0.8-1-1.5-1.5-2.2C-15.1,10.3-15.4,10.4-15.7,10.5z"/>
					<path fill="#FFFFFF" d="M17.4,17c0.5,1.2,1.2,2.4,1.6,3.6c0.7,2,1.3,4.1,1.9,6.2c0.2,0.5,0.4,1,0.6,1.5c0.4-0.5,1-0.9,1.1-1.5
						c1-5.2,0-10.3-1.6-15.3c-0.1-0.5-0.9-1.2-1.2-1.1c-0.6,0.2-1.3,0.7-1.4,1.3c-0.3,1.6-0.4,3.3-0.6,5
						C17.7,16.9,17.5,16.9,17.4,17z"/>
					<path fill="#FFFFFF" d="M41.6,12.3c0.9-0.9,1.7-1.6,2.4-2.2C44.6,9.6,45.2,9,46,8.4c-1.2-0.5-1.9-0.7-2.7-1.1
						C42.9,9,40.6,10.1,41.6,12.3z"/>
					<path fill="#FFFFFF" d="M-36,12c-0.8-1.6-1.5-3.2-2.3-4.8c-0.9,0.4-1.6,0.6-2.7,1.1c1.5,1.3,2.8,2.6,4.2,3.8
						C-36.5,12.1-36.2,12-36,12z"/>
					<path fill="#FFFFFF" d="M-49.8,30c1.2,0.9,2.4,1.7,3.5,2.6c0.7,0.6,1.4,1.2,2.2,1.9c0.1-0.1,0.5-0.4,0.8-0.6
						c-1.4-1.3-2.8-2.6-4.1-3.9c0.3,0.4,0.6,0.9,0.9,1.3c-0.1,0.1-0.2,0.2-0.3,0.4C-47.7,31.1-48.8,30.5-49.8,30z"/>
					<path fill="#FFFFFF" d="M47.2,22.9c0.4-0.2,0.8-0.4,1.5-0.9c-0.1,0.9-0.2,1.4-0.3,2c2.8-3.2,2.8-3.6,0.2-5
						C48.1,20.4,47.7,21.7,47.2,22.9C47.2,23,47.2,22.9,47.2,22.9z"/>
					<path fill="#FFFFFF" d="M-94.7-43.1c1.1,2.3,2.1,4.2,3,6C-91.6-39.4-91.4-41.9-94.7-43.1z"/>
					<path fill="#FFFFFF" d="M-36.8,13.1c0.6,1.4,1.3,2.7,3.1,2.4c0.2-0.2,0.4-0.5,0.5-0.7c-1.1-0.8-2.1-1.6-3.2-2.3
						C-36.5,12.7-36.6,12.9-36.8,13.1z"/>
					<path fill="#FFFFFF" d="M99.2-42.9c-2.7,3.1-2.7,3.1-1.1,4C98.5-40.2,98.9-41.6,99.2-42.9z"/>
					<path fill="#FFFFFF" d="M41.3,12.5c-1.1,0.7-2.1,1.5-3.5,2.5c2.6,0.8,2.7,0.7,3.9-1.9C41.6,12.9,41.4,12.7,41.3,12.5z"/>
					<g>
						<path d="M-49.8,30C-49.8,30-49.8,30-49.8,30C-49.8,30-49.7,30-49.8,30L-49.8,30z"/>
						<path d="M100.2-55c0.1,0.2,0.2,0.4,0.4,0.7c-0.7,0.3-1.3,0.6-2,0.9c-0.2-0.5-0.3-1.1-0.6-1.2c-1-0.5-2.5-1.6-3.1-1.2
							c-1.2,0.7-1.1,2.1-0.1,3.3c1.3,1.7,2.5,3.5,3.9,5.1c1.9,2,2.3,5.6,0.9,8c-0.7,1.2-0.9,2.7-1.6,4.6c1.1-0.6,1.5-0.8,1.8-1
							c0.1,0.1,0.2,0.2,0.2,0.3c-0.4,0.5-0.7,0.9-0.9,1.2c0.7,0.9,1.2,1.7,1.8,2.5c0.9-0.8,1.8-1.7,2.9-2.7c0,1.8,0,3.1,0,4
							c-0.8,0.1-1.5,0.1-1.6,0.3c-0.6,1.6-3.8,2.2-2.2,4.9c-2.3,1.6-2.4,2-0.5,3.1c-0.1,1.5-0.8,3.3-0.2,4.4
							c0.9,1.6,1.8,2.9,2.3,4.8c0.4,1.7,2,3.1,1.5,5.2c0.7-0.9,1.4-1.9,2-2.8c0.2,0.2,0.5,0.3,0.7,0.5c-0.9,2-1.8,4-2.5,5.4
							c1.4,0,2.9,0,4.7,0c-0.9,0.8-1.7,1.4-2.2,2.1c-0.4,0.5-0.7,1.3-0.5,1.8c0.4,1.2,0.3,1.9-0.9,2.8c-1.4,1.1-3.7,1.8-3.4,4.4
							c0.1,0.6-0.7,1.3-1.1,2c-0.2-0.2-0.4-0.4-0.6-0.6C99.3,7.4,99.2,7,99,6.6c-1,0.5-1.9,0.9-3.5,1.6c1.4,0,2.1,0,2.2,0
							c-1.1,1.7-2.4,3.5-3.4,4.9c-1.3-0.8-2.5-1.6-4.4-2.8c1.6-0.2,2.6,0,3.4-0.4c0.6-0.3,0.9-1.3,1.4-2c-1.6,0-2.7,0-4.1,0
							c0.4-1.7,0.7-2.8,1-4.1c-0.2-0.1-0.8-0.3-1.7-0.6c0.6-0.9,1.1-1.7,1.7-2.4c-0.5-0.1-1.1-0.1-1.8-0.2c0.5-0.5,0.8-0.8,1.3-1.4
							c-0.8,0.1-1.3,0.1-1.8,0.1c-0.1-0.2-0.1-0.4-0.2-0.6c0.9-0.4,1.8-0.8,3.4-1.4c-2.8-0.7-5-1.3-7.3-1.9c0.7-0.4,1.3-0.8,1.9-1.2
							c-0.1-0.2-0.2-0.3-0.3-0.5c-1.2,0.8-2.5,1.6-3.7,2.3c-0.1-0.2-0.2-0.4-0.3-0.6c0.7-0.7,1.4-1.4,2.3-2c0.9-0.6,1.9-1.1,2.9-1.7
							c-0.3-0.3-0.6-0.5-0.9-0.8c-0.5-0.7-1.1-1.4-1.6-2.1c-1.6,0.7-3.5,1.2-4.9,2.3c-1.3,1.1-2.1,2.8-3.1,4.3
							c0.2,0.1,0.4,0.2,0.6,0.4c0.3-0.6,0.6-1.2,1-1.7c0.9,0.2,1.7,0.3,2.8,0.5c-1.1,2.5-4.8,1.9-5.1,4.9c0.7-0.3,1.2-0.6,1.8-0.9
							C78.4,1.3,77,2.8,75,3.6c-2.5,1-3.9,3.1-5.9,5c1.9-0.3,3.5-0.5,5.3-0.7c-3,4.5-6.9,7.4-11.5,8.5c-2.7,0.7-5.1,1.8-7.6,2.5
							c-3.2,0.9-3.1,3.9-4.9,5.5c1.8-1.3,2.9-3.3,4.6-4.4c1.9-1.2,4.4-1.7,6.6-2.5c0.1,0.2,0.2,0.4,0.3,0.7C60.9,18.6,60,19,59,19.5
							c0.4,0.6,0.8,1.2,1.2,1.8c1.1-0.3,1.9-0.6,2.8-0.9c0.1,0.2,0.2,0.4,0.3,0.6c-2.7,1.5-5.3,3-8,4.6c1.3-0.2,2.6-0.4,4.4-0.6
							c-1.4,1-2.5,1.7-3.9,2.7c1.2-0.2,1.9-0.3,2.7-0.4c-2.3,1.6-4.5,3-6.6,4.5c-0.1-0.2-0.2-0.3-0.3-0.5c0.3-0.4,0.5-0.8,0.8-1.1
							c0.2-0.2,0.4-0.4,0.5-0.6c0.6-0.2,1.2-0.3,1.8-0.5c-2.9-1.2-5.2-0.3-7.5,1.4c-1.9,1.5-4,2.8-6,4.2c-0.1-0.1-0.2-0.3-0.3-0.4
							c0.3-0.6,0.6-1.2,0.9-1.9c-0.6,0-1,0-1.6,0c2.4-3.2,4.7-6.2,6.9-9.2c-0.3-0.1-0.6-0.3-0.9-0.4c0.9-3.1,2.2-5.9,5.1-7.7
							c1.1-0.7,1.8-1.9,2.6-2.9c-0.2-0.2-0.3-0.5-0.5-0.7c-0.7,0.2-1.6,0.2-2.1,0.6c-2.1,1.9-4.1,4-6.2,5.9c-0.6,0.5-1.4,0.9-2,1.3
							c-0.1-0.2-0.2-0.4-0.3-0.5c1.1-2.5,2.2-5,3.3-7.5c-0.2-0.1-0.4-0.2-0.6-0.3c-1.2,1.6-2.4,3.3-3.5,4.9c-1,1.5-1.9,3.1-2.6,4.4
							c-0.4-1.1-1-2.4-1.5-3.7c-0.4-0.6-0.2-1.5-0.1-2.3c0.2-1.2-0.1-2.9,0.6-3.5C40.1,9,40.1,7.4,40,5.6c-3.2-0.1-2.2,3.5-4.4,5.1
							c-1.2-11.3,3.6-19.9,9.8-27.5c-0.4-1.4-0.8-2.6-1.3-4c-1.1,1.2-2.2,2.5-3.4,3.9c-2.1,0.2-4.5,0.4-7,0.6c0.6-0.8,1-1.4,1.4-1.9
							c0.5-0.5,1-0.9,1.6-1.4c-0.1-0.1-0.1-0.2-0.2-0.3c-2.3,1.3-4.5,2.6-7.3,4.1c1.4,0.2,2.1,0.4,3.1,0.6c-0.8,0.6-1.4,0.9-1.9,1.3
							c0.3,0.7,0.5,1.3,0.8,1.9c1.9-0.5,3.7-1,6.3-1.6c-2.2,1.5-3.8,2.7-5.7,4c0.8,0.1,1.2,0.1,1.8,0.1C31-8,30-5.6,30.1-3.3
							c0.3,6.3,1,12.6,1.7,18.9c0.5,4.3-0.3,6.6-3.1,10.5c-1.4,2-2.3,4.4-3.2,6.7c-1,2.6-1.8,5.2-2.4,7.9c-0.3,1.2,0.1,2.5,0,3.8
							c-0.1,1.5-0.4,3-0.7,4.6c0.9,2.5,0,4.1-3.3,5.1c-0.9,0.3-1.7,1.3-2.3,2.1c-0.5,0.8-0.7,1.9-1.1,2.9c1.2-0.1,5.7,2.5,6.2,3.6
							c0.1,0.3,0.2,0.6,0.1,0.9c-0.3,3.6-1.1,7-4.1,9.4c-2.3,1.9-4.4,4-7.9,3.2c-1.6-0.3-3.5,0.6-5.1,1.3c-1.7,0.7-3.2,0.5-4.9,0
							c-1.9-0.6-3.9-1-5.9-1.3c-1.2-0.2-2.6,0.1-3.6-0.4c-4.7-2.6-7.8-6.4-7.7-12.1c0-0.7,0.8-1.4,1.3-2c0.5-0.5,1.1-0.8,1.7-1.2
							c1-0.7,2-1.3,3-2.1c-0.1-0.2-0.6-0.8-0.7-1.5c-0.2-1.8-0.9-2.6-2.8-3.1c-3.2-0.8-3.8-2.5-2.3-5c-0.8-1.6-2.2-3-0.8-5
							c0.3-0.4,0.2-1.2,0-1.7c-1.2-4.3-2.4-8.6-3.8-12.8c-0.4-1.3-1.5-2.4-2.4-3.6c-0.1-0.1-0.6,0.2-0.6,0.1
							c-0.6-1.4-1.2-2.5-1.6-3.7c-0.5-1.4-1.1-2.9-1-4.3c0.5-6.4,1.5-12.7,1.9-19.1c0.1-1.9-0.7-3.8-1.3-5.7c-0.3-1-1.1-1.8-1.7-2.7
							c0.2,0,0.6,0,1.5,0c-2-1.4-3.6-2.5-5.2-3.6c0.1-0.1,0.1-0.2,0.2-0.3c1.8,0.5,3.6,1,5.5,1.4c0.3-0.7,0.5-1.3,0.7-1.9
							c-0.6-0.5-1.2-0.9-1.9-1.4c1-0.1,1.8-0.2,2.5-0.3c0.1-0.2,0.1-0.3,0.2-0.5c-2.3-1.3-4.6-2.6-6.9-3.9c-0.1,0.1-0.1,0.2-0.2,0.3
							c1,1,2.1,1.9,3.4,3.1c-1.9,0-3.3-0.1-4.7,0c-2.2,0.2-3.3-1.5-4.7-2.7c-0.5-0.5-1-1.1-1.7-1.8c-0.1,1.4,0.2,2.6-0.2,2.8
							c-2.1,1.3-0.5,2.5,0.3,2.9c1.9,0.8,2.2,2.4,3,3.9c0.5,1,1.3,1.9,2,2.9c0.4,0.6,0.8,1.2,1,1.8c0.5,1.5,0.7,3.2,1.5,4.7
							c2.1,4,1.8,8.2,1,12.5c-0.7-1-0.9-2.1-1.5-3c-0.5-0.8-1.4-1.4-2.1-2c-0.2,0.1-0.3,0.3-0.5,0.4c0.2,1.2,0.4,2.4,0.8,3.5
							c0.4,1,1.2,2,1.4,3c0.4,1.5,0.4,3,0.6,4.6c-2.8,0.2-1.2,2.4-1.6,3.4c-2-3.1-4.2-6.3-6.4-9.6c-0.2,0.1-0.5,0.3-0.7,0.4
							c1.1,2.5,2.2,5,3.3,7.5c-0.4,0.5-0.8,1-1.2,1.4c-1.9-4.2-5-7-9.4-8.4c0.1,1.1,0.4,2.3,1.1,2.7c3.3,1.9,5.3,4.7,5.8,8.6
							c-0.7-1.2-1.5-2.4-2.2-3.6c-2.2,1.4-2.2,1.4,0.5,5.1c-0.1-0.8-0.1-1.3-0.2-1.9c0.2-0.1,0.3-0.1,0.5-0.2c2.6,3.3,5.2,6.5,8,9.9
							c-0.8,0-1.2,0-1.7,0c0.3,0.8,0.5,1.4,0.9,2.6c-2.7-1.9-4.9-3.3-7-4.9c-2.3-1.7-4.8-2.2-6.9-0.9c0.7,0.2,1.3,0.4,1.9,0.6
							c0.2,0.2,0.4,0.3,0.5,0.5c0.3,0.4,0.6,0.9,0.9,1.3c-0.1,0.1-0.2,0.2-0.3,0.4c-1-0.5-2-1.1-3-1.6c-1.2-1-2.4-1.9-3.5-2.8
							c0.5,0.1,1.3,0.2,2.5,0.3c-1.2-0.8-2-1.4-3.4-2.3c1.7,0.1,2.8,0.2,3.8,0.2c-2.7-1.5-5.4-3-8.1-4.6c3.7-0.1,3.7-0.1,4.1-1.5
							c-0.9-0.5-1.8-0.9-2.6-1.3c0.8-0.4,1.5-0.5,2-0.2c1.9,0.9,3.3,2.8,5.8,2.2c0.1,0,0.4,0.2,0.5,0.4c1.2,2.8,1.2,2.8,3.5,3.9
							c-3.3-4.8-3.3-4.8-8.3-6.8c-0.8-0.3-1.5-0.7-2.3-0.9c-2-0.5-4.4-0.5-6-1.6c-2.8-1.8-5.1-4.3-7.7-6.5c0.1-0.2,0.2-0.4,0.3-0.6
							c1.6,0.3,3.2,0.5,4.8,0.8c-1.2-1.4-2.1-3.3-3.5-4c-2.5-1.3-5-2.2-5.7-5.2c0-0.2,0-0.4,0.1-0.7c0.6,0.4,1.1,0.7,1.6,1
							c0.2-0.2,0.3-0.5,0.5-0.7c-1.8-1.3-3.7-2.6-5.5-3.9c0.1-0.2,0.3-0.3,0.4-0.5c0.9-0.1,1.7-0.2,2.4-0.3c0.4,0.6,0.8,1.1,1.1,1.6
							c0.2-0.2,0.3-0.3,0.5-0.5c-1.8-3.3-4.6-5.4-8.1-6.5c-0.6,0.8-1.1,1.5-1.6,2.3c-0.2,0.2-0.4,0.3-0.6,0.5
							c1.8,1.2,3.5,2.5,5.3,3.7c-0.2,0.3-0.5,0.6-0.7,0.8c-1.2-0.8-2.4-1.6-3.6-2.3C-81.8-6-81.9-5.8-82-5.6
							c0.6,0.4,1.2,0.8,1.6,1.1c-2.2,0.6-4.3,1.3-6.9,2c1.4,0.7,2.3,1.1,3.2,1.5c-0.1,0.1-0.1,0.3-0.2,0.4c-0.5,0-1,0-1.9,0
							c0.6,0.5,1,0.7,1.7,1.2c-1,0.1-1.5,0.2-2.1,0.2c0.6,0.7,1.1,1.3,1.7,2c-0.8,0.5-1.4,0.9-1.5,1c0.3,1.4,0.5,2.5,0.8,4
							c-1.3,0-2.4,0-3.8,0c-0.7,3.1,3.5,1,3.8,2.9c-1.3,0.8-2.6,1.6-3.8,2.3c-1-1.5-2.3-3.3-3.5-4.9c0.3,0,1,0,1.7,0.1
							c0-0.1,0-0.2,0.1-0.4c-1-0.4-1.9-0.8-2.9-1.3c-0.1,0.5-0.2,0.9-0.4,1.5c-0.7-0.8-1.3-1.3-1.8-1.9C-97,5.2-97.4,4-98.2,3
							c-1.1-1.3-3.6-1.9-2.1-4.5c0.1-0.2-0.5-1-0.8-1.4c-0.6-0.7-1.3-1.3-2.1-2.1c1.8,0.1,3.4,0.2,5,0.2c-0.3-1.7-3.5-2.8-1.8-5.8
							c0.6,1,1.2,1.9,1.8,3c0.2-1.6-0.1-3.1,0.6-4c0.6-0.8,1.1-1.1,0.8-2.3c-0.2-0.6,0.1-1.6,0.6-1.9c2.6-1.8,1.9-4.2,1.3-6.6
							c2-1,2-1.3-0.4-3.1c0.9-1.4,0.9-1.4-2.6-5.4c-0.3,0.2-0.6,0.5-1.2,1c0-1.7,0-3,0-4.8c1.2,1.1,2.2,1.9,3,2.7
							c0.5-0.8,1-1.6,1.6-2.5c-0.2-0.3-0.5-0.7-1.2-1.8c1,0.5,1.4,0.8,1.7,1c0.2-0.1,0.4-0.2,0.6-0.3c-0.5-1.3-1-2.7-1.6-4
							c-1.2-2.3-1.2-6,0.8-7.5c2.8-2.2-9.6-21.3-4.8-21.2c0.1,0-1.2-8.2-1.1-8.3c2.5-2.3,4.9-11.7,7.7-13.7c8.4-6.1,31.6,3.9,41-0.1
							c10.5-4.6,22.7-2.6,34-2.8c17.3-0.3,33.9-9.5,51.3-9.5c10.9,0,37.6,9.3,47.9,13.4c6.8,2.7,12.4,6.1,19.2,8.9
							c2.7,1.1,9.7,16.3,11.5,18.6C114.8-59.1,98-57.4,100.2-55z M98.1-38.8c0.4-1.4,0.8-2.7,1.1-4C96.6-39.8,96.6-39.8,98.1-38.8z
							 M48.5,19.1c-0.4,1.3-0.8,2.5-1.2,3.8c0.3-0.2,0.7-0.4,1.4-0.8c-0.1,0.9-0.2,1.4-0.3,2C51.1,21,51.1,20.6,48.5,19.1z
							 M-94.7-43.1c1.1,2.3,2.1,4.2,3,6C-91.6-39.4-91.4-41.9-94.7-43.1z M-33.7,15.6c0.2-0.2,0.4-0.5,0.5-0.7
							c-1.1-0.8-2.1-1.6-3.2-2.3c-0.2,0.2-0.3,0.4-0.5,0.6C-36.2,14.6-35.5,15.8-33.7,15.6z M-36.8,12.1c0.3-0.1,0.5-0.1,0.8-0.2
							c-0.8-1.6-1.5-3.2-2.3-4.8c-0.9,0.4-1.6,0.6-2.7,1.1C-39.5,9.7-38.1,10.9-36.8,12.1z M19,20.7c0.7,2,1.3,4.1,1.9,6.2
							c0.2,0.5,0.4,1,0.6,1.5c0.4-0.5,1-0.9,1.1-1.5c1-5.2,0-10.3-1.6-15.3c-0.1-0.5-0.9-1.2-1.2-1.1c-0.6,0.2-1.3,0.7-1.4,1.3
							c-0.3,1.6-0.4,3.3-0.6,5c-0.1,0.1-0.3,0.1-0.4,0.2C17.9,18.2,18.6,19.4,19,20.7z M16-18.4c0.6-0.1,1.1-0.1,1.6-0.3
							c1.2-0.3,2.1-0.7,1.9,1.4c-0.1,1.2,0.7,2.6,1.4,3.8c0-2.9,0-5.7,0-8.8c-2.3-1.4-3.3,2-5.6,1.5C15.6-19.7,15.8-19.1,16-18.4z
							 M14.1-22.2c1.2-0.8,2-1.3,3.2-2.1c-0.5,0.8-0.8,1.4-1.1,1.9c-0.1,0.1-0.2,0.2-0.2,0.4c0.1-0.1,0.1-0.2,0.2-0.4
							c1.1-1.5,4.5-1.2,3.6-4.5c-1.9,1.8-3.7,3.2-7,1.8C13.3-23.9,13.7-23.1,14.1-22.2z M20.5-32.1c-0.2-0.1-0.5-0.3-0.7-0.4
							c-1,1.3-2,2.6-3,4c-0.6,0-1.3,0.1-2.4,0.1c0.2,0.8,0.3,1.9,0.7,2.1c0.6,0.3,1.6-0.1,2.3-0.4c0.4-0.2,0.7-0.8,1-1.2
							C20.4-28.8,19.5-30.8,20.5-32.1z M-8.9-22.8c0.2-0.3,0.6-1,1-1.7c-3,0.7-5-0.3-7-2.7c0,2-0.3,3.2,1.6,3.4
							C-12.1-23.7-10.8-23.3-8.9-22.8z M-12.9-30.5c0.1-0.5-1.2-1.2-2.2-2.1c0,2.8,1.8,6.1,3.7,6.6c0.6,0.2,1.4-0.5,2.2-0.7
							c-0.5-0.5-0.8-1.3-1.4-1.6C-11.6-28.9-13.3-28.4-12.9-30.5z M-12.2-18.5c0.7-0.4,1.4-0.9,2-1.8c-2.3-0.1-3.3-3.2-5.7-2
							c0,3,0,5.9,0,8.8c0.2,0,0.3,0.1,0.5,0.1c0.5-2.5,0.9-5,1.5-7.8c0.3,0.2,1.2,0.6,2.5,1.2c-0.9,0.6-1.3,0.7-1.7,1
							C-12.8-18.8-12.4-18.4-12.2-18.5z M-17,28.8c0.6-0.5,1.1-0.7,1.2-1.1c0.6-2.2,0.6-4.7,1.7-6.5c1.9-3,1.1-5.9,0.7-8.9
							c-0.1-0.8-1-1.5-1.5-2.2c-0.3,0.1-0.6,0.2-0.8,0.4C-17.4,16.4-19.3,22.2-17,28.8z M-28.2-32.6c0.4,1.2,0.9,2.8,1.5,4.6
							c-1.7-0.1-3.7-0.2-5.7-0.3c0,0.2-0.1,0.4-0.1,0.7c1.6,0.4,4.2-0.8,4,2.4c-0.4,0.1-0.9,0.2-1.4,0.4c1.5,2.4,2.8,4.8,6,4.7
							c0.4-1.1,0.8-2.2,1.1-3.2c-1-0.8-2-1.7-3.5-3c1.2,0.2,1.8,0.3,2.4,0.4c0.1-0.9,0.2-1.6,0.3-2.3c-1-0.6-2.3-1.2-3.5-1.9
							c0.1-0.2,0.1-0.5,0.2-0.7c1.4,0.3,2.7,0.6,3.8,0.8c0.2-1.2,0.5-2.3,0.5-3.3c0-1-0.3-2.6-0.8-2.7c-1.1-0.3-2.4,0.1-3.6,0.3
							c0,0.2,0.1,0.4,0.1,0.7c0.5-0.1,0.9-0.1,1.9-0.3C-26.2-34.5-27.1-33.7-28.2-32.6z M-10-60.7c-2.4,1.5-4.7,3-7.1,4.5
							c0,0,0.3,0.5,0.9,1.5c-2.4,0-4.4,0-6.7,0c1.6,0.7,2.9,1.3,4.2,1.9c-0.1,0.2-0.2,0.5-0.3,0.7c-1-0.4-2-0.8-3.6-1.5
							c1.2,1,1.9,1.6,2.5,2.2c-0.1,0.1-0.1,0.3-0.2,0.4c-0.8-0.3-1.6-0.6-2.4-0.9c0,0.1-0.1,0.2-0.1,0.2c0.7,0.5,1.5,1.1,2.4,1.8
							c-0.9,0.2-1.6,0.4-2.8,0.7c1,0.3,1.5,0.5,2,0.6c-0.8,2.1-2.1,3.5-5.1,3.7c1.5,0.6,2.3,0.9,3,1.2c0.2,1.6-3.6,2.4-0.7,4.4
							c-0.3,0.2-0.7,0.5-1.1,0.8c0.1,0.2,0.1,0.3,0.2,0.5c1.6-0.6,3.2-1.2,4.9-1.7c-0.2-0.1-0.4-0.2-0.6-0.2
							c1.2-3.1,2.1-6.3,3.6-9.2c1.2-2.3,3.2-4.1,4.7-6.3c1.1-1.5,2-3.2,3-4.8C-9.6-60.3-9.8-60.5-10-60.7z M-8.4-44
							c-1.2,0.8-2.6,1.8-4.1,2.9c0-0.1-0.2-0.8,0-1.1c1.2-1.4,1.6-2.5-0.1-3.9c-0.8-0.7-1.1-2-1.9-3.6c-0.1,1.7-0.2,2.7-0.3,4.1
							c-0.5-0.6-0.8-0.9-1.2-1.2c0.5,1.9,0.7,3.4-1.7,2.9c-0.2,0.8-0.2,1.5-0.5,2c-0.6,1.4,0.8,5.6,2.3,6c0.3,0.1,0.8-0.4,1.2-0.7
							c-0.6-0.7-1.1-1.3-2-2.4c2.3,1,4.2,1.4,3.5,4.2c-0.2,0.6,0.2,2,0.5,2.1c0.9,0.2,1.9-0.1,3-0.2c0,0.2-0.1,0.6-0.2,1.3
							c0.6,0.1,1.4,0.2,2.4,0.3c-0.6,0.7-1.1,1.2-1.5,1.8c0.1,0.2,0.2,0.5,0.4,0.7c0.6-0.3,1.4-0.4,1.6-0.8c1.8-3.4,1.5-4.5-1.8-6.1
							c0.8-0.7,1.5-1.5,2.3-2c2.5-1.6,2.6-2.9,0.3-4.6C-6.8-42.7-7.4-43.2-8.4-44z M4.6-46c-1.4,1.8-3.8-1.7-5.4,1.1
							c-0.3,0.5-3.1-0.4-4.9-0.7c0.4,0.9,0.8,1.7,1.1,2.6c0.4,1.1,0.6,2.2,0.9,3.3c0.3,0.9,0.6,1.8,0.9,2.7c0.8-0.5,1.7-0.9,2.5-1.5
							C0-38.8,0.2-39.4,0.5-40c0.8,0.6,1.3,1,1.9,1.4c0.8-1.5,1.5-1.6,2.7-0.2c0.5,0.6,1.1,1.3,1.8,1.5c0.5,0.1,1.7-0.3,1.8-0.7
							c0.6-2.5,1-5.1,1.4-7.5C8.5-45.4,6.4-44.3,4.6-46z M16.7-45c-0.2,0.6,0.3,1.6,0.6,2.4c0.1,0.5,0.3,1,0,1.5
							c-0.8-0.7-1.5-1.6-2.4-2.1c-2.4-1.2-3.7,0.7-4.9,2.2c-1,1.2-0.1,2.3,1.1,3c0.9,0.6,1.8,1.4,2.1,1.7c-0.9,1.6-1.5,2.8-2.2,4
							c1.5,0.6-0.3,4.1,3.3,3.2c-0.6-0.7-1.1-1.2-1.8-2c1-0.2,1.8-0.3,2.5-0.4c-0.1-0.5-0.2-1-0.3-1.4c1.1,0.2,2.2,0.7,2.8,0.4
							c0.6-0.3,0.9-1.7,0.8-2.4c-0.5-2.1,0.7-2.7,2.3-3.3c0,0.8,0,1.7,0,2.8c3.1-2.4,3.4-5,2.3-8.2c-0.5-0.2-1.3-0.5-2.2-0.9
							c0.4-0.7,0.6-1.3,0.9-1.9c-0.1-0.1-0.2-0.1-0.3-0.2c-0.4,0.4-0.8,0.7-1.1,1c-0.3-1.1-0.6-2.2-0.8-3.3c0-0.5,0.1-0.9,0.2-2
							c-1.6,1.9-2.9,3.5-4.1,5c0.1,0.1,0.3,0.2,0.4,0.2c1.1-1,2.2-2,3.4-3C18.2-47.5,17.3-46.3,16.7-45z M28.1-49
							c-1.2-0.3-1.9-0.6-2.7-0.8c1.4-1,2.7-2,4-3c-0.1-0.2-0.2-0.3-0.4-0.5c-1.2,0.9-2.3,1.7-3.5,2.6c-0.2-0.2-0.3-0.4-0.5-0.6
							c0.7-0.6,1.4-1.2,2.6-2.2c-1.6,0.6-2.5,1.1-3.5,1.5c-0.1-0.2-0.3-0.4-0.4-0.6c1.3-0.6,2.5-1.3,4-2c-1.7,0.1-3.1,0.3-4.6,0.4
							c-2,0.1-2-0.8-1.3-1.7c-1.2-0.9-2.4-1.9-3.7-2.6c-0.9-0.5-2-0.5-3-0.7c0.2,0.9,0.3,1.9,0.8,2.6c1,1.3,2.4,2.4,3.3,3.8
							c1.7,2.6,3.3,5.4,4.6,8.2c0.7,1.5,0.9,3.4,1.3,5.4c1.4,0.5,3,1.1,4.5,1.6c0.1-0.2,0.2-0.3,0.3-0.5c-0.4-0.3-0.7-0.6-1.2-0.9
							c3.6-2-0.9-2.7-0.6-4.4c0.7-0.3,1.5-0.6,2.3-0.9c-2.3-0.5-3.7-1.7-4.3-4C26.6-48.5,27.1-48.7,28.1-49z M37.4-28.3
							c-2,0.1-4,0.2-5.8,0.3c0.6-1.7,1.1-3.3,1.6-4.7c-1-0.9-2-1.7-3.5-3c1.1,0.2,1.7,0.3,2.2,0.4c0-0.2,0-0.4-0.1-0.4
							c-1.2-0.1-2.4-0.5-3.5-0.3c-0.4,0.1-0.4,1.8-0.5,2.7c0,0.9,0.1,1.8,0.2,3.1c1.1-0.3,2.4-0.6,3.8-1c0.1,0.3,0.2,0.5,0.3,0.8
							c-1.2,0.7-2.5,1.4-3.5,2c0.1,0.7,0.2,1.5,0.4,2.3c0.6-0.1,1.2-0.3,2.4-0.5c-1.4,1.3-2.4,2.2-3.4,3.2c0.4,1.1,0.7,2.1,1.1,3.2
							c2.8-0.2,4.6-2,5.9-4.8c-0.5-0.1-0.9-0.1-1.3-0.2c-0.6-3.6,2.5-1.9,4-2.5C37.5-27.9,37.4-28.1,37.4-28.3z M37.8,15
							c2.6,0.8,2.7,0.7,3.9-1.9c-0.1-0.2-0.3-0.4-0.4-0.6C40.2,13.2,39.2,14,37.8,15z M43.3,7.3c-0.4,1.7-2.7,2.8-1.7,5.1
							c0.9-0.9,1.7-1.6,2.4-2.2C44.6,9.6,45.2,9,46,8.4C44.8,7.9,44.1,7.6,43.3,7.3z"/>
					</g>
					<path fill="#FFFFFF" d="M85.4,99.4c1.6,1,3.1,2.1,4.7,3.1c-0.7-2.3-1.8-4.1-4.3-3.8C85.7,98.9,85.6,99.1,85.4,99.4z"/>
					<path fill="#FFFFFF" d="M-80.9,98.6c-2.5-0.2-3.5,1.8-4.8,3.4c0.1,0.2,0.2,0.3,0.3,0.5c1.6-1.1,3.3-2.1,4.9-3.2
						C-80.5,99-80.7,98.8-80.9,98.6z"/>
				</g>
			</g>
		</g>
		<g>
			<path d="M-74.3,139.9l0.4-1.3c0.1-0.3,0-0.4-0.3-0.4h-5c-0.3,0-0.4,0.2-0.3,0.4l0.4,1.3v3h-4.7v-10.7l7.7-3.2
				c0.2-0.1,0.3-0.2,0.4-0.3l1.2-1.9c0.1-0.2,0.2-0.3,0.2-0.5v-13.9c0-0.2-0.1-0.3-0.2-0.5l-1.9-1.9c-0.2-0.2-0.3-0.2-0.5-0.2h-8.9
				c-0.2,0-0.3,0.1-0.5,0.2l-2,1.9c-0.2,0.2-0.2,0.3-0.2,0.5v5l-0.4,1.3c-0.1,0.3,0.1,0.4,0.3,0.4h5c0.3,0,0.4-0.2,0.3-0.4l-0.4-1.3
				v-3h4.7v10.7l-7.7,3.2c-0.2,0.1-0.3,0.2-0.4,0.3l-1.3,1.9c-0.1,0.2-0.2,0.3-0.2,0.5V145c0,0.2,0.1,0.3,0.2,0.5l2,1.9
				c0.2,0.2,0.3,0.2,0.5,0.2h8.9c0.2,0,0.3-0.1,0.5-0.2l1.9-1.9c0.2-0.2,0.2-0.3,0.2-0.5V139.9z"/>
			<path d="M-55.4,135l-3.5-9.1c-0.1-0.2-0.2-0.3-0.4-0.3h-1.5c-0.2,0-0.4,0.1-0.4,0.3l-3.6,9.1v-23.4l0.4-1.3
				c0.1-0.3,0-0.4-0.3-0.4h-5c-0.3,0-0.4,0.2-0.3,0.4l0.4,1.3v34.3l-0.4,1.4c-0.1,0.3,0,0.4,0.3,0.4h4.5c0.2,0,0.4-0.1,0.4-0.3
				l4.7-12.4l4.6,12.4c0.1,0.2,0.2,0.3,0.4,0.3h4.5c0.3,0,0.4-0.2,0.3-0.4l-0.4-1.4v-34.3l0.4-1.3c0.1-0.3,0-0.4-0.3-0.4h-5
				c-0.3,0-0.4,0.2-0.3,0.4l0.4,1.3V135z"/>
			<path d="M-34.8,147.7c0.2,0,0.3-0.1,0.5-0.2l1.9-1.9c0.2-0.2,0.2-0.3,0.2-0.5v-32.6c0-0.2-0.1-0.3-0.2-0.5l-1.9-1.9
				c-0.2-0.2-0.3-0.2-0.5-0.2h-8.9c-0.2,0-0.3,0.1-0.5,0.2l-1.9,1.9c-0.2,0.2-0.2,0.3-0.2,0.5V145c0,0.2,0.1,0.3,0.2,0.5l1.9,1.9
				c0.2,0.2,0.3,0.2,0.5,0.2H-34.8z M-36.9,142.9h-4.7v-28.4h4.7V142.9z"/>
			<path d="M-23.1,130.3l6.2,16.6l-0.1,0.3c-0.1,0.3,0,0.4,0.3,0.4h5.5c0.4,0,0.4-0.2,0.2-0.5l-0.8-0.7l-6.6-17.8l6.6-17.7l0.8-0.7
				c0.2-0.3,0.2-0.5-0.2-0.5h-5.5c-0.3,0-0.4,0.2-0.3,0.4l0.1,0.3l-6.2,16.6v-15.6l0.4-1.3c0.1-0.3,0-0.4-0.3-0.4h-5
				c-0.3,0-0.4,0.2-0.3,0.4l0.4,1.3v34.3l-0.4,1.4c-0.1,0.3,0,0.4,0.3,0.4h5c0.3,0,0.4-0.2,0.3-0.4l-0.4-1.4V130.3z"/>
			<path d="M6.2,110.2c-0.1-0.3-0.2-0.4-0.4-0.4H-7.6c-0.3,0-0.4,0.2-0.3,0.4l0.4,1.4v34.3l-0.4,1.3c-0.1,0.3,0,0.4,0.3,0.4H5.8
				c0.3,0,0.4-0.1,0.4-0.4l0.5-3.9c0.1-0.2-0.1-0.4-0.3-0.4h-9.1v-11.8h3l1.4,0.4c0.3,0.1,0.4,0,0.4-0.3v-5c0-0.3-0.2-0.4-0.4-0.3
				l-1.4,0.4h-3v-11.8h9.1c0.2,0,0.4-0.2,0.3-0.4L6.2,110.2z"/>
			<path d="M18.8,127.3v-15.7l0.4-1.4c0.1-0.3,0-0.4-0.3-0.4h-5c-0.3,0-0.4,0.2-0.3,0.4l0.4,1.4v15.9l-4.4,18.6l-0.8,1
				c-0.2,0.3-0.1,0.5,0.2,0.5h5.6c0.3,0,0.4-0.2,0.3-0.4l-0.2-0.8l1.6-9.9l1.6,9.9l-0.3,0.8c-0.1,0.3,0,0.4,0.3,0.4h5.6
				c0.3,0,0.4-0.2,0.3-0.5l-0.8-1L18.8,127.3z"/>
			<path d="M50.7,147.7c0.3,0,0.4-0.1,0.4-0.4l0.5-4c0.1-0.2-0.1-0.4-0.3-0.4H47v-31.3l0.4-1.3c0.1-0.3,0-0.4-0.3-0.4h-5
				c-0.3,0-0.4,0.2-0.3,0.4l0.4,1.3v31.3h-4.4c-0.2,0-0.4,0.2-0.3,0.4l0.5,4c0.1,0.3,0.2,0.4,0.4,0.4H50.7z"/>
			<path d="M69.3,111.6l0.4-1.3c0.1-0.3,0-0.4-0.3-0.4h-5c-0.3,0-0.4,0.2-0.3,0.4l0.4,1.3v16l-4.7-3v-13l0.4-1.3
				c0.1-0.3,0-0.4-0.3-0.4h-5c-0.3,0-0.4,0.2-0.3,0.4l0.4,1.3v34.3l-0.4,1.4c-0.1,0.3,0.1,0.4,0.3,0.4h5c0.3,0,0.4-0.2,0.3-0.4
				l-0.4-1.4v-15.9l4.7,3v13l-0.4,1.4c-0.1,0.3,0.1,0.4,0.3,0.4h5c0.3,0,0.4-0.2,0.3-0.4l-0.4-1.4V111.6z"/>
			<path d="M87.9,110.2c-0.1-0.3-0.2-0.4-0.4-0.4H74.1c-0.3,0-0.4,0.2-0.3,0.4l0.4,1.4v34.3l-0.4,1.3c-0.1,0.3,0,0.4,0.3,0.4h13.4
				c0.3,0,0.4-0.1,0.4-0.4l0.5-3.9c0.1-0.2-0.1-0.4-0.3-0.4H79v-11.8h3l1.4,0.4c0.3,0.1,0.4,0,0.4-0.3v-5c0-0.3-0.2-0.4-0.4-0.3
				l-1.4,0.4h-3v-11.8h9.1c0.2,0,0.4-0.2,0.3-0.4L87.9,110.2z"/>
		</g>
		<g>
			<path d="M-88.5-89.9l-0.4,1.3c-0.1,0.3,0,0.4,0.3,0.4h11.7c0.2,0,0.3-0.1,0.5-0.2l1.9-1.9c0.2-0.2,0.2-0.3,0.2-0.5v-13.6
				c0-0.2-0.1-0.3-0.2-0.5l-2.2-2.1l2.2-2.1c0.2-0.2,0.2-0.3,0.2-0.5v-13.7c0-0.2-0.1-0.3-0.2-0.5l-1.9-1.9
				c-0.2-0.2-0.3-0.2-0.5-0.2h-11.7c-0.3,0-0.4,0.2-0.3,0.4l0.4,1.4V-89.9z M-83.7-92.8v-11.8h4.7v11.8H-83.7z M-79-109.4h-4.7
				v-11.8h4.7V-109.4z"/>
			<path d="M-56.5-125.6c-0.1-0.3-0.2-0.4-0.4-0.4h-13.4c-0.3,0-0.4,0.2-0.3,0.4l0.4,1.4v34.3l-0.4,1.3c-0.1,0.3,0,0.4,0.3,0.4h13.4
				c0.3,0,0.4-0.1,0.4-0.4l0.5-3.9c0.1-0.2-0.1-0.4-0.3-0.4h-9.1v-11.8h3l1.4,0.4c0.3,0.1,0.4,0,0.4-0.3v-5c0-0.3-0.2-0.4-0.4-0.3
				l-1.4,0.4h-3v-11.8h9.1c0.2,0,0.4-0.2,0.3-0.4L-56.5-125.6z"/>
			<path d="M-39.7-123.5l0.7-2.1c0.1-0.3,0-0.4-0.3-0.4h-5c-0.3,0-0.4,0.2-0.3,0.4l0.4,1.1l-0.8,7.9H-48l-0.8-7.9l0.3-1.1
				c0.1-0.3,0-0.4-0.3-0.4h-5c-0.3,0-0.4,0.2-0.3,0.4l0.7,2.1l4.3,34l-0.3,0.9c-0.1,0.3,0,0.4,0.3,0.4h5c0.3,0,0.4-0.2,0.3-0.4
				l-0.3-0.9L-39.7-123.5z M-47.5-111.7h2l-1,10.1L-47.5-111.7z"/>
			<path d="M-30.5-125.5c0.1-0.3,0-0.4-0.3-0.4h-5c-0.3,0-0.4,0.2-0.3,0.4l0.4,1.3v34.3l-0.4,1.4c-0.1,0.3,0,0.4,0.3,0.4h11.7
				c0.2,0,0.3-0.1,0.5-0.2l1.9-1.9c0.2-0.2,0.2-0.3,0.2-0.5v-16c0-0.2-0.1-0.3-0.2-0.5l-2.1-2.1l2-14.1l0.6-2c0.1-0.3,0-0.4-0.3-0.4
				h-5c-0.3,0-0.4,0.2-0.3,0.4l0.4,1.1l-2.2,15H-31v-14.8L-30.5-125.5z M-31-104.7h4.8v11.8H-31V-104.7z"/>
			<path d="M16.6-91.1l-4.2-33.1l0.4-1.3c0.1-0.3,0-0.4-0.3-0.4h-5c-0.3,0-0.4,0.2-0.3,0.4l0.2,0.4l-2.2,20.9l-2.3-20.9l0.2-0.4
				c0.1-0.3,0-0.4-0.3-0.4h-5c-0.3,0-0.4,0.2-0.3,0.4l0.4,1.3l-4.1,33.1l-0.8,2.6c-0.1,0.3,0,0.4,0.3,0.4h5c0.3,0,0.4-0.2,0.3-0.4
				l-0.3-0.9l2.2-20.4l2.2,20.3l-0.3,1c-0.1,0.3,0,0.4,0.3,0.4h5.1c0.3,0,0.4-0.2,0.3-0.4l-0.3-1l2.2-20.3l2.2,20.4l-0.3,0.9
				c-0.1,0.3,0,0.4,0.3,0.4h5c0.3,0,0.4-0.2,0.3-0.4L16.6-91.1z"/>
			<path d="M25.9-125.5c0.1-0.3,0-0.4-0.3-0.4h-5c-0.3,0-0.4,0.2-0.3,0.4l0.4,1.3v34.3l-0.4,1.4c-0.1,0.3,0,0.4,0.3,0.4h11.7
				c0.2,0,0.3-0.1,0.5-0.2l1.9-1.9c0.2-0.2,0.2-0.3,0.2-0.5v-16c0-0.2-0.1-0.3-0.2-0.5l-2.1-2.1l2-14.1l0.6-2c0.1-0.3,0-0.4-0.3-0.4
				h-5c-0.3,0-0.4,0.2-0.3,0.4l0.4,1.1l-2.2,15h-2.4v-14.8L25.9-125.5z M25.5-104.7h4.8v11.8h-4.8V-104.7z"/>
			<path d="M52.1-123.5l0.7-2.1c0.1-0.3,0-0.4-0.3-0.4h-5c-0.3,0-0.4,0.2-0.3,0.4l0.4,1.1l-0.8,7.9h-2.9l-0.8-7.9l0.3-1.1
				c0.1-0.3,0-0.4-0.3-0.4h-5c-0.3,0-0.4,0.2-0.3,0.4l0.7,2.1l4.3,34l-0.3,0.9c-0.1,0.3,0,0.4,0.3,0.4h5c0.3,0,0.4-0.2,0.3-0.4
				l-0.3-0.9L52.1-123.5z M44.4-111.7h2l-1,10.1L44.4-111.7z"/>
			<path d="M60.9-124.2l0.4-1.3c0.1-0.3,0-0.4-0.3-0.4h-5c-0.3,0-0.4,0.2-0.3,0.4l0.4,1.3v34.3l-0.4,1.4c-0.1,0.3,0,0.4,0.3,0.4
				h11.7c0.2,0,0.3-0.1,0.5-0.2l1.9-1.9c0.2-0.2,0.2-0.3,0.2-0.5v-16c0-0.2-0.1-0.3-0.2-0.5l-1.9-1.9c-0.2-0.2-0.3-0.2-0.5-0.2h-6.8
				V-124.2z M60.9-104.7h4.7v11.8h-4.7V-104.7z"/>
			<path d="M88.1-95.8l0.4-1.3c0.1-0.3,0-0.4-0.3-0.4h-5c-0.3,0-0.4,0.2-0.3,0.4l0.4,1.3v3h-4.7v-11.8h6.8c0.2,0,0.3-0.1,0.5-0.2
				l1.9-1.9c0.2-0.2,0.2-0.3,0.2-0.5v-16c0-0.2-0.1-0.3-0.2-0.5l-1.9-1.9c-0.2-0.2-0.3-0.2-0.5-0.2h-8.9c-0.2,0-0.3,0.1-0.5,0.2
				l-2,1.9c-0.2,0.2-0.2,0.3-0.2,0.5v5l-0.4,1.3c-0.1,0.3,0.1,0.4,0.3,0.4h5c0.3,0,0.4-0.2,0.3-0.4l-0.4-1.3v-3h4.7v11.8h-6.8
				c-0.2,0-0.3,0.1-0.5,0.2l-2,1.9c-0.2,0.2-0.2,0.3-0.2,0.5v16c0,0.2,0.1,0.3,0.2,0.5l2,1.9c0.2,0.2,0.3,0.2,0.5,0.2h8.9
				c0.2,0,0.3-0.1,0.5-0.2l1.9-1.9c0.2-0.2,0.2-0.3,0.2-0.5V-95.8z"/>
		</g>
		<g>
			<path d="M-84.7-147.5c0-0.1-0.1-0.1-0.1-0.1h-4.1c-0.1,0-0.1,0.1-0.1,0.1l0.1,0.4v10.5l-0.1,0.4c0,0.1,0,0.1,0.1,0.1h4.1
				c0.1,0,0.1,0,0.1-0.1l0.2-1.2c0-0.1,0-0.1-0.1-0.1h-2.8v-3.6h0.9l0.4,0.1c0.1,0,0.1,0,0.1-0.1v-1.5c0-0.1-0.1-0.1-0.1-0.1
				l-0.4,0.1h-0.9v-3.6h2.8c0.1,0,0.1-0.1,0.1-0.1L-84.7-147.5z"/>
			<path d="M-59.2-138.5l0.1-0.4c0-0.1,0-0.1-0.1-0.1h-1.5c-0.1,0-0.1,0.1-0.1,0.1l0.1,0.4v0.9h-1.4v-3.6h2.1c0.1,0,0.1,0,0.2-0.1
				l0.6-0.6c0.1-0.1,0.1-0.1,0.1-0.2v-4.9c0-0.1,0-0.1-0.1-0.2l-0.6-0.6c-0.1-0.1-0.1-0.1-0.2-0.1h-2.7c-0.1,0-0.1,0-0.2,0.1
				l-0.6,0.6c-0.1,0.1-0.1,0.1-0.1,0.2v1.5l-0.1,0.4c0,0.1,0,0.1,0.1,0.1h1.5c0.1,0,0.1-0.1,0.1-0.1l-0.1-0.4v-0.9h1.4v3.6h-2.1
				c-0.1,0-0.1,0-0.2,0.1l-0.6,0.6c-0.1,0.1-0.1,0.1-0.1,0.2v4.9c0,0.1,0,0.1,0.1,0.2l0.6,0.6c0.1,0.1,0.1,0.1,0.2,0.1h2.7
				c0.1,0,0.1,0,0.2-0.1l0.6-0.6c0.1-0.1,0.1-0.1,0.1-0.2V-138.5z"/>
			<path d="M-34.3-136.1c0.1,0,0.1,0,0.1-0.1l0.2-1.2c0-0.1,0-0.1-0.1-0.1h-1.3v-9.6l0.1-0.4c0-0.1,0-0.1-0.1-0.1h-1.5
				c-0.1,0-0.1,0.1-0.1,0.1l0.1,0.4v9.6h-1.3c-0.1,0-0.1,0.1-0.1,0.1l0.2,1.2c0,0.1,0.1,0.1,0.1,0.1H-34.3z"/>
			<path d="M14.7-144.8c0.1,0,0.1-0.1,0.1-0.1l-0.1-0.4v-2.2c0-0.1,0-0.1-0.1-0.1h-4.1c-0.1,0-0.1,0-0.1,0.1v5.6
				c0,0.1,0,0.1,0.1,0.2l0.6,0.6c0.1,0.1,0.1,0.1,0.2,0.1h2.1v3.6h-1.5v-0.9l0.1-0.4c0-0.1,0-0.1-0.1-0.1h-1.5
				c-0.1,0-0.1,0.1-0.1,0.1l0.1,0.4v1.5c0,0.1,0,0.1,0.1,0.2l0.6,0.6c0.1,0.1,0.1,0.1,0.2,0.1h2.7c0.1,0,0.1,0,0.2-0.1l0.6-0.6
				c0.1-0.1,0.1-0.1,0.1-0.2v-4.9c0-0.1,0-0.1-0.1-0.2l-0.6-0.6c-0.1-0.1-0.1-0.1-0.2-0.1h-2.1v-3.6h1.5v0.9l-0.1,0.4
				c0,0.1,0,0.1,0.1,0.1H14.7z"/>
			<path d="M39.4-136.1c0.1,0,0.1,0,0.2-0.1l0.6-0.6c0.1-0.1,0.1-0.1,0.1-0.2v-10c0-0.1,0-0.1-0.1-0.2l-0.6-0.6
				c-0.1-0.1-0.1-0.1-0.2-0.1h-2.7c-0.1,0-0.1,0-0.2,0.1l-0.6,0.6c-0.1,0.1-0.1,0.1-0.1,0.2v10c0,0.1,0,0.1,0.1,0.2l0.6,0.6
				c0.1,0.1,0.1,0.1,0.2,0.1H39.4z M38.7-137.6h-1.4v-8.7h1.4V-137.6z"/>
			<path d="M63.2-147.1l0.1-0.4c0-0.1,0-0.1-0.1-0.1h-1.5c-0.1,0-0.1,0.1-0.1,0.1l0.1,0.4v9.2h-0.6c-0.1,0-0.1,0.1-0.1,0.1l0.5,1.6
				c0,0.1,0.1,0.1,0.1,0.1h1.4c0.1,0,0.1,0,0.1-0.1V-147.1z"/>
			<path d="M88.9-138.5l0.1-0.4c0-0.1,0-0.1-0.1-0.1h-1.5c-0.1,0-0.1,0.1-0.1,0.1l0.1,0.4v0.9H86v-3.6h2.1c0.1,0,0.1,0,0.2-0.1
				l0.6-0.6c0-0.1,0.1-0.1,0.1-0.2v-4.9c0-0.1,0-0.1-0.1-0.2l-0.6-0.6c-0.1-0.1-0.1-0.1-0.2-0.1h-2.7c-0.1,0-0.1,0-0.2,0.1l-0.6,0.6
				c0,0.1-0.1,0.1-0.1,0.2v1.5l-0.1,0.4c0,0.1,0,0.1,0.1,0.1H86c0.1,0,0.1-0.1,0.1-0.1l-0.1-0.4v-0.9h1.5v3.6h-2.1
				c-0.1,0-0.1,0-0.2,0.1l-0.6,0.6c0,0.1-0.1,0.1-0.1,0.2v5.6c0,0.1,0,0.1,0.1,0.1h4.1c0.1,0,0.1,0,0.1-0.1V-138.5z"/>
		</g>
	</g>
</symbol>
<g id="Layer_1">
	
		<use xlink:href="#STBW"  width="420" height="420" x="-210" y="-210" transform="matrix(1 0 0 -1 210.0028 210.0028)" overflow="visible"/>
</g>
<g id="Layer_2">
</g>
</svg>
