<?xml version="1.0" encoding="utf-8"?>
<!-- Generator: Adobe Illustrator 18.0.0, SVG Export Plug-In . SVG Version: 6.00 Build 0)  -->
<!DOCTYPE svg PUBLIC "-//W3C//DTD SVG 1.1//EN" "http://www.w3.org/Graphics/SVG/1.1/DTD/svg11.dtd">
<svg version="1.1" xmlns="http://www.w3.org/2000/svg" xmlns:xlink="http://www.w3.org/1999/xlink" x="0px" y="0px"
	 viewBox="0 0 420 420" enable-background="new 0 0 420 420" xml:space="preserve">
<symbol  id="TWLOHA" viewBox="-210 -210 420 420">
	<polygon fill="#FFFFFF" points="210,-210 -210,-210 -210,210 210,210 	"/>
	<polygon fill="#42B1E5" points="89,-85.9 -87.3,-85.9 -87.3,140.8 89,140.8 	"/>
	<g>
		<polygon fill="#FFFFFF" points="1.6,108.3 6.2,90.8 23.2,92.6 7.7,84.2 15,67.3 1.6,80.6 -11.7,67.3 -3.3,84.2 -19.9,92.6 
			-1.8,90.8 		"/>
		<g>
			<path d="M-64.2-107.4h-7.7v-24.5h-7.7v24.5h-7.7v6.9h23.1V-107.4z"/>
			<path d="M-23-100.6l-8.6-31.4h-6.3l-5.1,15.5l-5.1-15.5h-6.3l-8.6,31.4h8.1l4.1-16.6l5.1,16.6h5.5l5.1-16.6l4.1,16.6H-23z"/>
			<path d="M1.1-131.9h-20.9v31.4h7.7v-24.5H1.1V-131.9z"/>
			<path d="M28.5-116.3v-1.1c0-1.7-0.1-3.3-0.2-4.5c-0.1-1.3-0.4-2.5-0.9-3.7c-0.5-1.2-1.2-2.2-2.1-3.2c-1.2-1.2-2.4-2-3.8-2.6
				c-1.4-0.6-3-0.9-4.9-0.9c-1.3,0-2.4,0.1-3.4,0.4c-1,0.3-2,0.7-2.8,1.2c-0.9,0.5-1.7,1.2-2.5,2c-1.4,1.4-2.2,2.9-2.6,4.7
				c-0.4,1.8-0.6,4-0.6,6.7v1.1v1.1c0,2.7,0.2,4.9,0.6,6.7c0.4,1.8,1.2,3.3,2.6,4.7c1.2,1.2,2.5,2.1,3.9,2.6s3,0.9,4.9,0.9
				c1.9,0,3.5-0.3,4.9-0.9s2.7-1.5,3.8-2.6c0.9-0.9,1.6-2,2.1-3.2c0.5-1.2,0.7-2.4,0.9-3.7c0.1-1.3,0.2-2.8,0.2-4.5V-116.3z
				 M20.8-116.3c0,2.7-0.1,4.5-0.3,5.5c-0.2,1-0.5,1.7-0.9,2.2c-0.3,0.4-0.7,0.7-1.3,1c-0.6,0.3-1.2,0.4-1.8,0.4
				c-0.7,0-1.3-0.1-1.8-0.4c-0.5-0.3-1-0.6-1.3-1c-0.3-0.3-0.5-0.7-0.6-1.2s-0.3-1.2-0.4-2.2c-0.1-1-0.1-2.4-0.1-4.3
				c0-1.8,0-3.3,0.1-4.2c0.1-1,0.2-1.7,0.4-2.2c0.2-0.5,0.4-0.9,0.6-1.2c0.7-0.9,1.8-1.4,3.1-1.4c1.3,0,2.4,0.5,3.1,1.4
				c0.4,0.6,0.7,1.3,0.9,2.2S20.8-118.9,20.8-116.3z"/>
			<path d="M57.4-131.9h-7.7v12.4h-8.2v-12.4h-7.7v31.4h7.7v-12.1h8.2v12.1h7.7V-131.9z"/>
			<path d="M89.3-131.9h-8l-1.5,4.7h-9.7l-1.5-4.7h-8.1L72-100.6h6L89.3-131.9z M77.8-120.8l-2.6,8.4l-2.8-8.4H77.8z"/>
		</g>
	</g>
	<path fill="#FFFFFF" d="M-49.2-8.7c-25.6-0.4-40-22.6-21.8-41.6s33.2-9.8,41.2-3.5c1.2-7.9,25.1-20.1,41.2,0
		c8.9-12.7,27.9-12.4,40.4,0C66-56.5,81.5-42.3,70.8-37.1C92.1-36.2,82.6-7.1,56.3-8.4C66.6,8.2,45.4,23.2,30.8,15.5
		c-27.9,19-44.1,15.8-57-1.2C-42.8,20-65,7-49.2-8.7z"/>
</symbol>
<g id="Layer_1">
	
		<use xlink:href="#TWLOHA"  width="420" height="420" x="-210" y="-210" transform="matrix(1 0 0 -1 210.0028 210.0028)" overflow="visible"/>
</g>
<g id="Layer_2">
</g>
</svg>
