<?xml version="1.0" encoding="utf-8"?>
<!-- Generator: Adobe Illustrator 18.0.0, SVG Export Plug-In . SVG Version: 6.00 Build 0)  -->
<!DOCTYPE svg PUBLIC "-//W3C//DTD SVG 1.1//EN" "http://www.w3.org/Graphics/SVG/1.1/DTD/svg11.dtd">
<svg version="1.1" xmlns="http://www.w3.org/2000/svg" xmlns:xlink="http://www.w3.org/1999/xlink" x="0px" y="0px"
	 viewBox="0 0 420 420" enable-background="new 0 0 420 420" xml:space="preserve">
<symbol  id="YTB" viewBox="-210 -210 420 420">
	<polygon fill="#FFFFFF" points="210,-210 -210,-210 -210,210 210,210 	"/>
	<g opacity="0.75">
		<path fill="#72D0EB" d="M155.5-7.8c-3,27-24.5,48-51.4,46.1c-12.4-0.9-24.4-6.2-34.6-8.9c1.6,10.9,5.1,24.4,5.2,38
			c0.2,43.6-37.3,56.2-67.5,45.8c-26.3-9.1-41.4-29.9-48.7-55.2c-7.4-25.6-11.6-52.1-17.1-78.2c-2.4-11.5-4.5-23-6.6-33.9
			c-15.6,1.9-29.8,4-44,5.2c-22.6,1.8-40.6-10-45.6-29.2c-4.4-16.9,6.4-35.4,22.9-37.4c25.7-3.2,48.9,1.8,64.3,31.6
			c3.1,6,5.5,12.4,8.4,18.9c19.4-5.2,38.6-10.4,57.9-15.3C35.8-90,72.6-91,109.7-78.7C134.6-70.6,159-39.9,155.5-7.8z M-127.4-107.8
			c-15.9,2-24.2,16-18.1,31c5,12.3,15.2,19,27.6,19.1c16.4,0.1,32.8-2.6,49.5-4.1C-74.9-94.1-98-111.5-127.4-107.8z M146.9-21.9
			c-3.8-23.9-17.3-40.6-40.8-49c-36.2-13-72.4-10.2-108.7-0.8c-16.8,4.4-33.6,8.9-50.4,13.4c-1.4,0.4-2.7,1.1-4.7,1.9
			c7.3,35.5,13.8,71,22,106c4.5,19.1,14.2,36.1,30.9,48c11.1,7.9,23.2,12.1,37,10.3c24.3-3.2,37.4-22.3,34.5-48.9
			C64.2,35.8,53.5,15.9,42.1-3.8c-0.5-0.9-1-1.7-1.5-2.6c0.3-0.3,0.5-0.6,0.8-0.9c7.1,6.4,13.5,13.6,21.3,18.8
			c9.7,6.6,19.8,13.7,30.8,16.9C128,38.6,151.8,8.6,146.9-21.9z"/>
	</g>
	<g>
		<path fill="#D91D4F" d="M-121.9-85.2v-21.9c0-2,0.9-2.8,2.3-2.8c1.4,0,2.3,0.7,2.3,2.8v21.9h4.2v-21.6c0-4.5-2.3-7.1-6.6-7.1
			c-4.4,0-6.6,2.6-6.6,7.1v21.6H-121.9z"/>
		<path fill="#D91D4F" d="M-106.1-93v-20.5h-4v28.3h5.6l4.6-17v17h4v-28.3h-4.6L-106.1-93z"/>
		<path fill="#D91D4F" d="M-92.7-85.2h7c4.5,0,6.6-2.5,6.6-7v-14.3c0-4.5-2.2-7-6.6-7h-7V-85.2z M-88.3-89.3v-20.2h2.5
			c1.4,0,2.3,0.7,2.3,2.8V-92c0,2-0.9,2.8-2.3,2.8H-88.3z"/>
		<path fill="#D91D4F" d="M-71.8-97.2h6.1v-4h-6.1v-8.3h7.7v-4h-12.1v28.3h12.1v-4h-7.7V-97.2z"/>
		<path fill="#D91D4F" d="M-52-113.6c-0.2,0.7-0.4,1.2-0.4,3.5v4.5c0,2.6-0.9,3.6-2.9,3.6h-1.5v-11.5h-4.5v28.3h6.7
			c4.6,0,6.6-2.1,6.6-6.5V-94c0-2.9-0.9-4.8-2.9-5.8c2.2-0.9,3-3.1,3-6v-4.4c0-1.4,0-2.4,0.5-3.4H-52z M-56.9-89.3V-98h1.7
			c1.7,0,2.7,0.7,2.7,3v2.8c0,2-0.7,2.9-2.3,2.9H-56.9z"/>
		<path fill="#D91D4F" d="M-25.8-103v-3.8c0-4.5-2.3-7.1-6.6-7.1c-4.4,0-6.6,2.6-6.6,7.1V-92c0,4.5,2.3,7.1,6.6,7.1
			c4.4,0,6.6-2.6,6.6-7.1v-2.8H-30v3c0,2-0.9,2.8-2.3,2.8c-1.4,0-2.3-0.8-2.3-2.8V-107c0-2,0.9-2.8,2.3-2.8c1.4,0,2.3,0.7,2.3,2.8v4
			H-25.8z"/>
		<path fill="#D91D4F" d="M-23.5-92c0,4.5,2.4,7.1,6.8,7.1c4.4,0,6.8-2.6,6.8-7.1v-14.7c0-4.5-2.4-7.1-6.8-7.1
			c-4.4,0-6.8,2.6-6.8,7.1V-92z M-19-107c0-2,0.9-2.8,2.3-2.8c1.4,0,2.3,0.8,2.3,2.8v15.3c0,2-0.9,2.8-2.3,2.8
			c-1.4,0-2.3-0.8-2.3-2.8V-107z"/>
		<path fill="#D91D4F" d="M-3.1-93v-20.5h-4v28.3h5.6l4.6-17v17h4v-28.3H2.4L-3.1-93z"/>
		<path fill="#D91D4F" d="M16.2-84.9c4.3,0,6.6-2.6,6.6-7.1v-0.9h-4.2v1.2c0,2-0.8,2.8-2.2,2.8c-1.4,0-2.2-0.8-2.2-2.8
			c0-5.8,8.7-6.9,8.7-15c0-4.5-2.3-7.1-6.6-7.1c-4.4,0-6.6,2.6-6.6,7.1v1.7h4.2v-2c0-2,0.9-2.8,2.3-2.8c1.4,0,2.3,0.7,2.3,2.8
			c0,5.8-8.7,6.9-8.7,15C9.6-87.5,11.9-84.9,16.2-84.9z"/>
		<path fill="#D91D4F" d="M24.1-85.2h13.8v-4h-4.7v-24.3h-4.5v24.3h-4.7V-85.2z"/>
		<path fill="#D91D4F" d="M49.1-113.6c-0.2,0.7-0.4,1.2-0.4,3.5v4.5c0,2.6-0.9,3.6-2.9,3.6h-1.5v-11.5h-4.5v28.3h6.7
			c4.6,0,6.6-2.1,6.6-6.5V-94c0-2.9-0.9-4.8-2.9-5.8c2.2-0.9,3-3.1,3-6v-4.4c0-1.4,0-2.4,0.5-3.4H49.1z M44.2-89.3V-98H46
			c1.7,0,2.7,0.7,2.7,3v2.8c0,2-0.7,2.9-2.3,2.9H44.2z"/>
		<path fill="#D91D4F" d="M60.3-85.2v-21.9c0-2,0.9-2.8,2.3-2.8c1.4,0,2.3,0.7,2.3,2.8v21.9h4.2v-21.6c0-4.5-2.3-7.1-6.6-7.1
			c-4.4,0-6.6,2.6-6.6,7.1v21.6H60.3z"/>
		<path fill="#D91D4F" d="M85.1-103v-3.8c0-4.5-2.3-7.1-6.6-7.1c-4.4,0-6.6,2.6-6.6,7.1V-92c0,4.5,2.3,7.1,6.6,7.1
			c4.4,0,6.6-2.6,6.6-7.1v-2.8h-4.2v3c0,2-0.9,2.8-2.3,2.8c-1.4,0-2.3-0.8-2.3-2.8V-107c0-2,0.9-2.8,2.3-2.8c1.4,0,2.3,0.7,2.3,2.8
			v4H85.1z"/>
		<path fill="#D91D4F" d="M86.5-85.2h13.8v-4h-4.7v-24.3h-4.5v24.3h-4.7V-85.2z"/>
		<path fill="#D91D4F" d="M102.2-85.2h4.5v-28.3h-4.5V-85.2z"/>
		<path fill="#D91D4F" d="M109.6-92c0,4.5,2.4,7.1,6.8,7.1c4.4,0,6.8-2.6,6.8-7.1v-14.7c0-4.5-2.4-7.1-6.8-7.1
			c-4.4,0-6.8,2.6-6.8,7.1V-92z M114-107c0-2,0.9-2.8,2.3-2.8c1.4,0,2.3,0.8,2.3,2.8v15.3c0,2-0.9,2.8-2.3,2.8
			c-1.4,0-2.3-0.8-2.3-2.8V-107z"/>
		<path fill="#D91D4F" d="M129.9-93v-20.5h-4v28.3h5.6l4.6-17v17h4v-28.3h-4.6L129.9-93z"/>
	</g>
</symbol>
<g id="Layer_1">
	
		<use xlink:href="#YTB"  width="420" height="420" x="-210" y="-210" transform="matrix(1 0 0 -1 210.0028 210.0028)" overflow="visible"/>
</g>
<g id="Layer_2">
</g>
</svg>
